<svg width="110" height="67" viewBox="0 0 110 67" fill="none" xmlns="http://www.w3.org/2000/svg">
<path d="M5 16.6395C5 14.9451 5.30564 13.3903 5.94514 11.9451C6.55643 10.5282 7.39028 9.30564 8.5 8.25078C9.55643 7.25078 10.8339 6.44514 12.3339 5.86207C13.8056 5.30564 15.3887 5 17.1113 5C19.3887 5 21.3887 5.47179 23.0549 6.38871C24.7226 7.33386 26.221 8.72257 27.5549 10.5549L23.7492 13.7492C23.0549 12.5266 22.1944 11.5549 21.1661 10.8323C20.1097 10.1097 18.8056 9.74922 17.2492 9.74922C16.2774 9.74922 15.3887 9.94357 14.6097 10.2774C13.8041 10.6379 13.1379 11.1113 12.5831 11.721C12 12.3605 11.5549 13.0831 11.2492 13.9154C10.9154 14.7759 10.7774 15.6928 10.7774 16.6379C10.7774 17.5831 10.9169 18.4984 11.2492 19.3323C11.5266 20.1661 11.9718 20.8887 12.5549 21.4984C13.1113 22.1379 13.8056 22.6379 14.6379 22.9702C15.4154 23.3307 16.3041 23.4984 17.3041 23.4984C18.0815 23.4984 18.8041 23.4154 19.4702 23.221C20.0815 23.0549 20.6646 22.7759 21.221 22.4154C21.721 22.0815 22.221 21.6379 22.6646 21.1379C23.0815 20.6379 23.4702 20.0815 23.8589 19.4436L27.5815 22.7492C26.3041 24.5266 24.8589 25.8605 23.1928 26.8323C21.4984 27.7774 19.4702 28.2774 17.1097 28.2774C15.3871 28.2774 13.8041 27.9718 12.3323 27.4169C10.8323 26.8339 9.55486 26.0282 8.49843 25.0282C7.38715 24 6.55486 22.7774 5.94357 21.3339C5.30564 19.9169 5 18.3605 5 16.6395Z" fill="#353535"/>
<path d="M28.7775 16.6113C28.7775 14.9451 29.0831 13.3887 29.7226 11.9451C30.3339 10.5282 31.1677 9.30564 32.2775 8.25078C33.3339 7.25078 34.6113 6.44514 36.1113 5.86207C37.5831 5.30564 39.1944 5 40.9452 5C42.696 5 44.3057 5.30564 45.8057 5.86207C47.2775 6.44514 48.5565 7.25078 49.6662 8.25078C50.7226 9.30564 51.5831 10.5282 52.1944 11.9451C52.7775 13.3903 53.0831 14.9451 53.0831 16.6113C53.0831 18.2774 52.7775 19.8887 52.1944 21.3056C51.5831 22.7508 50.7226 23.9718 49.6662 25C48.5549 26.0282 47.2775 26.8339 45.8057 27.4169C44.3057 27.9718 42.6944 28.2774 40.9452 28.2774C39.196 28.2774 37.5847 27.9718 36.1113 27.4169C34.6113 26.8339 33.3339 26.0282 32.2775 25C31.1662 23.9718 30.3339 22.7508 29.7226 21.3056C29.0831 19.8887 28.7775 18.3339 28.7775 16.6113ZM34.5549 16.6113C34.5549 17.6395 34.6944 18.5564 35.0267 19.3887C35.3041 20.2508 35.7493 20.9718 36.3041 21.5831C36.859 22.1944 37.5267 22.6661 38.3323 23C39.1098 23.3605 39.9703 23.5282 40.9436 23.5282C41.917 23.5282 42.7775 23.3621 43.5815 23C44.359 22.6661 45.0267 22.1944 45.5815 21.5831C46.138 20.9718 46.5533 20.2492 46.8872 19.3887C47.1646 18.5549 47.3323 17.6395 47.3323 16.6113C47.3323 15.6395 47.1662 14.7226 46.8872 13.8887C46.5533 13.0549 46.138 12.3339 45.5815 11.7226C45.0251 11.1113 44.359 10.6395 43.5815 10.279C42.7759 9.94514 41.8872 9.779 40.9436 9.779C40 9.779 39.1098 9.94514 38.3323 10.279C37.5267 10.6395 36.8605 11.1129 36.3041 11.7226C35.7477 12.3339 35.3041 13.0564 35.0267 13.8887C34.6928 14.7226 34.5549 15.6395 34.5549 16.6113Z" fill="#353535"/>
<path d="M75.2491 5H81.1661V28.2774H75.3886V16.6536L70.8604 28.2774H66.7225L62.1943 16.6536V28.2774H56.4169V5H62.3338L68.7774 21.5596L75.2491 5Z" fill="#353535"/>
<path d="M13.3339 39.2696H25.7492C26.6944 39.2696 27.6113 39.4091 28.4718 39.6583C29.3057 39.9357 30.0282 40.3245 30.6379 40.8245C31.2492 41.3809 31.721 42.047 32.0831 42.8793C32.4169 43.7132 32.6113 44.7132 32.6113 45.8245C32.6113 46.9357 32.4718 47.8793 32.1944 48.6583C31.9169 49.464 31.5 50.1301 30.9436 50.6583C30.3872 51.2147 29.6928 51.6865 28.8887 52.0188C28.0549 52.4075 27.0831 52.7132 26.0282 52.9357L19.1113 54.4639V61.4075H13.3339V39.2696ZM26.8605 45.964C26.8605 45.464 26.6944 44.9922 26.3605 44.6034C26 44.2429 25.5267 44.047 24.9718 44.047H19.1113V49.4075L24.3887 48.4357C25.3339 48.2696 25.9718 47.9639 26.3323 47.5188C26.6662 47.0737 26.8605 46.5737 26.8605 45.9624V45.964Z" fill="#353535"/>
<path d="M31.9624 61.4075L39.4624 39.2696H46.7398L54.2398 61.4075H48.4624L46.3511 55.2132L39.185 57.185L37.7398 61.4075H31.9624ZM40.9624 51.9357L44.8511 50.8527L43.1003 45.6583L40.9624 51.9357Z" fill="#353535"/>
<path d="M59.362 54.1865C60.3338 55.0204 61.4733 55.7147 62.8072 56.2132C64.1128 56.7414 65.4733 56.9906 66.862 56.964C67.779 56.964 68.4451 56.8245 68.8903 56.547C69.3072 56.2962 69.5298 55.9075 69.5298 55.3809C69.5298 54.7696 69.2805 54.2978 68.8072 53.9091C68.3072 53.5486 67.4733 53.2147 66.3354 52.8809C65.3354 52.6035 64.3354 52.2978 63.3072 51.964C62.2523 51.6583 61.3072 51.2414 60.4749 50.6865C59.6128 50.1583 58.9185 49.464 58.3918 48.6317C57.8354 47.7978 57.558 46.743 57.558 45.4091C57.558 44.243 57.7805 43.243 58.2523 42.3825C58.6975 41.5486 59.3072 40.8542 60.1128 40.2994C60.8903 39.7712 61.8072 39.3825 62.8621 39.105C63.8903 38.8542 65.0015 38.7163 66.1677 38.7163C66.9733 38.7163 67.7508 38.7712 68.5015 38.8825C69.2241 38.9937 69.9467 39.1599 70.6677 39.3825C71.362 39.6332 72.0564 39.9389 72.779 40.2712C73.4451 40.6317 74.1677 41.0486 74.9169 41.5486L72.6395 45.9922C71.7508 45.326 70.7508 44.7696 69.6959 44.3809C68.6128 43.9922 67.4733 43.7978 66.3072 43.7414C65.9185 43.7414 65.5564 43.7414 65.2241 43.7696C64.8636 43.8245 64.558 43.9091 64.3072 44.0204C64.0298 44.1599 63.8354 44.326 63.6959 44.4922C63.5298 44.6865 63.4451 44.9091 63.4451 45.1865C63.4451 45.464 63.4733 45.7147 63.5846 45.9091C63.6395 46.1317 63.8072 46.3542 64.0564 46.5204C64.279 46.7147 64.6395 46.9091 65.1128 47.0768C65.558 47.2712 66.141 47.4655 66.9185 47.6599C68.0846 47.9937 69.2241 48.3542 70.279 48.6881C71.3072 49.0768 72.2241 49.522 73.0015 50.0486C73.779 50.605 74.3903 51.2994 74.8354 52.105C75.2805 52.9389 75.5015 53.9655 75.5015 55.1881C75.5015 56.4107 75.279 57.3542 74.8354 58.1881C74.3903 59.0219 73.7523 59.743 72.9749 60.2994C72.1693 60.8558 71.2241 61.2712 70.141 61.5486C69.0298 61.826 67.8354 61.9655 66.558 61.9655C64.6959 61.9655 62.9749 61.6881 61.3918 61.1317C59.7805 60.5752 58.2805 59.7978 56.92 58.826L59.3636 54.1865H59.362Z" fill="#353535"/>
<path d="M80.5282 54.1865C81.5 55.0204 82.6395 55.7147 83.9733 56.2132C85.279 56.7414 86.6395 56.9906 88.0282 56.964C88.9451 56.964 89.6113 56.8245 90.0564 56.547C90.4733 56.2962 90.6959 55.9075 90.6959 55.3809C90.6959 54.7696 90.4467 54.2978 89.9733 53.9091C89.4733 53.5486 88.6395 53.2147 87.5015 52.8809C86.5015 52.6035 85.5015 52.2978 84.4733 51.964C83.4185 51.6583 82.4733 51.2414 81.641 50.6865C80.779 50.1583 80.0846 49.464 79.558 48.6317C79.0015 47.7978 78.7241 46.743 78.7241 45.4091C78.7241 44.243 78.9467 43.243 79.4185 42.3825C79.8636 41.5486 80.4733 40.8542 81.279 40.2994C82.0564 39.7712 82.9733 39.3825 84.0282 39.105C85.0564 38.8542 86.1677 38.7163 87.3338 38.7163C88.1395 38.7163 88.9169 38.7712 89.6677 38.8825C90.3903 38.9937 91.1128 39.1599 91.8338 39.3825C92.5282 39.6332 93.2225 39.9389 93.9451 40.2712C94.6113 40.6317 95.3338 41.0486 96.083 41.5486L93.8056 45.9922C92.9169 45.326 91.9169 44.7696 90.862 44.3809C89.779 43.9922 88.6395 43.7978 87.4733 43.7414C87.0846 43.7414 86.7225 43.7414 86.3903 43.7696C86.0298 43.8245 85.7241 43.9091 85.4733 44.0204C85.1959 44.1599 85.0015 44.326 84.862 44.4922C84.6959 44.6865 84.6113 44.9091 84.6113 45.1865C84.6113 45.464 84.6395 45.7147 84.7508 45.9091C84.8056 46.1317 84.9733 46.3542 85.2225 46.5204C85.4451 46.7147 85.8056 46.9091 86.279 47.0768C86.7241 47.2712 87.3072 47.4655 88.0846 47.6599C89.2508 47.9937 90.3903 48.3542 91.4451 48.6881C92.4733 49.0768 93.3903 49.522 94.1677 50.0486C94.9451 50.605 95.5564 51.2994 96.0015 52.105C96.4467 52.9389 96.6677 53.9655 96.6677 55.1881C96.6677 56.4107 96.4451 57.3542 96.0015 58.1881C95.5564 59.0219 94.9185 59.743 94.141 60.2994C93.3354 60.8558 92.3903 61.2712 91.3072 61.5486C90.1959 61.826 89.0015 61.9655 87.7241 61.9655C85.862 61.9655 84.141 61.6881 82.558 61.1317C80.9467 60.5752 79.4467 59.7978 78.0862 58.826L80.5298 54.1865H80.5282Z" fill="#353535"/>
<path d="M105 5H85V9.77743H105V5Z" fill="#353535"/>
<path d="M105 14.2492H85V19.0266H105V14.2492Z" fill="#2ECE95"/>
<path d="M105 23.5H85V28.2774H105V23.5Z" fill="#353535"/>
</svg>
