<svg width="328" height="72" viewBox="0 0 328 72" fill="none" xmlns="http://www.w3.org/2000/svg">
<rect width="328" height="72" rx="8" fill="#578FFF"/>
<path d="M17.106 23.362C17.106 22.158 17.554 21.22 18.282 20.66C18.884 20.17 19.668 19.932 20.578 19.932C21.502 19.932 22.286 20.17 22.888 20.66C23.616 21.22 24.05 22.158 24.05 23.362C24.05 24.58 23.616 25.504 22.888 26.078C22.286 26.554 21.502 26.792 20.578 26.792C19.668 26.792 18.884 26.554 18.282 26.078C17.554 25.504 17.106 24.58 17.106 23.362ZM19.164 23.362C19.164 23.95 19.332 24.398 19.654 24.692C19.892 24.916 20.2 25.028 20.578 25.028C20.956 25.028 21.278 24.916 21.516 24.692C21.838 24.398 22.006 23.95 22.006 23.362C22.006 22.788 21.838 22.34 21.516 22.046C21.278 21.822 20.956 21.696 20.578 21.696C20.2 21.696 19.892 21.822 19.654 22.046C19.332 22.34 19.164 22.788 19.164 23.362ZM27.83 20.016V26.89H25.702V20.016H27.83ZM20.144 28.626H25.716V27.352H27.83V33.078H18.016V27.352H20.144V28.626ZM25.716 31.356V30.376H20.144V31.356H25.716ZM30.5735 21.948V20.156H37.4335V21.948H35.0535C35.0535 24.104 36.0055 24.958 37.6715 25.28V27.114C36.1595 26.904 34.7595 26.274 34.0315 25.294C33.2475 26.274 31.8335 27.086 30.3355 27.254V25.434C31.9735 25.112 32.9395 24.146 32.9395 21.948H30.5735ZM38.8055 20.016H40.9335V22.732H42.7115V24.566H40.9335V27.38H38.8055V20.016ZM31.0915 30.39C31.0915 29.578 31.4415 28.976 32.0155 28.542C32.9255 27.814 34.4515 27.534 36.1735 27.534C37.8815 27.534 39.4075 27.814 40.3175 28.542C40.8915 28.976 41.2415 29.578 41.2415 30.39C41.2415 31.202 40.8915 31.818 40.3175 32.252C39.4075 32.966 37.8815 33.246 36.1735 33.246C34.4515 33.246 32.9255 32.966 32.0155 32.252C31.4415 31.818 31.0915 31.202 31.0915 30.39ZM33.2195 30.39C33.2195 30.656 33.3455 30.866 33.5835 31.034C34.0595 31.37 34.9695 31.468 36.1735 31.468C37.3635 31.468 38.2735 31.37 38.7495 31.034C38.9875 30.866 39.1275 30.656 39.1275 30.39C39.1275 30.124 38.9875 29.914 38.7495 29.746C38.2735 29.424 37.3635 29.312 36.1735 29.312C34.9695 29.312 34.0595 29.424 33.5835 29.746C33.3455 29.914 33.2195 30.124 33.2195 30.39ZM47.4709 29.536C46.8129 30.754 45.3009 31.762 43.7329 32.126V30.25C45.2309 29.578 46.4069 28.458 46.4069 24.832V20.156H48.5349V24.832C48.5349 28.458 49.6969 29.564 51.2229 30.25V32.126C49.6409 31.762 48.1569 30.74 47.4709 29.536ZM52.5669 20.016H54.6949V32.938H52.5669V20.016ZM63.6116 20.156V22.004H66.0756V20.156H68.1336V27.058H61.5676V20.156H63.6116ZM63.6116 25.308H66.0756V23.74H63.6116V25.308ZM69.7996 20.016H71.9276V22.802H73.7056V24.608H71.9276V27.52H69.7996V20.016ZM62.0856 30.474C62.0856 29.522 62.5196 28.864 63.2756 28.43C64.1856 27.898 65.5996 27.702 67.1676 27.702C68.7356 27.702 70.1356 27.898 71.0456 28.43C71.8016 28.864 72.2356 29.522 72.2356 30.474C72.2356 31.412 71.8016 32.084 71.0456 32.504C70.1356 33.064 68.7356 33.246 67.1676 33.246C65.5996 33.246 64.1856 33.064 63.2756 32.504C62.5196 32.084 62.0856 31.412 62.0856 30.474ZM64.2136 30.474C64.2136 30.726 64.3396 30.936 64.5776 31.076C65.0396 31.37 65.9356 31.482 67.1676 31.482C68.3996 31.482 69.2816 31.37 69.7436 31.076C69.9816 30.936 70.1216 30.726 70.1216 30.474C70.1216 30.208 69.9816 30.012 69.7436 29.858C69.2816 29.564 68.3996 29.466 67.1676 29.466C65.9356 29.466 65.0396 29.564 64.5776 29.858C64.3396 30.012 64.2136 30.208 64.2136 30.474ZM74.979 23.586C74.979 22.354 75.371 21.374 76.071 20.744C76.645 20.212 77.429 19.932 78.423 19.932C79.389 19.932 80.187 20.212 80.761 20.744C80.915 20.884 81.041 21.024 81.167 21.192H83.575V20.016H85.703V27.548H83.575V25.882H81.237C81.097 26.092 80.943 26.274 80.761 26.442C80.187 26.96 79.389 27.254 78.423 27.254C77.429 27.254 76.645 26.96 76.071 26.442C75.371 25.812 74.979 24.818 74.979 23.586ZM81.811 22.928C81.839 23.138 81.853 23.362 81.853 23.586C81.853 23.782 81.839 23.964 81.825 24.146H83.575V22.928H81.811ZM77.023 23.586C77.023 24.258 77.163 24.776 77.457 25.084C77.681 25.336 78.003 25.476 78.423 25.476C78.843 25.476 79.151 25.336 79.361 25.084C79.669 24.776 79.795 24.258 79.795 23.586C79.795 22.928 79.669 22.41 79.361 22.074C79.151 21.836 78.843 21.71 78.423 21.71C78.003 21.71 77.681 21.836 77.457 22.074C77.163 22.41 77.023 22.928 77.023 23.586ZM75.735 29.914V28.122H85.703V33.148H83.575V29.914H75.735ZM94.0185 24.02C93.0385 25.336 90.9665 26.344 88.4885 26.638V24.804C91.2745 24.328 92.9545 22.984 92.9545 20.52V20.086H95.0825V20.52C95.0825 22.998 96.7625 24.314 99.5485 24.804V26.638C97.0705 26.344 94.9845 25.336 94.0185 24.02ZM92.9545 29.872H88.2645V28.052H99.8005V29.872H95.0825V33.148H92.9545V29.872ZM101.998 22.928V21.15H104.378V19.638H106.478V21.15H108.844V22.928H106.492C106.632 24.762 107.542 25.518 109.096 25.826V27.646C107.57 27.436 106.226 26.806 105.456 25.84C104.672 26.834 103.258 27.618 101.774 27.8V25.98C103.3 25.672 104.224 24.804 104.364 22.928H101.998ZM112.582 20.016V27.758H110.454V20.016H112.582ZM102.614 30.18V28.374H112.582V33.148H110.454V30.18H102.614ZM130.067 21.878H126.091C126.259 23.054 128.191 23.754 130.193 23.852V25.574C128.233 25.504 126.147 24.86 125.013 23.88C123.893 24.874 121.849 25.49 119.833 25.574V23.852C121.807 23.768 123.767 23.068 123.935 21.878H119.973V20.156H130.067V21.878ZM124.145 28.08H119.189V26.302H130.865V28.08H126.259V30.278H124.145V28.08ZM119.973 29.074H122.115V31.23H130.291V33.008H119.973V29.074ZM138.452 24.02C137.472 25.336 135.4 26.344 132.922 26.638V24.804C135.708 24.328 137.388 22.984 137.388 20.52V20.086H139.516V20.52C139.516 22.998 141.196 24.314 143.982 24.804V26.638C141.504 26.344 139.418 25.336 138.452 24.02ZM137.388 29.872H132.698V28.052H144.234V29.872H139.516V33.148H137.388V29.872Z" fill="white"/>
<path opacity="0.7" d="M21.6602 41.5859H16.8555V48.3008H21.6602V41.5859ZM17.7461 47.5508V42.3242H20.7461V47.5508H17.7461ZM23.5703 50.9492H24.4844V45.4883H26.2305V44.6914H24.4844V40.5312H23.5703V50.9492ZM31.9844 42.0664V41.2695H31.0234V42.0664C31.0176 43.8594 28.9961 45.4355 27.1914 45.7812L27.6133 46.5547C29.1895 46.1855 30.8359 45.0723 31.5156 43.543C32.1895 45.0723 33.8418 46.1914 35.418 46.5547L35.8398 45.7812C34.0293 45.4414 31.9902 43.8535 31.9844 42.0664ZM26.793 49.5312H36.332V48.7695H26.793V49.5312ZM45.4727 41.5977H38.3125V42.3711H44.582V42.8867C44.582 43.4199 44.5762 43.9531 44.5586 44.5039L38.0312 44.7734L38.1602 45.5352L44.5176 45.1895C44.459 45.998 44.3477 46.8652 44.1133 47.8672L45.0391 47.9492C45.4785 45.8398 45.4785 44.4219 45.4727 42.8867V41.5977ZM37.1641 49.4844H46.6562V48.7109H37.1641V49.4844ZM54.0977 42.8047V42.5703H56.4531V41.832H54.1211V40.4961H53.1953V41.832H50.8398V42.5703H53.1953V42.8047C53.1895 44.2168 52.1113 45.4648 50.5586 45.9453L51.0273 46.6719C52.252 46.2617 53.207 45.4004 53.6641 44.2754C54.1211 45.3008 55.0469 46.0977 56.2422 46.4727L56.6875 45.7461C55.1465 45.2832 54.1035 44.0996 54.0977 42.8047ZM51.8711 48.1953H57.7773V50.9727H58.6914V47.4336H51.8711V48.1953ZM57.7773 46.8945H58.6914V44.1055H60.2617V43.3203H58.6914V40.5312H57.7773V46.8945ZM70.4102 45.6875H68.0547V44.2168C68.875 43.8887 69.3379 43.3613 69.3438 42.6641C69.3379 41.4395 67.9316 40.7363 65.6641 40.7305C63.3789 40.7363 61.9727 41.4395 61.9727 42.6641C61.9727 43.3672 62.4414 43.8945 63.2734 44.2168V45.6875H60.918V46.4492H70.4102V45.6875ZM62.0664 49.0859C62.0605 50.2754 63.4023 50.9258 65.6641 50.9258C67.8965 50.9258 69.2383 50.2754 69.25 49.0859C69.2383 47.8965 67.8965 47.2402 65.6641 47.2461C63.4023 47.2402 62.0605 47.8965 62.0664 49.0859ZM62.9219 42.6641C62.916 41.9141 63.959 41.457 65.6641 41.457C67.3516 41.457 68.4004 41.9141 68.4062 42.6641C68.4004 43.4258 67.3516 43.8652 65.6641 43.8711C63.959 43.8652 62.916 43.4258 62.9219 42.6641ZM63.0039 49.0859C62.9922 48.377 63.9941 47.9609 65.6641 47.9492C67.3164 47.9609 68.3184 48.377 68.3242 49.0859C68.3184 49.7949 67.3164 50.2168 65.6641 50.2109C63.9941 50.2168 62.9922 49.7949 63.0039 49.0859ZM64.1875 45.6875V44.4688C64.627 44.5449 65.1191 44.5859 65.6641 44.5859C66.209 44.5859 66.7012 44.5449 67.1406 44.4629V45.6875H64.1875ZM79.7383 41.2109H74.8516V45.4531H79.7383V41.2109ZM75.6016 50.1992L75.9297 50.9141C77.5 50.6973 78.9648 49.9824 79.5918 48.998C80.2129 49.959 81.6426 50.6973 83.207 50.9141L83.5234 50.1992C81.7363 49.9766 80.0605 48.9629 80.0664 47.9492H83.1602V47.2344H80.043V46.2148H79.1289V47.2344H76.0352V47.9492H79.1172C79.1172 48.9863 77.3945 50 75.6016 50.1992ZM75.7539 44.7266V41.9609H78.8359V44.7266H75.7539ZM81.9883 46.5195H82.8906V40.5312H81.9883V46.5195ZM96.1211 49.9531H89.8398V47.7266H88.9141V50.7266H96.1211V49.9531ZM87.6836 46.8945H97.2109V46.1211H92.875V44.3516H91.9727V46.1211H87.6836V46.8945ZM88.3047 44.3047L88.6797 45.0312C90.25 44.7383 91.7852 43.8477 92.4297 42.582C93.0742 43.8477 94.6094 44.7324 96.1797 45.0312L96.543 44.3047C94.7207 44.0176 92.8867 42.7578 92.8867 41.2812V40.8125H91.9609V41.2812C91.9609 42.7461 90.127 44 88.3047 44.3047ZM107.594 48.8281H103.223V46.2734H102.32V48.8281H98.0547V49.5898H107.594V48.8281ZM98.4297 45.6289L98.8398 46.3906C100.434 46.0625 102.092 44.9844 102.777 43.4902C103.451 44.9902 105.127 46.0625 106.715 46.3906L107.125 45.6289C105.309 45.3184 103.252 43.7832 103.246 42.043V41.2461H102.285V42.043C102.279 43.7949 100.252 45.3184 98.4297 45.6289ZM117.918 45.7344H113.629V44.4688H116.84V43.707H110.547V41.7148H116.746V40.9531H109.633V44.4688H112.715V45.7344H108.426V46.4844H117.918V45.7344ZM109.48 48.2539H115.844V51.0312H116.758V47.5039H109.48V48.2539ZM131.336 46.7188H121.797V47.4688H126.086V50.9492H126.988V47.4688H131.336V46.7188ZM123.016 45.4531H130.105V40.9648H129.18V42.4062H123.93V40.9648H123.016V45.4531ZM123.93 44.7031V43.1562H129.18V44.7031H123.93ZM137.465 41.2461H132.672V46.2734H133.457C135.613 46.2852 136.814 46.2383 138.25 45.9922L138.145 45.2305C136.773 45.4766 135.619 45.5352 133.586 45.5352V44.0938H137.266V43.3672H133.586V42.0078H137.465V41.2461ZM133.504 48.1133H139.41V50.9492H140.324V47.3633H133.504V48.1133ZM139.41 46.8477H140.324V44.0938H141.895V43.3086H140.324V40.5312H139.41V46.8477ZM150.965 45.5469H144.684V42.2656H150.859V41.5039H143.77V46.3086H150.965V45.5469ZM142.551 49.5312H152.09V48.7578H142.551V49.5312ZM161.523 40.543H160.609V46.2617H161.523V40.543ZM153.449 41.8086H157.293V43.1328H153.473V46.0508H154.316C156.238 46.0391 157.662 45.9863 159.414 45.7109L159.309 44.9492C157.615 45.2246 156.227 45.2656 154.363 45.2773V43.8594H158.207V41.0469H153.449V41.8086ZM154.75 50.8086H161.523V46.7891H160.609V48.0312H155.676V46.7891H154.75V50.8086ZM155.676 50.0586V48.7695H160.609V50.0586H155.676ZM171.883 40.5312H170.969V50.9492H171.883V40.5312ZM163.973 48.2656H164.816C166.486 48.2656 168.133 48.1367 169.984 47.75L169.855 46.9648C168.109 47.334 166.469 47.457 164.875 47.4688V41.5625H163.973V48.2656ZM181.727 40.5312H180.812V50.9727H181.727V45.4297H183.473V44.6562H181.727V40.5312ZM174.121 48.3594H174.941C176.922 48.3594 178.287 48.3008 179.922 48.0078L179.805 47.2109C178.252 47.498 176.922 47.5801 175.035 47.5859V42.3125H178.984V41.5508H174.121V48.3594Z" fill="white"/>
<mask id="path-5-outside-1_328_37183" maskUnits="userSpaceOnUse" x="187.758" y="14.5924" width="43.8386" height="43.8427" fill="black">
<rect fill="white" x="187.758" y="14.5924" width="43.8386" height="43.8427"/>
<path fill-rule="evenodd" clip-rule="evenodd" d="M221.134 25.3431C220.357 24.5662 219.097 24.5662 218.32 25.3431L208.475 35.19L207.771 34.4868L215.508 26.7498C216.285 25.9729 216.285 24.7133 215.508 23.9363C214.731 23.1594 213.471 23.1594 212.694 23.9363L204.958 31.6733L204.958 31.6732L201.165 35.4667L201.956 32.5147C202.24 31.4534 201.61 30.3626 200.549 30.0782C199.488 29.7938 198.397 30.4237 198.113 31.4849L195.519 41.1647C194.666 42.3379 194.768 43.9901 195.827 45.0484L204.947 54.1694C206.118 55.341 208.018 55.341 209.189 54.1694L216.908 46.4496C216.91 46.4477 216.912 46.4459 216.914 46.444L225.353 38.0037C226.13 37.2268 226.13 35.9672 225.353 35.1903C224.577 34.4133 223.317 34.4133 222.54 35.1903L215.508 42.2236L214.804 41.5205L223.947 32.377C224.724 31.6001 224.724 30.3405 223.947 29.5635C223.17 28.7866 221.911 28.7866 221.134 29.5635L211.991 38.707L211.288 38.0034L221.134 28.1565C221.911 27.3796 221.911 26.12 221.134 25.3431Z"/>
</mask>
<path fill-rule="evenodd" clip-rule="evenodd" d="M221.134 25.3431C220.357 24.5662 219.097 24.5662 218.32 25.3431L208.475 35.19L207.771 34.4868L215.508 26.7498C216.285 25.9729 216.285 24.7133 215.508 23.9363C214.731 23.1594 213.471 23.1594 212.694 23.9363L204.958 31.6733L204.958 31.6732L201.165 35.4667L201.956 32.5147C202.24 31.4534 201.61 30.3626 200.549 30.0782C199.488 29.7938 198.397 30.4237 198.113 31.4849L195.519 41.1647C194.666 42.3379 194.768 43.9901 195.827 45.0484L204.947 54.1694C206.118 55.341 208.018 55.341 209.189 54.1694L216.908 46.4496C216.91 46.4477 216.912 46.4459 216.914 46.444L225.353 38.0037C226.13 37.2268 226.13 35.9672 225.353 35.1903C224.577 34.4133 223.317 34.4133 222.54 35.1903L215.508 42.2236L214.804 41.5205L223.947 32.377C224.724 31.6001 224.724 30.3405 223.947 29.5635C223.17 28.7866 221.911 28.7866 221.134 29.5635L211.991 38.707L211.288 38.0034L221.134 28.1565C221.911 27.3796 221.911 26.12 221.134 25.3431Z" fill="white"/>
<path d="M221.134 25.3431L220.427 26.0502L221.134 25.3431ZM208.475 35.19L207.767 35.8971L208.475 36.6042L209.182 35.8971L208.475 35.19ZM207.771 34.4868L207.064 33.7796L206.357 34.4868L207.064 35.1939L207.771 34.4868ZM204.958 31.6733L204.251 32.3805L204.958 33.0876L205.665 32.3805L204.958 31.6733ZM204.958 31.6732L205.665 30.966L204.958 30.2589L204.251 30.966L204.958 31.6732ZM201.165 35.4667L200.199 35.2079L199.233 38.813L201.872 36.1739L201.165 35.4667ZM201.956 32.5147L202.922 32.7736L202.922 32.7736L201.956 32.5147ZM200.549 30.0782L200.808 29.1122L200.549 30.0782ZM198.113 31.4849L199.079 31.7438L199.079 31.7438L198.113 31.4849ZM195.519 41.1647L196.328 41.753L196.437 41.6029L196.485 41.4235L195.519 41.1647ZM216.908 46.4496L216.204 45.7399L216.201 45.7424L216.908 46.4496ZM215.508 42.2236L214.8 42.9307L215.508 43.6379L216.215 42.9307L215.508 42.2236ZM214.804 41.5205L214.097 40.8133L213.39 41.5205L214.097 42.2276L214.804 41.5205ZM211.991 38.707L211.284 39.4142L211.991 40.1213L212.698 39.4142L211.991 38.707ZM211.288 38.0034L210.581 37.2963L209.874 38.0034L210.581 38.7105L211.288 38.0034ZM219.028 26.0502C219.414 25.6639 220.04 25.6639 220.427 26.0502L221.841 24.6359C220.673 23.4685 218.781 23.4685 217.613 24.6359L219.028 26.0502ZM209.182 35.8971L219.028 26.0502L217.613 24.6359L207.767 34.4828L209.182 35.8971ZM207.064 35.1939L207.767 35.8971L209.182 34.4828L208.478 33.7796L207.064 35.1939ZM214.801 26.0427L207.064 33.7796L208.478 35.1939L216.215 27.4569L214.801 26.0427ZM214.801 24.6435C215.187 25.0299 215.187 25.6563 214.801 26.0427L216.215 27.4569C217.382 26.2895 217.382 24.3967 216.215 23.2292L214.801 24.6435ZM213.402 24.6435C213.788 24.2571 214.414 24.2571 214.801 24.6435L216.215 23.2292C215.047 22.0618 213.155 22.0618 211.987 23.2292L213.402 24.6435ZM205.665 32.3805L213.402 24.6435L211.987 23.2292L204.251 30.9662L205.665 32.3805ZM204.251 32.3803L204.251 32.3805L205.665 30.9662L205.665 30.966L204.251 32.3803ZM201.872 36.1739L205.665 32.3803L204.251 30.966L200.458 34.7596L201.872 36.1739ZM200.99 32.2559L200.199 35.2079L202.131 35.7256L202.922 32.7736L200.99 32.2559ZM200.29 31.0442C200.818 31.1856 201.131 31.7281 200.99 32.2559L202.922 32.7736C203.349 31.1788 202.403 29.5396 200.808 29.1122L200.29 31.0442ZM199.079 31.7438C199.22 31.216 199.763 30.9028 200.29 31.0442L200.808 29.1122C199.213 28.6849 197.574 29.6313 197.147 31.2261L199.079 31.7438ZM196.485 41.4235L199.079 31.7438L197.147 31.2261L194.554 40.9059L196.485 41.4235ZM196.534 44.3412C195.829 43.6364 195.76 42.5345 196.328 41.753L194.711 40.5764C193.572 42.1413 193.708 44.3438 195.12 45.7555L196.534 44.3412ZM205.654 53.4623L196.534 44.3412L195.12 45.7555L204.24 54.8765L205.654 53.4623ZM208.482 53.4622C207.701 54.2433 206.435 54.2433 205.654 53.4623L204.24 54.8765C205.802 56.4387 208.334 56.4387 209.896 54.8765L208.482 53.4622ZM216.201 45.7424L208.482 53.4622L209.896 54.8765L217.615 47.1567L216.201 45.7424ZM216.207 45.7369C216.206 45.7377 216.205 45.7387 216.204 45.7399L217.613 47.1593C217.615 47.1568 217.618 47.154 217.621 47.1512L216.207 45.7369ZM224.646 37.2966L216.207 45.7369L217.621 47.1512L226.06 38.7108L224.646 37.2966ZM224.646 35.8974C225.033 36.2838 225.033 36.9102 224.646 37.2966L226.06 38.7108C227.228 37.5434 227.228 35.6506 226.06 34.4831L224.646 35.8974ZM223.247 35.8974C223.634 35.511 224.26 35.511 224.646 35.8974L226.06 34.4831C224.893 33.3157 223 33.3157 221.833 34.4831L223.247 35.8974ZM216.215 42.9307L223.247 35.8974L221.833 34.4831L214.8 41.5165L216.215 42.9307ZM214.097 42.2276L214.8 42.9307L216.215 41.5165L215.512 40.8133L214.097 42.2276ZM223.24 31.6699L214.097 40.8133L215.512 42.2276L224.654 33.0841L223.24 31.6699ZM223.24 30.2707C223.626 30.6571 223.626 31.2835 223.24 31.6699L224.654 33.0841C225.821 31.9167 225.821 30.0239 224.654 28.8564L223.24 30.2707ZM221.841 30.2707C222.227 29.8843 222.854 29.8843 223.24 30.2707L224.654 28.8564C223.487 27.689 221.594 27.689 220.427 28.8564L221.841 30.2707ZM212.698 39.4142L221.841 30.2707L220.427 28.8564L211.284 37.9999L212.698 39.4142ZM210.581 38.7105L211.284 39.4142L212.698 37.9999L211.995 37.2963L210.581 38.7105ZM220.427 27.4494L210.581 37.2963L211.995 38.7105L221.841 28.8637L220.427 27.4494ZM220.427 26.0502C220.813 26.4366 220.813 27.063 220.427 27.4494L221.841 28.8637C223.008 27.6962 223.008 25.8034 221.841 24.6359L220.427 26.0502Z" fill="#353535" mask="url(#path-5-outside-1_328_37183)"/>
<mask id="path-7-outside-2_328_37183" maskUnits="userSpaceOnUse" x="190.896" y="19.3014" width="43.8386" height="43.8427" fill="black">
<rect fill="white" x="190.896" y="19.3014" width="43.8386" height="43.8427"/>
<path fill-rule="evenodd" clip-rule="evenodd" d="M224.272 30.0522C223.496 29.2753 222.236 29.2753 221.459 30.0522L211.613 39.8991L210.91 39.196L218.646 31.4592C219.423 30.6823 219.423 29.4226 218.646 28.6457C217.87 27.8688 216.61 27.8688 215.833 28.6457L208.097 36.3826L208.097 36.3823L204.304 40.1761L205.095 37.2236C205.379 36.1623 204.749 35.0715 203.688 34.7871C202.627 34.5027 201.536 35.1326 201.252 36.1938L198.658 45.8741C197.805 47.0473 197.907 48.6993 198.965 49.7575L208.086 58.8785C209.257 60.0502 211.157 60.0502 212.328 58.8785L220.047 51.1587C220.049 51.1569 220.051 51.155 220.053 51.1532L228.492 42.7128C229.269 41.9359 229.269 40.6763 228.492 39.8994C227.715 39.1225 226.456 39.1225 225.679 39.8994L218.646 46.9327L217.943 46.2296L227.086 37.0861C227.863 36.3092 227.863 35.0496 227.086 34.2727C226.309 33.4958 225.05 33.4958 224.273 34.2727L215.13 43.4162L214.427 42.7125L224.272 32.8657C225.049 32.0888 225.049 30.8291 224.272 30.0522Z"/>
</mask>
<path fill-rule="evenodd" clip-rule="evenodd" d="M224.272 30.0522C223.496 29.2753 222.236 29.2753 221.459 30.0522L211.613 39.8991L210.91 39.196L218.646 31.4592C219.423 30.6823 219.423 29.4226 218.646 28.6457C217.87 27.8688 216.61 27.8688 215.833 28.6457L208.097 36.3826L208.097 36.3823L204.304 40.1761L205.095 37.2236C205.379 36.1623 204.749 35.0715 203.688 34.7871C202.627 34.5027 201.536 35.1326 201.252 36.1938L198.658 45.8741C197.805 47.0473 197.907 48.6993 198.965 49.7575L208.086 58.8785C209.257 60.0502 211.157 60.0502 212.328 58.8785L220.047 51.1587C220.049 51.1569 220.051 51.155 220.053 51.1532L228.492 42.7128C229.269 41.9359 229.269 40.6763 228.492 39.8994C227.715 39.1225 226.456 39.1225 225.679 39.8994L218.646 46.9327L217.943 46.2296L227.086 37.0861C227.863 36.3092 227.863 35.0496 227.086 34.2727C226.309 33.4958 225.05 33.4958 224.273 34.2727L215.13 43.4162L214.427 42.7125L224.272 32.8657C225.049 32.0888 225.049 30.8291 224.272 30.0522Z" fill="white"/>
<path d="M224.272 30.0522L223.565 30.7594L224.272 30.0522ZM211.613 39.8991L210.906 40.6062L211.613 41.3134L212.32 40.6062L211.613 39.8991ZM210.91 39.196L210.203 38.4889L209.496 39.196L210.203 39.9031L210.91 39.196ZM215.833 28.6457L216.54 29.3529L215.833 28.6457ZM208.097 36.3826L207.39 37.0897L208.097 37.7968L208.804 37.0897L208.097 36.3826ZM208.097 36.3823L208.804 35.6752L208.097 34.968L207.39 35.6752L208.097 36.3823ZM204.304 40.1761L203.338 39.9172L202.372 43.5223L205.011 40.8832L204.304 40.1761ZM205.095 37.2236L206.06 37.4825L206.06 37.4825L205.095 37.2236ZM203.688 34.7871L203.947 33.8211L203.688 34.7871ZM201.252 36.1938L202.218 36.4527L202.218 36.4527L201.252 36.1938ZM198.658 45.8741L199.467 46.4623L199.576 46.3122L199.624 46.1329L198.658 45.8741ZM198.965 49.7575L198.258 50.4647L198.965 49.7575ZM208.086 58.8785L208.793 58.1714L208.086 58.8785ZM220.047 51.1587L219.343 50.449L219.34 50.4516L220.047 51.1587ZM220.053 51.1532L219.346 50.446L220.053 51.1532ZM228.492 42.7128L229.199 43.42L228.492 42.7128ZM218.646 46.9327L217.939 47.6399L218.646 48.347L219.353 47.6399L218.646 46.9327ZM217.943 46.2296L217.236 45.5225L216.529 46.2296L217.236 46.9367L217.943 46.2296ZM227.086 37.0861L226.379 36.379L227.086 37.0861ZM215.13 43.4162L214.423 44.1233L215.13 44.8304L215.837 44.1233L215.13 43.4162ZM214.427 42.7125L213.719 42.0054L213.012 42.7125L213.719 43.4197L214.427 42.7125ZM222.166 30.7594C222.553 30.373 223.179 30.373 223.565 30.7594L224.98 29.3451C223.812 28.1776 221.92 28.1776 220.752 29.3451L222.166 30.7594ZM212.32 40.6062L222.166 30.7594L220.752 29.3451L210.906 39.192L212.32 40.6062ZM210.203 39.9031L210.906 40.6062L212.32 39.192L211.617 38.4889L210.203 39.9031ZM217.939 30.752L210.203 38.4889L211.617 39.9031L219.353 32.1663L217.939 30.752ZM217.939 29.3529C218.326 29.7392 218.326 30.3657 217.939 30.752L219.353 32.1663C220.521 30.9989 220.521 29.106 219.353 27.9386L217.939 29.3529ZM216.54 29.3529C216.927 28.9665 217.553 28.9665 217.939 29.3529L219.353 27.9386C218.186 26.7711 216.294 26.7711 215.126 27.9386L216.54 29.3529ZM208.804 37.0897L216.54 29.3529L215.126 27.9386L207.39 35.6754L208.804 37.0897ZM207.39 37.0895L207.39 37.0897L208.804 35.6754L208.804 35.6752L207.39 37.0895ZM205.011 40.8832L208.804 37.0895L207.39 35.6752L203.596 39.4689L205.011 40.8832ZM204.129 36.9648L203.338 39.9172L205.269 40.4349L206.06 37.4825L204.129 36.9648ZM203.429 35.7531C203.957 35.8945 204.27 36.437 204.129 36.9648L206.06 37.4825C206.488 35.8877 205.541 34.2485 203.947 33.8211L203.429 35.7531ZM202.218 36.4527C202.359 35.9249 202.901 35.6117 203.429 35.7531L203.947 33.8211C202.352 33.3938 200.713 34.3402 200.286 35.935L202.218 36.4527ZM199.624 46.1329L202.218 36.4527L200.286 35.935L197.692 45.6153L199.624 46.1329ZM199.672 49.0504C198.968 48.3456 198.898 47.2438 199.467 46.4623L197.849 45.2859C196.711 46.8508 196.847 49.0531 198.258 50.4647L199.672 49.0504ZM208.793 58.1714L199.672 49.0504L198.258 50.4647L207.379 59.5857L208.793 58.1714ZM211.621 58.1714C210.84 58.9525 209.574 58.9525 208.793 58.1714L207.379 59.5857C208.941 61.1478 211.473 61.1478 213.035 59.5857L211.621 58.1714ZM219.34 50.4516L211.621 58.1714L213.035 59.5857L220.754 51.8659L219.34 50.4516ZM219.346 50.446C219.345 50.4469 219.344 50.4478 219.343 50.449L220.752 51.8684C220.754 51.8659 220.757 51.8632 220.76 51.8603L219.346 50.446ZM227.785 42.0057L219.346 50.446L220.76 51.8603L229.199 43.42L227.785 42.0057ZM227.785 40.6065C228.171 40.9929 228.171 41.6193 227.785 42.0057L229.199 43.42C230.367 42.2525 230.367 40.3597 229.199 39.1923L227.785 40.6065ZM226.386 40.6065C226.772 40.2202 227.399 40.2202 227.785 40.6065L229.199 39.1923C228.032 38.0248 226.139 38.0248 224.972 39.1923L226.386 40.6065ZM219.353 47.6399L226.386 40.6065L224.972 39.1923L217.939 46.2256L219.353 47.6399ZM217.236 46.9367L217.939 47.6399L219.353 46.2256L218.65 45.5225L217.236 46.9367ZM226.379 36.379L217.236 45.5225L218.65 46.9367L227.793 37.7933L226.379 36.379ZM226.379 34.9798C226.765 35.3662 226.765 35.9926 226.379 36.379L227.793 37.7933C228.96 36.6258 228.96 34.733 227.793 33.5655L226.379 34.9798ZM224.98 34.9798C225.366 34.5935 225.992 34.5935 226.379 34.9798L227.793 33.5655C226.626 32.3981 224.733 32.3981 223.566 33.5655L224.98 34.9798ZM215.837 44.1233L224.98 34.9798L223.566 33.5655L214.423 42.709L215.837 44.1233ZM213.719 43.4197L214.423 44.1233L215.837 42.709L215.134 42.0054L213.719 43.4197ZM223.565 32.1585L213.719 42.0054L215.134 43.4197L224.98 33.5728L223.565 32.1585ZM223.565 30.7594C223.952 31.1457 223.952 31.7722 223.565 32.1585L224.98 33.5728C226.147 32.4054 226.147 30.5125 224.98 29.3451L223.565 30.7594Z" fill="#353535" mask="url(#path-7-outside-2_328_37183)"/>
<path fill-rule="evenodd" clip-rule="evenodd" d="M241.726 41.3057C241.293 41.3057 240.941 41.657 240.941 42.0904V44.4451H238.587C238.154 44.4451 237.802 44.7965 237.802 45.2299C237.802 45.6634 238.154 46.0148 238.587 46.0148H240.941V48.3693C240.941 48.8028 241.293 49.1541 241.726 49.1541C242.16 49.1541 242.511 48.8028 242.511 48.3693V46.0148H244.865C245.299 46.0148 245.65 45.6634 245.65 45.2299C245.65 44.7965 245.299 44.4451 244.865 44.4451H242.511V42.0904C242.511 41.657 242.16 41.3057 241.726 41.3057Z" fill="#353535"/>
<path fill-rule="evenodd" clip-rule="evenodd" d="M228.358 11C227.924 11 227.573 11.3514 227.573 11.7848V15.709H223.649C223.216 15.709 222.864 16.0604 222.864 16.4938C222.864 16.9273 223.216 17.2787 223.649 17.2787H227.573V21.2031C227.573 21.6365 227.924 21.9878 228.358 21.9878C228.791 21.9878 229.142 21.6365 229.142 21.2031V17.2787H233.066C233.5 17.2787 233.851 16.9273 233.851 16.4938C233.851 16.0604 233.5 15.709 233.066 15.709H229.142V11.7848C229.142 11.3514 228.791 11 228.358 11Z" fill="#353535"/>
<path d="M246 55.5C246 50.8056 249.806 47 254.5 47H311.5C316.194 47 320 50.8056 320 55.5C320 60.1944 316.194 64 311.5 64H254.5C249.806 64 246 60.1944 246 55.5Z" fill="black" fill-opacity="0.2"/>
<path d="M255.569 51.9297H254.515L252.757 53.082V54.1074L254.446 53.0039H254.485V59H255.569V51.9297Z" fill="white"/>
<line opacity="0.5" x1="263.183" y1="52.2191" x2="259.683" y2="58.2813" stroke="white" stroke-linecap="round"/>
<path opacity="0.5" d="M268.983 51.9297H267.929L266.171 53.082V54.1074L267.86 53.0039H267.899V59H268.983V51.9297ZM273.241 59.0977C274.877 59.0977 275.834 57.7793 275.839 55.4648C275.834 53.165 274.862 51.832 273.241 51.832C271.615 51.832 270.644 53.165 270.644 55.4648C270.644 57.7793 271.605 59.0977 273.241 59.0977ZM271.718 55.4648C271.718 53.707 272.289 52.7451 273.241 52.7402C274.188 52.7451 274.765 53.707 274.765 55.4648C274.765 57.2275 274.193 58.1699 273.241 58.1699C272.284 58.1699 271.713 57.2275 271.718 55.4648Z" fill="white"/>
<path d="M287.76 57.9648H284.195V55.9434H286.803V51.7832H280.67V55.9434H283.277V57.9648H279.752V58.7363H287.76V57.9648ZM281.568 55.2109V52.5254H285.895V55.2109H281.568ZM295.406 54.3027H290.406V52.3301H295.299V51.5781H289.469V55.0352H295.406V54.3027ZM288.385 56.8516H291.91V59.8105H292.818V56.8516H296.393V56.0996H288.385V56.8516ZM305.045 57.9746H301.48V56.1777H304.098V51.6758H303.18V53.1797H298.883V51.6758H297.955V56.1777H300.562V57.9746H297.037V58.7461H305.045V57.9746ZM298.883 55.4258V53.9316H303.18V55.4258H298.883ZM312.955 51.0801H312.018V59.8301H312.955V51.0801ZM305.768 57.4863L306.256 58.2383C309.259 56.7979 310.348 54.5811 310.348 52.0176H306.188V52.7598H309.41C309.229 54.8008 308.092 56.3779 305.768 57.4863Z" fill="white"/>
</svg>
