<svg width="232" height="190" viewBox="0 0 232 190" fill="none" xmlns="http://www.w3.org/2000/svg">
<g style="mix-blend-mode:multiply">
<g style="mix-blend-mode:multiply">
<g style="mix-blend-mode:multiply">
<path d="M205.552 37.5947C205.241 37.6232 204.85 37.6739 204.748 37.8386C204.456 38.3231 204.147 38.8044 203.868 39.2952C203.585 39.7829 203.315 40.2769 203.114 40.8026C202.476 42.4651 202.148 44.2954 201.303 45.8724C200.054 48.1999 198.989 50.6699 197.184 52.6649C196.571 53.3077 196.386 54.2704 195.945 55.0589C195.662 55.5529 195.42 56.1071 194.963 56.4554C192.9 57.9817 191.524 59.9324 190.227 62.0921C189.852 62.7032 189.318 63.1972 188.781 63.6627C188.244 64.1219 187.504 64.3531 187.005 64.8344C186.534 65.2967 186.048 65.7432 185.587 66.2214C185.352 66.4557 185.123 66.6964 184.885 66.9244C184.64 67.1492 184.392 67.3677 184.141 67.5862C181.592 69.7744 178.786 71.6966 175.751 73.2134C174.604 73.7581 173.387 74.1444 172.189 74.5434C171.674 74.7271 171.162 74.9202 170.634 75.0659L169.064 75.5441C168 75.7911 166.945 76.0919 165.861 76.2439C165.607 76.2851 165.346 76.2819 165.089 76.2756C164.828 76.2756 164.571 76.2661 164.316 76.2882C163.897 76.3326 163.481 76.4022 163.061 76.4751L162.432 76.5859C162.222 76.6112 162.009 76.6334 161.799 76.6524C161.523 76.6777 161.243 76.6524 160.967 76.6429C160.636 76.6239 160.306 76.6239 159.978 76.5827L158.993 76.4719C158.44 76.4117 157.849 76.5447 157.341 76.2534C156.565 75.8196 155.783 75.6549 155.001 75.4586C154.607 75.3731 154.213 75.3097 153.816 75.2527C153.616 75.2306 153.419 75.1926 153.225 75.1482L152.64 75.0184C152.167 74.9044 151.684 74.8347 151.204 74.7429C150.727 74.6384 150.247 74.5434 149.764 74.4484L149.039 74.3059L148.34 74.1191C147.879 73.9734 147.422 73.8119 146.986 73.5966C144.609 72.4597 142.537 70.6072 141.418 68.3747C140.938 67.4184 140.77 66.3797 140.659 65.3727C140.44 63.8179 140.751 62.0921 141.342 60.4264C142.025 58.5612 142.953 56.7404 144.295 55.2584C144.609 54.8847 144.978 54.5617 145.324 54.2261C145.696 53.9126 146.055 53.5896 146.443 53.3014C146.812 52.9942 147.209 52.7282 147.581 52.4306C147.972 52.1614 148.334 51.8574 148.715 51.5787C149.697 50.8061 150.832 50.2012 152.001 49.7706C152.608 49.5584 153.215 49.4159 153.797 49.4222C154.379 49.4222 154.922 49.5806 155.44 49.8814C156.473 50.4926 157.302 51.5471 157.894 52.6871C158.199 53.2602 158.44 53.8714 158.647 54.4889C158.834 55.1159 159.003 55.7492 159.098 56.3984C159.317 57.6936 159.324 59.0236 159.2 60.3377C159.152 60.7462 159.174 61.1896 158.93 61.5442C158.459 62.2377 158.192 62.9249 157.963 63.6342C157.716 64.4037 157.569 65.2144 157.395 66.0061C157.144 67.1207 156.708 68.1752 156.257 69.2044C156.05 69.6699 155.583 70.0246 155.389 70.4806C155.021 71.3672 154.623 72.2381 154.172 73.0456C153.724 73.8531 153.225 74.6162 152.659 75.1989C152.583 75.2749 152.532 75.3351 152.437 75.4301L152.16 75.6992L151.61 76.2376C151.235 76.5922 150.889 76.9627 150.543 77.3332C149.834 78.0647 149.176 78.8311 148.505 79.5879C148.102 80.0661 147.806 80.6361 147.38 81.0921C146.545 82.0041 145.61 82.8337 144.816 83.7774C143.599 85.2214 142.674 86.8776 141.323 88.2171C139.349 90.1709 137.729 92.4066 135.943 94.4681C135.545 94.9431 135.132 95.3991 134.728 95.8677C134.331 96.3427 133.912 96.7861 133.499 97.2421C133.092 97.7076 132.65 98.1224 132.221 98.5594C131.795 98.9869 131.312 99.4429 130.854 99.8736C130.308 100.387 129.739 100.874 129.167 101.359C128.601 101.853 128.058 102.372 127.521 102.895C127.174 103.237 126.834 103.579 126.497 103.927L125.528 105.013C125.204 105.374 124.88 105.735 124.549 106.09C124.231 106.457 123.913 106.818 123.583 107.173C122.204 108.633 120.739 110.035 119.429 111.502C119.01 111.97 118.597 112.448 118.158 112.876L117.51 113.538C117.29 113.756 117.055 113.946 116.83 114.152L116.146 114.76C115.905 114.947 115.657 115.124 115.412 115.308L114.678 115.853C114.427 116.027 114.157 116.176 113.896 116.34C112.876 117.018 111.741 117.547 110.642 118.12L108.916 118.874L108.055 119.25C107.769 119.377 107.467 119.478 107.171 119.592C106.285 119.925 105.417 120.311 104.578 120.78C102.728 121.739 100.958 122.892 98.7971 123.155C96.1053 123.525 93.62 124.729 91.0108 125.486C89.1039 126.04 87.2035 126.626 85.2585 127.025C84.3241 127.211 83.2944 126.901 82.3696 127.123C82.0327 127.205 81.699 127.268 81.4035 127.43C80.9808 127.661 80.5899 128 80.2021 128.345C80.11 128.427 79.9956 128.716 80.0687 128.937C80.1577 129.206 80.431 129.282 80.574 129.257C82.9194 128.792 85.2267 128.215 87.6675 128.174C87.9058 128.171 88.1219 128.009 88.3444 127.914C88.8211 127.715 89.2724 127.424 89.7682 127.316C91.1157 127.025 92.5776 127.056 93.8234 126.458C96.0067 125.425 98.3077 124.871 100.574 124.152C101.352 123.915 102.099 123.573 102.849 123.244C103.596 122.911 104.343 122.575 105.106 122.294C106.297 121.806 107.321 120.945 108.77 121.062C109.415 121.09 109.968 120.65 110.521 120.346C111.405 119.893 112.158 119.165 113.041 118.728C113.575 118.481 114.1 118.209 114.646 117.958C115.193 117.708 115.759 117.48 116.264 117.148C116.521 116.993 116.747 116.787 116.966 116.584C117.284 116.309 117.557 115.989 117.834 115.672C118.107 115.355 118.393 115.048 118.654 114.728C118.997 114.282 119.369 113.873 119.76 113.478C120.135 113.072 120.519 112.68 120.913 112.293C121.689 111.517 122.461 110.742 123.141 109.902C123.38 109.602 123.608 109.291 123.834 108.978C124.063 108.671 124.301 108.367 124.546 108.072C125.039 107.483 125.582 106.932 126.313 106.562C127.212 106.096 127.651 105.083 128.366 104.373C129.971 102.648 131.697 101.067 133.451 99.4334C135.186 97.8279 136.766 96.0989 138.323 94.3541C138.679 93.9487 139.082 93.5814 139.483 93.2109C139.877 92.8372 140.268 92.4572 140.608 92.0361C142.073 90.2089 143.376 88.2646 144.809 86.4279C145.953 84.9586 147.212 83.5811 148.458 82.2004C149.195 81.3961 150.006 80.6582 150.711 79.8381C150.873 79.6449 151.019 79.4391 151.162 79.2237L151.591 78.5904C151.881 78.1692 152.163 77.7386 152.558 77.4187L153.419 76.7094C153.562 76.5986 153.711 76.4656 153.857 76.3326C154.007 76.1996 154.156 76.0666 154.28 75.9177C154.824 75.3446 155.221 74.6669 155.488 73.9449C155.577 73.6662 155.767 73.4351 155.917 73.1849C156.959 71.4369 157.852 69.6002 158.586 67.7256C158.996 66.6742 159.146 65.5342 159.521 64.4861C159.991 63.2289 160.328 61.8894 160.515 60.5404C160.69 59.1882 160.709 57.8044 160.525 56.4396C160.344 55.1571 160.01 53.8334 159.225 52.7757C159.022 52.5129 158.86 52.2437 158.717 51.9619C158.567 51.6769 158.421 51.3951 158.275 51.1101C157.97 50.5464 157.617 49.9701 157.067 49.5616C156.524 49.1562 155.939 48.7826 155.278 48.5292C154.62 48.2664 153.892 48.1651 153.196 48.1936C152.497 48.2189 151.823 48.3582 151.185 48.5324L150.241 48.8301C149.929 48.9409 149.627 49.0739 149.325 49.2037C149.008 49.3431 148.731 49.5647 148.451 49.7737C148.175 49.9859 147.924 50.2329 147.638 50.4229C146.472 51.2526 145.391 52.1867 144.418 53.2222C143.471 54.2292 142.636 55.3281 141.863 56.4712C141.364 57.1901 140.71 57.8487 140.382 58.6752C140.052 59.5841 139.794 60.5024 139.531 61.4207L138.727 64.2771C138.628 64.6254 138.828 65.0086 138.927 65.3569C138.997 65.6039 139.127 65.8446 139.102 66.0821C138.99 66.8104 139.07 67.5672 139.318 68.2576C139.445 68.6027 139.578 68.9447 139.775 69.2551L140.058 69.7237C140.16 69.8726 140.274 70.0151 140.382 70.1607C141.272 71.3134 142.362 72.1937 143.328 73.2324C143.599 73.5237 143.891 73.7992 144.199 74.0684C144.517 74.3154 144.841 74.5751 145.207 74.7619C145.566 74.9582 145.947 75.1166 146.354 75.2021C146.754 75.3002 147.187 75.3192 147.622 75.2686C147.711 75.2591 147.755 75.4364 147.848 75.4712C148.115 75.5852 148.385 75.7119 148.652 75.8196L149.459 76.1204C150.002 76.3104 150.536 76.5321 151.096 76.6777C151.483 76.7791 151.877 76.8614 152.272 76.9437L152.863 77.0641C153.06 77.1084 153.257 77.1464 153.454 77.1749C153.848 77.2414 154.239 77.3332 154.626 77.4346C155.017 77.5296 155.402 77.6689 155.796 77.7417C156.19 77.8272 156.587 77.9096 156.985 77.9761C157.385 78.0394 157.785 78.1091 158.192 78.0901C159.908 78.0901 161.612 77.9761 163.312 77.8747C163.827 77.8431 164.345 77.7987 164.86 77.7449C165.372 77.6594 165.88 77.5676 166.385 77.4694L167.145 77.3206L167.895 77.1274L169.395 76.7474C169.888 76.5954 170.38 76.4497 170.876 76.3136L171.623 76.1172L172.363 75.8987C172.859 75.7562 173.361 75.6296 173.873 75.5187C174.375 75.3889 174.884 75.2654 175.408 75.1672C176.152 74.5561 176.908 74.0114 177.715 73.5712C178.122 73.3559 178.516 73.1152 178.923 72.8967L180.146 72.2381C180.63 71.9499 181.097 71.6364 181.558 71.3134C181.786 71.1487 182.018 70.9936 182.241 70.8162L182.896 70.2811C183.325 69.9169 183.769 69.5749 184.189 69.2044C184.608 68.8339 185.031 68.4697 185.47 68.1246C186.188 67.5482 186.801 66.8484 187.501 66.2562C188.165 65.6229 188.915 65.0909 189.852 64.7331C190.129 64.6254 190.262 64.3182 190.431 64.0776C190.641 63.7799 190.825 63.4569 191.016 63.1497C191.203 62.8362 191.391 62.5259 191.632 62.2599C193.977 59.6791 196.011 56.8639 198.103 54.0899C199.762 51.8986 201.322 48.9789 202.393 46.6007C202.654 46.0022 202.895 45.4417 203.114 44.9382C203.327 44.4316 203.496 43.9756 203.645 43.5987C203.934 42.8419 204.106 42.3827 204.112 42.3732L205.25 40.3466C205.622 39.6657 205.978 38.9786 206.334 38.2882C206.391 38.1806 206.331 37.9557 206.197 37.8417C206.061 37.7246 205.714 37.5979 205.555 37.6106L205.552 37.5947Z" fill="#2ECE95"/>
</g>
<g style="mix-blend-mode:multiply">
<path d="M71.0874 129.023C70.8109 128.918 70.5217 129.039 70.2389 129.061C68.8183 129.165 67.3945 129.514 65.9739 129.245C64.4007 128.944 62.8053 129.295 61.1845 129.637C59.5669 129.976 57.9206 130.299 56.3665 129.96C53.7033 129.374 50.967 129.564 48.2751 129.197C46.7751 129.004 44.2771 128.586 42.0302 128.228C40.9052 128.057 39.8341 127.911 38.9284 127.924C38.4771 127.93 38.0608 127.978 37.7175 128.086C37.3743 128.19 37.1296 128.352 37.0406 128.447C36.9866 128.494 36.8785 128.64 36.834 128.789C36.7959 128.953 36.8245 129.112 36.9643 129.216C37.0374 129.273 37.1518 129.295 37.244 129.311C37.3362 129.321 37.422 129.33 37.4538 129.305C37.8606 129.045 38.458 129.042 39.0206 129.067C39.5926 129.099 40.1742 129.181 40.7494 129.283C42.3099 129.571 43.8703 129.929 45.4498 130.233C47.0261 130.543 48.6152 130.809 50.2169 131.008C53.4173 131.401 56.643 131.474 59.8656 131.525C61.9536 131.559 64.2672 130.511 66.3203 130.457C67.3404 130.435 68.3797 130.657 69.3871 130.226C69.9306 130.001 70.6202 130.692 71.2145 130.185C71.4116 130.017 71.8883 130.467 71.7898 129.685C71.758 129.428 71.3353 129.115 71.0811 129.017L71.0874 129.023Z" fill="#2ECE95"/>
</g>
</g>
</g>
<path d="M159.575 136.597L55.9979 109.452C55.3782 109.291 55.0063 108.657 55.1716 108.04L66.0025 67.0031C66.1646 66.3856 66.8002 66.0151 67.4199 66.1797L146.131 86.8074L147.101 92.7449L150.991 88.0804L171 93.3244C171.62 93.4859 171.992 94.1192 171.826 94.7367L160.995 135.774C160.833 136.391 160.198 136.762 159.578 136.597H159.575Z" fill="white"/>
<path d="M159.546 137.208C159.648 137.357 159.807 137.512 160.013 137.614C160.217 137.715 160.461 137.747 160.674 137.683C161.288 137.496 161.838 137.04 162.127 136.429C162.165 136.353 162.197 136.277 162.225 136.198L162.282 136.037L162.365 135.812L162.527 135.362C162.737 134.76 162.921 134.152 163.042 133.532C163.427 131.559 163.442 129.494 163.941 127.553C164.679 124.675 165.117 121.714 166.246 118.93C166.621 118.009 166.535 116.938 166.7 115.947C166.805 115.317 166.849 114.649 167.154 114.088C168.505 111.593 169.042 108.901 169.265 106.112C169.328 105.314 169.557 104.538 169.815 103.784C170.069 103.037 170.555 102.356 170.752 101.596C171.124 100.155 171.337 98.6731 171.664 97.2197L171.972 95.839L172.128 95.1486L172.208 94.7908C172.243 94.6388 172.246 94.4805 172.23 94.3253C172.169 93.7015 171.693 93.16 171.102 93.0238L169.713 92.7103L164.173 91.4341C162.794 91.108 161.453 90.6266 160.08 90.2656L152.967 88.448C152.411 88.3023 151.903 87.9825 151.347 87.84L151.073 87.7735H151.064C150.943 87.7418 150.819 87.7861 150.746 87.878C150.212 88.5461 149.723 89.2523 149.201 89.93C149.014 90.177 148.791 90.3955 148.575 90.6203L147.031 92.2195C146.948 92.305 146.872 92.3968 146.792 92.4918L147.501 92.685C147.415 92.1815 147.285 91.6748 147.377 91.1713C147.666 89.6165 147.409 88.1281 147.142 86.6493L147.136 86.6176C147.063 86.2186 146.764 85.921 146.395 85.8291L145.413 85.5853C143.246 85.0248 140.989 84.819 138.819 84.2775C135.857 83.5333 132.936 82.6245 130.003 81.7695C128.747 81.4053 127.521 80.943 126.253 80.639C124.279 80.164 122.274 79.8251 120.297 79.3596C118.056 78.834 115.809 78.321 113.613 77.637C111.465 76.9688 109.351 76.1106 107.155 75.7085C105.706 75.4425 104.257 75.1258 102.833 74.7806C96.8553 73.3271 90.9218 71.709 84.9756 70.1446C84.5116 70.0211 84.0063 69.9641 83.6058 69.695C82.0232 68.6373 80.2117 68.4663 78.4192 68.1655C77.1575 67.9533 75.934 67.5701 74.7104 67.1965C74.1574 67.0286 73.6775 66.6075 73.1214 66.4618L69.8988 65.6258L68.2843 65.211L67.8807 65.1065L67.779 65.0811L67.636 65.0463C67.5025 65.0146 67.3627 64.9988 67.226 64.9925C66.6667 64.9671 66.1105 65.1571 65.6815 65.5023C65.4654 65.6765 65.281 65.8886 65.1412 66.1261C65.0713 66.2465 65.0141 66.37 64.9632 66.4998L64.8997 66.6961L64.871 66.807L64.6645 67.6113L64.2545 69.22L63.4377 72.4373C63.2693 73.1023 63.2312 73.8053 63.0341 74.4608C62.64 75.7686 62.122 77.0416 61.7534 78.3558C61.1877 80.3698 60.9366 82.4535 60.2088 84.4421C59.1473 87.346 58.5054 90.3828 57.7839 93.3911C57.1292 96.1176 56.6366 98.8821 56.0264 101.618C55.6641 103.23 55.1843 104.813 54.7997 106.419L54.6154 107.198L54.5264 107.587C54.4978 107.73 54.4692 107.806 54.4311 108.059C54.377 108.493 54.4819 108.939 54.7139 109.297C54.9427 109.658 55.305 109.927 55.7055 110.054L55.8517 110.095L55.9502 110.117L56.1472 110.162L56.5381 110.25L57.3199 110.431C57.8411 110.554 58.3592 110.684 58.8772 110.824C61.0224 111.409 63.1104 112.207 65.2556 112.796C70.7569 114.307 76.274 115.76 81.7912 117.214C82.824 117.486 83.8728 117.714 84.9375 117.854C87.2575 118.151 89.5743 118.284 91.7958 119.212C94.5861 120.377 97.6466 120.738 100.59 121.451C102.744 121.97 104.912 122.433 107.044 123.034C108.064 123.322 108.957 124.063 109.993 124.304C110.372 124.393 110.737 124.494 111.112 124.494C111.646 124.494 112.193 124.393 112.736 124.279C112.866 124.25 113.108 124.063 113.13 123.848C113.159 123.585 112.914 123.402 112.758 123.36C110.2 122.702 107.626 122.094 105.21 120.944C104.972 120.83 104.686 120.856 104.419 120.824C103.857 120.754 103.269 120.767 102.732 120.609C101.266 120.175 99.8681 119.418 98.3553 119.25C95.708 118.956 93.2068 118.142 90.6548 117.493C88.9069 117.049 87.0986 116.831 85.3411 116.419C83.9618 116.093 82.4872 116.137 81.2572 115.203C80.7043 114.785 79.9447 114.763 79.2646 114.636C78.1904 114.44 77.0781 114.408 76.0325 114.126C74.7867 113.791 73.5981 113.249 72.3777 112.815C72.0758 112.708 71.758 112.651 71.4401 112.597L68.7737 112.166C66.3647 111.77 64.1369 110.713 61.7661 110.165C60.0817 109.775 58.3337 109.649 56.7574 108.759C56.055 108.423 56.2457 108.509 56.0995 108.411C56.0773 108.388 56.0551 108.363 56.0392 108.331C56.0328 108.316 56.0233 108.297 56.0201 108.278C56.0201 108.271 56.0137 108.274 56.0201 108.255L56.0264 108.202L56.0423 108.094C56.0805 107.809 56.125 107.527 56.1853 107.252C56.751 104.671 57.2977 102.087 57.9047 99.5155C58.499 96.9948 59.1283 94.4836 59.7988 91.982C60.1103 90.823 60.641 89.7241 60.9302 88.5588C61.5563 86.0413 62.0457 83.4858 62.6782 80.9715C63.1835 78.9575 63.8096 76.9783 64.3943 74.9865C64.7376 73.818 65.1698 72.6716 65.4463 71.4841C65.7005 70.3821 65.656 69.1978 65.9993 68.1243L66.1931 67.529L66.2917 67.2313L66.3425 67.0856C66.3584 67.0508 66.3679 67.016 66.3902 66.9843C66.5268 66.7215 66.8065 66.5631 67.0735 66.5568C67.2133 66.5473 67.3086 66.5821 67.5406 66.6455C67.7409 66.6993 67.9443 66.75 68.1477 66.7975C68.5544 66.8893 68.9676 66.9621 69.3871 67.0065C69.7049 67.0413 70.0037 67.168 70.3087 67.2661C72.4381 67.9565 74.5515 68.6975 76.6967 69.3276C77.898 69.6823 79.1661 69.8058 80.3769 70.132C83.2054 70.8983 86.0148 71.7501 88.8433 72.5133C90.1813 72.8743 91.5256 73.2638 92.9144 73.3588C94.3128 73.4538 95.4951 74.2296 96.8648 74.4608C99.6107 74.9231 102.22 76.022 104.899 76.8105C105.605 77.0195 106.367 77.0131 107.089 77.1778C108.589 77.5198 110.082 77.8998 111.57 78.2861C113.019 78.663 114.468 79.0398 115.902 79.4673C116.814 79.7396 117.672 80.2336 118.603 80.4141C120.634 80.8131 122.69 81.0918 124.584 82.0165C124.908 82.1748 125.321 82.0956 125.69 82.1305C125.947 82.1558 126.24 82.1051 126.453 82.2318C129.068 83.7961 132.173 83.6283 134.919 84.7968C136.445 85.4428 138.088 86.1141 139.902 85.7531C139.995 85.7341 140.074 85.8925 140.176 85.9241C141.371 86.2978 142.562 86.6841 143.767 87.0261C144.488 87.232 145.223 87.3871 145.95 87.5676L145.372 86.9343L145.432 87.2953C145.702 89.0085 145.598 90.7691 145.938 92.4728L146.027 92.9225L146.042 93.0016C146.16 93.5875 146.732 93.9675 147.32 93.8503C147.587 93.7965 147.813 93.6476 147.968 93.4513C149.001 92.115 150.031 90.7755 151.159 89.5215C151.385 89.2713 151.607 89.018 151.827 88.7615L150.74 89.1098C154.722 90.2086 158.841 90.8135 162.629 92.6026C164.691 92.5773 166.611 93.16 168.556 93.6951C169.147 93.8598 169.745 93.9991 170.342 94.129L170.784 94.224C170.819 94.224 170.851 94.2303 170.882 94.243C170.946 94.2683 171.009 94.3316 171.038 94.4108C171.051 94.4583 171.063 94.4773 171.054 94.5596L170.965 95.0093L170.784 95.9086C170.66 96.5071 170.526 97.1056 170.374 97.6978C169.872 99.6485 169.732 101.713 168.48 103.452C168.295 103.708 168.318 104.066 168.28 104.386C168.187 105.174 168.222 105.991 168.022 106.751C167.059 110.459 166.185 114.193 165.054 117.857C164.161 120.751 163.382 124.304 162.823 127.141C162.543 128.56 162.321 129.798 162.165 130.688L161.92 132.126L161.126 134.583L160.929 135.197L160.83 135.505C160.798 135.603 160.763 135.72 160.735 135.79C160.601 136.1 160.29 136.306 159.975 136.318C159.886 136.328 159.724 136.445 159.626 136.581C159.53 136.727 159.451 137.056 159.562 137.211L159.546 137.208Z" fill="#303030"/>
<path d="M122.398 127.534C122.649 127.73 122.995 127.74 123.303 127.829C124.835 128.285 126.456 128.509 127.88 129.244C131.045 130.878 135.205 130.156 138.437 131.594C141.221 132.835 144.279 133.282 147.209 134.108C150.473 135.03 158.205 137.199 158.958 137.129C159.073 137.12 159.448 137.078 159.53 136.762C159.575 136.597 159.422 136.347 159.308 136.312C158.049 135.923 156.772 135.587 155.51 135.201C152.106 134.159 148.718 133.06 145.302 132.059C141.892 131.062 138.444 130.194 135.034 129.2C132.834 128.557 130.079 128.734 127.892 128.053C126.809 127.711 125.801 127.148 124.603 127.138C123.955 127.132 123.488 126.267 122.687 126.476C122.42 126.546 122.092 125.97 121.905 126.679C121.841 126.91 122.166 127.35 122.398 127.531V127.534Z" fill="#303030"/>
<g style="mix-blend-mode:multiply">
<g style="mix-blend-mode:multiply">
<path d="M171.553 95.8866L151.544 90.6426L147.654 95.3071L147.6 94.9714L137.5 133.231L160.128 139.162C160.747 139.324 161.383 138.956 161.545 138.339L172.376 97.3021C172.538 96.6846 172.169 96.0512 171.55 95.8897L171.553 95.8866Z" fill="#2ECE95"/>
</g>
</g>
</svg>
