<svg width="16" height="16" viewBox="0 0 16 16" fill="none" xmlns="http://www.w3.org/2000/svg">
<path fill-rule="evenodd" clip-rule="evenodd" d="M0 1C0 0.447715 0.447715 0 1 0H6C6.55228 0 7 0.447715 7 1V6C7 6.55228 6.55228 7 6 7H1C0.447715 7 0 6.55228 0 6V1ZM10 0C9.44772 0 9 0.447715 9 1V6C9 6.55228 9.44771 7 10 7H15C15.5523 7 16 6.55228 16 6V1C16 0.447715 15.5523 0 15 0H10ZM10 9C9.44772 9 9 9.44771 9 10V15C9 15.5523 9.44771 16 10 16H15C15.5523 16 16 15.5523 16 15V10C16 9.44772 15.5523 9 15 9H10ZM1 9C0.447715 9 0 9.44771 0 10V15C0 15.5523 0.447715 16 1 16H6C6.55228 16 7 15.5523 7 15V10C7 9.44772 6.55228 9 6 9H1Z" fill="#353535"/>
</svg>
