<svg width="20" height="12" viewBox="0 0 20 12" fill="none" xmlns="http://www.w3.org/2000/svg">
<path d="M17.6422 5.99793C17.6422 5.62915 17.8109 5.29769 18.0799 5.06644C18.4987 4.70639 19 4.28363 19 3.73134V2C19 1.44771 18.5523 1 18 1H2C1.44772 1 1 1.44772 1 2V3.75013C1 4.29585 1.48972 4.71546 1.90141 5.07366C2.16707 5.3048 2.33333 5.63417 2.33333 6C2.33333 6.36583 2.16707 6.6952 1.90141 6.92634C1.48972 7.28454 1 7.70415 1 8.24987V10C1 10.5523 1.44772 11 2 11H18C18.5523 11 19 10.5523 19 10V8.26451C19 7.71223 18.4986 7.2896 18.0799 6.92945C17.8107 6.69786 17.6422 6.36602 17.6422 5.99793Z" stroke="#EBECED" stroke-width="1.5" stroke-linejoin="round"/>
</svg>
