<svg width="232" height="190" viewBox="0 0 232 190" fill="none" xmlns="http://www.w3.org/2000/svg">
<g style="mix-blend-mode:multiply">
<g style="mix-blend-mode:multiply">
<path d="M195.652 42.1167C194.651 42.1009 193.637 42.2434 192.633 42.4587C192.341 42.5221 192.106 42.7501 191.654 42.2782C191.524 42.1452 191.445 42.2276 191.356 42.2529C190.453 42.5031 189.573 42.7754 188.689 43.0889C188.038 43.3264 187.377 43.6051 186.757 44.0104C186.144 44.4157 185.556 44.9477 185.203 45.6887C185.069 45.9579 185.009 46.2429 184.841 46.5152C184.745 46.6609 184.612 46.8161 184.532 46.9871C184.462 47.1581 184.453 47.3481 184.634 47.5127C184.288 47.7819 184.348 48.0732 184.434 48.3361C184.599 48.8427 184.923 49.3526 185.384 49.7199C185.826 50.0841 186.442 50.3437 187.043 50.3532C187.644 50.3754 188.187 50.2107 188.645 49.9701C189.106 49.7262 189.493 49.4064 189.814 49.0232C190.04 48.7414 190.237 48.4342 190.393 48.0922C190.571 47.7439 190.679 47.3354 190.733 46.9111C190.739 46.7021 190.749 46.4582 190.717 46.2714C190.691 46.0782 190.656 45.8851 190.59 45.6982C190.402 45.1156 190.062 44.6057 189.671 44.2036C189.277 43.7951 188.832 43.4816 188.375 43.2187C187.955 42.9812 187.545 42.8894 187.262 42.1167C187.192 41.9362 187.037 41.9552 186.913 41.9236C186.719 41.8856 186.528 41.8381 186.328 41.8159L186.029 41.7811L185.753 41.7621C185.384 41.7399 185.019 41.7494 184.663 41.7811C183.951 41.8412 183.286 41.9869 182.67 42.1706C182.39 42.2529 182.076 42.2529 181.99 42.8039C181.688 42.6202 181.764 43.4467 181.303 42.8292C180.89 42.7849 180.537 42.8799 180.309 43.2409C180.216 43.3834 180.188 43.6621 180.086 43.7729C179.981 43.8837 179.873 44.0072 179.667 43.8584C179.435 43.6937 179.377 43.8837 179.282 44.0072C178.691 43.5196 178.456 43.8837 178.132 44.0262C176.562 44.7229 175.014 45.5367 173.517 46.4804C173.244 46.6419 173.012 46.8762 172.716 47.0124C172.421 47.1486 172.475 47.7597 172.026 47.6837C172.195 48.1461 171.706 47.7471 171.74 48.0194C171.81 48.5071 171.575 48.5894 171.394 48.7509C170.205 49.7547 169.112 50.8789 168.149 52.0886C167.844 52.4306 167.542 52.7789 167.256 53.1399C166.986 53.5104 166.71 53.8746 166.449 54.2514L165.842 55.1476C165.642 55.4484 165.461 55.7556 165.276 56.0659C165.229 56.1482 165.203 56.2464 165.276 56.3921C165.327 56.4934 165.553 56.6802 165.728 56.8386C165.778 56.8829 165.928 56.9747 166.029 57.0286C166.106 57.0666 166.223 57.1109 166.246 57.1046C166.373 57.0729 166.535 57.0634 166.582 56.9874C167.475 55.4547 168.489 53.9949 169.662 52.6712C169.799 52.5192 169.926 52.3609 170.056 52.2026C170.193 52.0506 170.329 51.8986 170.472 51.7529C171.143 51.0436 171.899 50.4229 172.643 49.7896C172.802 49.6629 172.939 49.5014 172.964 49.1974C172.993 48.8142 173.104 48.5292 173.504 48.6622C173.603 48.6939 173.584 48.5387 173.628 48.4849C173.708 48.3962 173.743 48.2379 173.889 48.2506C174.067 48.2696 174.261 48.3392 174.245 48.0542C174.235 47.8452 174.42 47.9022 174.534 47.8706C174.601 47.8516 174.776 47.9909 174.779 47.8832C174.795 47.2531 175.236 47.2942 175.526 47.1074C175.739 46.9649 175.967 46.8446 176.196 46.7306C176.428 46.6229 176.663 46.5216 176.892 46.4044C177.232 46.2271 177.572 46.0529 177.915 45.8851C178.259 45.7141 178.602 45.5462 178.958 45.4037C179.362 45.2359 179.657 44.8084 180.34 45.2992C180.442 44.8654 180.823 45.0491 180.979 44.7261C181.179 44.3112 181.488 44.1466 182.009 44.5329C182.136 44.6311 182.254 44.6374 182.266 44.4506C182.301 43.9217 182.536 43.8584 182.759 43.7856C183.366 43.5861 184.008 43.4689 184.653 43.3929C185.295 43.3201 185.966 43.2789 186.63 43.4309C186.843 43.4816 187.087 43.5259 187.103 44.0421C187.3 44.3144 187.472 44.5424 187.688 44.6817C187.907 44.8242 188.181 44.8527 188.638 44.7989C188.743 44.7862 188.851 44.7989 188.797 44.9319C188.594 45.4132 188.708 45.5462 188.816 45.7267C188.874 45.8122 188.924 45.8977 188.966 45.9896C189.017 46.0782 189.048 46.1732 189.083 46.2714C189.115 46.3474 189.14 46.4234 189.223 46.4899C189.306 46.5596 189.42 46.6261 189.601 46.7084C189.77 46.7844 189.821 46.9269 189.639 46.9966C189.474 47.0599 189.363 47.1137 189.274 47.1676C189.179 47.2182 189.118 47.2689 189.08 47.3227C188.994 47.4272 188.978 47.5539 188.934 47.6774C188.689 48.3646 187.933 48.8934 187.256 48.8459C187.183 48.8459 187.11 48.8554 187.04 48.8491C186.967 48.8491 186.89 48.8554 186.824 48.8269C186.744 48.8047 186.668 48.7794 186.604 48.7256C186.534 48.6844 186.468 48.6401 186.411 48.5767C186.302 48.4786 186.236 48.3487 186.159 48.2347C186.118 48.1714 186.042 48.1207 185.997 48.0511C185.962 47.9751 185.953 47.8832 186.09 47.7597C186.21 47.6521 186.115 47.6236 186.013 47.5697C185.905 47.5222 185.788 47.4557 185.883 47.3702C185.991 47.2721 186.013 47.1739 186.194 47.1011C186.391 47.0251 186.534 46.9776 186.385 46.8794C186.083 46.6736 186.172 46.4614 186.569 46.4551C186.681 46.4519 186.674 46.4044 186.69 46.3601C186.741 46.2366 186.811 46.1321 186.878 46.0307C186.97 45.9167 187.068 45.8027 187.183 45.6982C187.408 45.4892 187.688 45.3087 188.009 45.1662C188.654 44.8749 189.353 44.4411 190.218 44.3207C190.45 44.2891 190.641 44.1624 190.853 44.0864C191.235 43.9534 191.61 43.8141 192.001 43.7286C192.106 43.7064 192.245 43.7887 192.392 43.9154C192.512 44.0199 192.617 44.0927 192.64 43.8742C192.694 43.3929 192.91 43.4119 193.132 43.5227C193.231 43.5702 193.364 43.8109 193.412 43.6399C193.469 43.4499 193.65 43.7887 193.688 43.4816C193.707 43.3359 193.793 43.3739 193.869 43.4689C194.035 43.6779 194.159 43.6969 194.279 43.6937C194.823 43.6621 195.341 43.7064 195.824 43.7159C195.992 43.7096 196.129 43.8647 196.323 43.4372C196.39 43.2884 196.444 43.3074 196.479 43.4499C196.561 43.7856 196.679 43.7792 196.796 43.8109C196.987 43.8774 197.184 43.9154 197.372 43.9756C197.419 43.9882 197.483 43.9407 197.55 43.8964C197.569 43.8806 197.635 43.7729 197.651 43.7222C197.721 43.5101 197.817 43.2219 197.829 43.1079C197.858 42.8831 197.871 42.6392 197.823 42.5949C197.728 42.5094 197.626 42.4239 197.518 42.3637C197.41 42.3036 197.295 42.2592 197.175 42.2307C196.676 42.1262 196.161 42.1357 195.652 42.1389V42.1167Z" fill="#303030"/>
</g>
</g>
<path d="M159.362 71.3798L69.8733 77.1019C56.2456 77.9728 45.9105 89.6863 46.7845 103.265C47.6585 116.844 59.4142 127.142 73.0418 126.271L79.1882 125.878L82.2773 136.442C82.3822 138.38 84.664 139.368 86.1546 138.117L99.601 124.57L162.527 120.545C176.155 119.675 186.49 107.961 185.616 94.3824C184.742 80.8038 172.986 70.5058 159.358 71.3766L159.362 71.3798Z" fill="#2ECE95"/>
<g style="mix-blend-mode:multiply">
<g style="mix-blend-mode:multiply">
<path d="M173.666 73.4762C176.511 75.6073 178.907 78.337 180.601 81.4499C182.301 84.5595 183.318 88.0302 183.569 91.5515C183.623 92.055 183.623 92.5649 183.655 93.0715C183.661 93.5782 183.655 94.088 183.62 94.5915C183.528 95.5985 183.334 96.5992 182.87 97.5112C182.629 98.0337 182.53 98.6829 182.393 99.2814C181.647 102.258 180.312 105.08 178.513 107.556C176.714 110.035 174.448 112.17 171.868 113.82C170.914 114.421 169.929 114.979 168.896 115.438C168.642 115.561 168.384 115.675 168.121 115.777L167.336 116.093C166.802 116.277 166.274 116.48 165.731 116.625C164.653 116.958 163.544 117.189 162.429 117.363L161.59 117.48C161.31 117.512 161.027 117.531 160.748 117.559C160.191 117.616 159.607 117.639 159.035 117.677L145.245 118.525C143.532 118.63 141.812 118.763 140.103 118.753C138.266 118.744 136.435 118.494 134.611 118.937C133.394 118.646 132.151 118.722 130.899 118.801C121.396 119.406 111.894 120.01 102.388 120.615L97.2907 120.929L96.8458 120.957L96.5185 121.28L96.4835 121.315C93.9379 123.836 91.3573 126.322 88.837 128.868L83.0339 134.789L83.1197 134.71C82.7892 134.992 82.3633 135.062 81.9533 134.897C81.5465 134.723 81.2859 134.368 81.2541 133.922L81.2446 133.77L81.2097 133.649L80.2721 130.483C79.5761 128.101 78.7975 125.726 78.7625 123.218C78.7625 123.12 78.753 123.019 78.7371 122.908L78.5655 121.739L76.8366 121.578C76.3472 121.534 75.8006 121.606 75.2857 121.638L72.4795 121.809C71.5483 121.866 70.5853 121.933 69.7495 121.952C68.0206 121.993 66.2886 121.831 64.601 121.473C62.9134 121.119 61.264 120.574 59.6972 119.858C58.1336 119.13 56.6526 118.228 55.286 117.173C54.0339 116.204 52.9724 115.058 51.5931 114.209C51.4469 113.921 51.2499 113.674 51.0274 113.44C50.8049 113.205 50.5793 112.968 50.3568 112.733C50.128 112.499 49.9405 112.236 49.7911 111.954C49.718 111.812 49.6545 111.663 49.6132 111.508C49.575 111.346 49.556 111.179 49.5591 111.001C48.6025 109.054 47.8303 107.078 47.0389 105.061C46.7338 104.263 46.3111 103.484 46.1332 102.629C46.0887 102.413 46.0442 102.198 45.9965 101.976C45.9584 101.755 45.9361 101.533 45.9139 101.308C45.898 101.086 45.8821 100.865 45.8916 100.649C45.9075 100.431 45.9361 100.222 45.9838 100.016C46.0791 99.5601 46.1141 99.1357 46.1014 98.7177C46.0791 98.2965 46.0664 97.8817 46.0474 97.4542C46.4796 96.425 46.7306 95.399 46.9976 94.3635C47.112 93.841 47.2646 93.328 47.3885 92.8087C47.5474 92.2989 47.6809 91.7764 47.8843 91.2824C48.3419 90.0759 48.8981 88.9074 49.5496 87.7927C50.2075 86.6812 50.9607 85.6267 51.7933 84.6387C53.4586 82.6627 55.4577 80.9654 57.695 79.667C59.9229 78.3592 62.3732 77.4282 64.9188 76.9532C65.2366 76.8898 65.5544 76.8297 65.8754 76.7917C66.1964 76.7537 66.5142 76.6872 66.8384 76.6682L67.8109 76.5827L68.8628 76.5162L73.0706 76.247C75.095 76.1172 77.1195 75.9303 79.1471 75.8543C81.1556 75.7783 83.1006 75.107 85.1346 75.316C85.9958 74.784 87.0192 75.3382 87.8455 75.0437C89.3424 74.5117 90.8869 74.4863 92.4378 74.3787C102.404 73.6947 112.371 73.0075 122.337 72.3235C128.261 71.9942 134.182 71.6078 140.103 71.2373L154.124 70.376C154.741 70.338 155.38 70.2683 155.958 70.091C156.368 69.9675 156.705 69.6572 157.042 69.4007C157.137 69.3278 157.166 69.1505 157.14 69.0333C157.121 68.9478 156.975 68.8338 156.87 68.8243C156.26 68.7673 155.643 68.6723 155.036 68.7103C142.883 69.483 130.734 70.2588 118.584 71.0315L110.178 71.6078L90.0924 72.922C88.7004 73.017 87.283 73.1563 85.9418 73.473C84.2574 73.872 82.6112 74.1412 80.8728 73.9195C80.4469 73.8657 79.9734 74.0335 79.5189 74.0842C78.7466 74.1633 77.9617 74.3248 77.2021 74.2837C76.2773 74.2298 75.4224 74.1095 74.4721 74.4262C73.7857 74.6542 72.9403 74.5623 72.1648 74.5782C71.7104 74.5877 71.2019 74.4072 70.811 74.5243C69.6796 74.8663 68.5132 74.993 67.3596 75.088C66.2155 75.1672 65.0714 75.3002 63.9495 75.5409C60.6602 76.304 57.4948 77.672 54.7617 79.6765C52.7118 81.1712 50.9225 83.011 49.4352 85.0567C47.9701 87.1214 46.791 89.395 46.0156 91.8049C45.5643 93.1824 45.3037 94.62 45.0876 96.0482C44.8651 97.4795 44.703 98.9077 44.4106 100.371C44.6299 101.27 44.738 102.176 44.8715 103.081C44.9318 103.534 45.0304 103.984 45.1194 104.43C45.2274 104.874 45.3641 105.308 45.5293 105.726C45.9997 106.805 46.451 107.847 46.88 108.895C47.3249 109.937 47.7063 111.004 48.0845 112.122C48.1671 112.407 48.3133 112.699 48.4849 112.971C48.6534 113.243 48.8536 113.49 49.0856 113.652C50.3632 114.586 51.3357 115.735 52.448 116.793C55.4481 119.643 59.1728 121.768 63.2058 122.788C65.2175 123.313 67.3024 123.532 69.3777 123.522C69.8989 123.516 70.4137 123.484 70.9349 123.459L72.5112 123.351L75.6639 123.145C76.0898 123.117 76.5156 123.088 76.9415 123.073L77.2307 123.06L77.3006 123.323C77.5517 124.263 77.7392 125.21 77.6756 126.189C78.1968 128.871 78.7943 131.528 79.7255 134.08L79.7128 134.004C79.7891 134.65 80.1164 135.264 80.609 135.647C81.0984 136.031 81.715 136.202 82.2743 136.122C82.7065 136.072 83.1388 135.901 83.5169 135.815C83.6631 135.793 83.7934 135.73 83.9396 135.676C85.1473 134.954 86.1325 133.953 87.1209 132.949L90.3911 129.612C91.2683 128.722 92.0723 127.8 92.6635 126.695C92.9336 126.192 93.4198 125.631 93.9093 125.378C95.3553 124.621 96.5185 123.513 97.6276 122.37L97.3988 122.474L98.6541 122.373C104.257 121.923 109.866 121.603 115.479 121.331C116.725 121.271 117.971 121.144 119.216 121.068C120.618 120.979 122.023 120.913 123.424 120.84L127.165 120.66C128.563 120.58 129.961 120.302 131.357 120.539C132.625 120.758 133.766 120.052 135.018 120.175C135.784 120.248 136.578 120.213 137.322 120.349C138.1 120.492 138.876 120.584 139.623 120.371C141.142 119.944 142.645 119.877 144.19 120.15C144.631 120.229 145.121 120.166 145.588 120.134L153.997 119.589L158.202 119.333L160.306 119.212C161.03 119.155 161.768 119.108 162.492 119C165.483 118.598 168.397 117.62 171.038 116.166C173.685 114.719 176.079 112.835 178.154 110.637C179.276 109.45 180.204 108.085 181.04 106.682C182.54 104.152 183.604 101.371 184.205 98.4897C184.288 98.097 184.377 97.7044 184.497 97.3149C184.615 96.9254 184.717 96.5327 184.847 96.1527C184.958 95.8361 185.028 95.5225 185.066 95.209C185.098 94.8924 185.104 94.5757 184.999 94.2464C184.596 92.8087 184.574 91.371 184.539 89.8922C184.532 89.2589 184.675 88.6319 184.392 87.9827C184.224 87.6217 184.173 87.229 184.113 86.83C184.052 86.431 183.938 86.0384 183.684 85.6869C183.445 85.3512 183.28 84.7844 183.242 84.3252C183.188 83.8312 183.054 83.3562 182.908 82.8812C182.733 82.4189 182.546 81.9565 182.32 81.51C180.324 77.4757 177.28 73.9195 173.495 71.4083C172.259 70.585 170.936 69.711 169.436 69.5242C168.915 69.4672 168.502 69.2645 168.108 68.9795C167.183 68.2638 166.02 67.9503 164.889 67.6527C162.928 67.1713 160.906 66.9243 158.885 66.918C158.389 66.9022 157.894 66.9972 157.411 67.0763C157.261 67.1017 157.01 67.2347 157.023 67.2917C157.07 67.5165 157.121 67.8173 157.315 67.925C157.703 68.1403 158.164 68.3462 158.605 68.381C160.35 68.4855 162.079 68.7388 163.776 69.0935C167.326 69.844 170.755 71.288 173.66 73.4793L173.666 73.4762Z" fill="#303030"/>
</g>
</g>
<g style="mix-blend-mode:multiply">
<g style="mix-blend-mode:multiply">
<g style="mix-blend-mode:multiply">
<path d="M67.7122 93.0271L69.9369 100.684L71.0587 92.8118L74.4942 92.5933L76.5409 100.399L77.8408 92.3811L81.343 92.1562L78.791 105.808L75.2888 106.033L73.0673 97.6631L71.974 106.245L68.4908 106.466L64.21 93.2519L67.7122 93.0271Z" fill="#303030"/>
</g>
<g style="mix-blend-mode:multiply">
<path d="M93.4513 96.5262L93.6388 99.4237L86.9903 99.848L87.1524 102.375L94.2903 101.919L94.4746 104.801L83.8185 105.482L82.9541 92.0517L93.4386 91.3804L93.6261 94.2779L86.6566 94.7244L86.7996 96.9474L93.4481 96.523L93.4513 96.5262Z" fill="#303030"/>
</g>
<g style="mix-blend-mode:multiply">
<path d="M95.6284 91.2444L99.1466 91.0195L99.8235 101.552L106.269 101.14L106.456 104.038L96.4929 104.674L95.6284 91.2444Z" fill="#303030"/>
</g>
<g style="mix-blend-mode:multiply">
<path d="M106.701 97.2704C106.634 96.2412 106.761 95.2881 107.092 94.3856C107.409 93.5021 107.867 92.7294 108.503 92.0454C109.107 91.3962 109.853 90.8579 110.743 90.4462C111.617 90.0504 112.571 89.8034 113.619 89.7369C115.005 89.6482 116.241 89.8572 117.293 90.3481C118.345 90.8547 119.311 91.6401 120.198 92.7009L118.005 94.7877C117.535 94.0721 116.972 93.5179 116.318 93.1189C115.647 92.7231 114.837 92.5552 113.89 92.6154C113.298 92.6534 112.765 92.8054 112.304 93.0397C111.827 93.2899 111.439 93.6034 111.125 93.9961C110.794 94.4077 110.553 94.8637 110.4 95.3799C110.232 95.9151 110.181 96.4756 110.219 97.0487C110.257 97.6377 110.375 98.1729 110.613 98.6637C110.816 99.1577 111.115 99.5789 111.493 99.9272C111.856 100.295 112.297 100.57 112.819 100.738C113.305 100.928 113.855 100.994 114.462 100.953C114.935 100.922 115.371 100.846 115.771 100.7C116.136 100.576 116.48 100.383 116.804 100.143C117.096 99.9209 117.382 99.6327 117.633 99.3097C117.869 98.9899 118.081 98.6384 118.294 98.2362L120.691 100.095C119.982 101.222 119.156 102.09 118.177 102.742C117.182 103.382 115.968 103.762 114.528 103.854C113.48 103.92 112.504 103.797 111.585 103.518C110.651 103.224 109.841 102.784 109.157 102.217C108.439 101.637 107.886 100.928 107.457 100.076C107.012 99.2401 106.764 98.3091 106.698 97.2641L106.701 97.2704Z" fill="#303030"/>
</g>
<g style="mix-blend-mode:multiply">
<path d="M121.18 96.3268C121.114 95.3166 121.241 94.3603 121.574 93.4578C121.892 92.5743 122.35 91.8016 122.985 91.1176C123.589 90.4684 124.336 89.9301 125.226 89.5184C126.1 89.1226 127.069 88.8756 128.137 88.8091C129.202 88.7394 130.196 88.8629 131.131 89.1416C132.049 89.4393 132.86 89.8763 133.575 90.4399C134.258 91.0384 134.83 91.7478 135.259 92.5838C135.669 93.4388 135.917 94.3698 135.984 95.3799C136.05 96.4249 135.927 97.3813 135.625 98.2616C135.31 99.1609 134.833 99.9368 134.229 100.602C133.594 101.27 132.847 101.808 131.973 102.217C131.08 102.613 130.111 102.86 129.046 102.929C127.981 102.999 126.987 102.875 126.068 102.594C125.134 102.299 124.323 101.859 123.64 101.276C122.922 100.697 122.369 99.9874 121.94 99.1356C121.495 98.3028 121.25 97.3686 121.18 96.3236V96.3268ZM124.698 96.1019C124.74 96.7258 124.86 97.2768 125.096 97.7676C125.299 98.2806 125.598 98.6986 125.96 99.0501C126.322 99.3984 126.745 99.6613 127.25 99.8291C127.737 100.019 128.267 100.086 128.862 100.048C129.437 100.01 129.971 99.8766 130.448 99.6264C130.908 99.3953 131.296 99.0818 131.611 98.6891C131.925 98.2964 132.151 97.8436 132.319 97.3084C132.456 96.7923 132.523 96.2286 132.481 95.6048C132.443 95.0158 132.307 94.4648 132.103 93.9708C131.868 93.4768 131.585 93.0556 131.223 92.7073C130.861 92.3589 130.435 92.0961 129.949 91.9093C129.443 91.7383 128.897 91.6718 128.321 91.7098C127.73 91.7478 127.212 91.8808 126.751 92.1151C126.275 92.3653 125.887 92.6788 125.572 93.0714C125.258 93.4641 125.016 93.9201 124.88 94.4363C124.708 94.9556 124.66 95.5161 124.698 96.1051V96.1019Z" fill="#303030"/>
</g>
<g style="mix-blend-mode:multiply">
<path d="M149.049 87.8274L152.653 87.5962L153.517 101.026L149.999 101.251L149.567 94.5439L147.244 101.428L144.723 101.59L141.536 95.06L141.968 101.767L138.45 101.992L137.585 88.562L141.189 88.3309L145.728 97.6345L149.052 87.8274H149.049Z" fill="#303030"/>
</g>
<g style="mix-blend-mode:multiply">
<path d="M165.486 91.9188L165.674 94.8163L159.025 95.2406L159.187 97.7676L166.325 97.3116L166.509 100.193L155.853 100.874L154.989 87.4411L165.476 86.7698L165.664 89.6673L158.694 90.1138L158.837 92.3368L165.486 91.9124V91.9188Z" fill="#303030"/>
</g>
</g>
</g>
<path d="M37.3648 161.877C37.1233 161.05 36.7419 160.252 36.2175 159.543C36.0491 159.347 35.7917 159.267 36.0141 158.672C36.0745 158.501 35.9665 158.479 35.9093 158.419C35.3118 157.82 34.6126 157.31 33.8308 156.953C32.6708 156.436 31.3773 156.234 30.1029 156.319C29.8645 156.338 29.6357 156.405 29.3783 156.322C29.1082 156.237 28.7522 155.965 28.5806 156.341C28.3073 156.025 28.1261 156.104 27.9482 156.164C26.5975 156.645 25.3962 157.5 24.4618 158.577C24.2902 158.767 24.1472 158.986 23.9756 159.179C23.6387 159.6 23.2986 160.037 23.0793 160.54C22.7456 161.332 22.5963 162.181 22.5041 163.017C22.4755 163.204 22.4977 163.39 22.4183 163.574C22.3484 163.758 22.1768 163.938 21.859 164.141C21.7064 164.236 21.77 164.344 21.77 164.445C21.8049 165.661 22.0941 166.883 22.6344 167.985C22.6948 168.112 22.7297 168.251 22.8314 168.356C22.9331 168.457 23.0921 168.53 23.3717 168.511C23.3082 168.676 23.4798 168.698 23.5942 168.748C23.7086 168.802 23.7881 168.869 23.5433 169.173C23.5751 169.379 23.6419 169.569 23.7563 169.724C23.8739 169.876 24.0455 169.983 24.2584 170.037C24.4332 170.078 24.697 170.018 24.8464 170.069C24.9957 170.123 25.1514 170.17 25.1038 170.424C25.0561 170.705 25.2531 170.693 25.4152 170.712C25.269 171.469 25.7362 171.538 26.0572 171.722C26.4417 171.978 26.8613 172.175 27.2776 172.371C27.7098 172.536 28.142 172.707 28.5933 172.805C29.0382 172.935 29.4991 172.982 29.9567 173.046C30.4175 173.071 30.8784 173.103 31.336 173.065C31.5013 173.055 31.6665 173.036 31.8318 173.008C31.997 172.976 32.1591 172.951 32.3276 172.951C32.6771 172.96 32.8551 172.343 33.2492 172.59C33.2556 172.099 33.5829 172.65 33.6401 172.371C33.7291 171.877 33.9643 171.871 34.1867 171.773C34.8732 171.44 35.5247 171.038 36.0999 170.544C36.6656 170.044 37.1932 169.499 37.6032 168.869C38.1657 168.175 38.5788 167.368 38.8585 166.516C39.0619 165.841 39.2431 165.148 39.2685 164.439C39.2748 164.347 39.2494 164.245 39.1159 164.157C39.0206 164.093 38.7346 164.036 38.5026 163.989C38.439 163.976 38.261 163.97 38.1434 163.973C38.0576 163.973 37.9337 163.992 37.9146 164.005C37.8161 164.081 37.6763 164.154 37.6699 164.226C37.654 164.413 37.6604 164.6 37.6254 164.784L37.5364 165.335C37.4443 165.696 37.3553 166.057 37.2123 166.402C36.9421 167.095 36.5639 167.748 36.0904 168.324C35.976 168.451 35.8648 168.584 35.7567 168.717C35.6487 168.853 35.5184 168.967 35.3944 169.087C34.781 169.645 34.0564 170.069 33.2937 170.392C33.1316 170.455 32.9886 170.572 32.8869 170.835C32.7566 171.168 32.5596 171.389 32.2735 171.114C32.2036 171.041 32.1655 171.19 32.1083 171.218C32.0129 171.266 31.9208 171.389 31.8095 171.313C31.6729 171.222 31.5521 171.063 31.4441 171.32C31.3646 171.51 31.2407 171.367 31.1358 171.342C31.0722 171.326 31.0055 171.117 30.9546 171.212C30.8084 171.491 30.6432 171.535 30.4843 171.535C30.3254 171.529 30.1696 171.465 30.0107 171.462C29.7787 171.446 29.5467 171.405 29.3179 171.355C29.0923 171.285 28.873 171.209 28.6473 171.149C27.9895 170.927 27.3253 170.683 26.7596 170.272C26.5879 170.17 26.4004 170.088 26.2511 169.952C26.178 169.882 26.1208 169.797 26.0922 169.676C26.0699 169.553 26.0763 169.398 26.1271 169.201C25.9205 169.258 25.822 169.182 25.7394 169.1C25.6568 169.011 25.5964 168.907 25.4279 168.9C25.2118 168.888 25.0307 168.831 24.9544 168.691C24.8781 168.552 24.8877 168.346 25.0243 168.071C25.0942 167.931 25.0784 167.836 24.9036 167.871C24.3951 167.973 24.2965 167.77 24.1885 167.593C24.0614 167.336 23.9406 167.076 23.8453 166.807L23.715 166.402L23.6482 166.199L23.5974 165.993C23.5274 165.718 23.4416 165.449 23.4003 165.167L23.3241 164.746C23.3113 164.603 23.3018 164.461 23.2954 164.321C23.2859 164.135 23.2414 163.932 23.7404 163.774C23.9406 163.533 24.0677 163.308 24.1186 163.08C24.1599 162.849 24.0423 162.599 23.7594 162.273C23.6927 162.2 23.6482 162.114 23.7849 162.095C24.0391 162.06 24.1758 162.003 24.252 161.927C24.3379 161.855 24.3696 161.766 24.3982 161.674C24.4586 161.494 24.4968 161.304 24.5857 161.129C24.6493 160.987 24.643 160.822 24.3919 160.512C24.2807 160.373 24.2965 160.262 24.4777 160.287C25.1483 160.385 25.1832 160.135 25.3167 159.92C25.4756 159.606 25.714 159.347 25.9523 159.096C26.2161 158.868 26.4894 158.65 26.8009 158.492C26.9344 158.416 27.0297 158.286 27.1664 158.213C27.3157 158.127 27.4714 158.048 27.6304 157.985C27.7765 157.934 27.9291 157.899 28.0689 157.842C28.2183 157.77 28.3232 157.548 28.5901 157.795C28.8221 158.029 28.7554 157.374 28.9683 157.532C29.0891 157.627 29.1876 157.618 29.3116 157.776C29.445 157.944 29.5499 158.055 29.6008 157.88C29.7056 157.532 29.9059 157.532 30.1156 157.874C30.176 157.972 30.2237 157.931 30.2777 157.931C30.8911 157.865 31.5203 157.899 32.1083 158.08C32.6962 158.27 33.3573 158.355 33.8117 158.827C33.9261 158.96 34.1041 158.989 34.2408 159.09L34.6031 159.359C34.7175 159.457 34.8224 159.568 34.9209 159.679C34.9749 159.742 34.9558 159.882 34.8859 160.053C34.8319 160.195 34.7906 160.303 34.9876 160.211C35.4167 160.008 35.477 160.176 35.4262 160.398C35.4103 160.493 35.2291 160.696 35.3912 160.658C35.5756 160.62 35.3181 160.892 35.6073 160.791C35.744 160.746 35.7281 160.829 35.6582 160.924C35.5025 161.133 35.5088 161.228 35.547 161.313C35.6296 161.503 35.6614 161.712 35.7281 161.899C35.7662 162.098 35.8203 162.292 35.8775 162.478C35.9093 162.608 35.8076 162.76 36.2747 162.792C36.44 162.805 36.4336 162.852 36.3033 162.922C35.9982 163.083 36.0332 163.178 36.0364 163.283C36.0523 163.457 36.0332 163.634 36.0554 163.812C36.0554 163.856 36.1254 163.897 36.1921 163.938C36.2112 163.951 36.3383 163.976 36.3923 163.973C36.618 163.97 36.9231 163.967 37.0375 163.948C37.2631 163.907 37.4983 163.85 37.5237 163.796C37.6222 163.59 37.7081 163.368 37.6826 163.156C37.654 162.938 37.6191 162.716 37.5587 162.504C37.4888 162.295 37.4316 162.079 37.368 161.87L37.3648 161.877Z" fill="black"/>
<g style="mix-blend-mode:multiply">
<g style="mix-blend-mode:multiply">
<path d="M39.2877 171.763C39.4561 171.56 39.6087 171.329 39.7136 171.066C39.739 170.984 39.6023 170.902 40.1966 170.876C40.3651 170.867 40.311 170.826 40.3206 170.797C40.3841 170.49 40.4032 170.164 40.3397 169.844C40.2411 169.375 40.0028 168.935 39.6881 168.565C39.6278 168.495 39.5451 168.454 39.5547 168.302C39.5706 168.144 39.6945 167.783 39.4148 167.979C39.5737 167.634 39.4975 167.589 39.4307 167.545C38.9063 167.219 38.2993 167.038 37.6828 167.01C37.5715 167.004 37.4603 167.01 37.3491 167C37.1171 166.981 36.866 166.937 36.6308 167C36.2653 167.105 35.9539 167.333 35.6456 167.523C35.5026 167.615 35.439 167.751 34.8797 167.346C34.7462 167.251 34.743 167.33 34.7049 167.361C34.2536 167.722 33.8659 168.188 33.6053 168.717C33.5449 168.831 33.3924 168.932 33.815 169.22C33.5163 169.227 34.2504 169.562 33.51 169.436C33.2716 169.55 33.1826 169.736 33.3987 169.949C33.4845 170.034 33.7165 170.129 33.7706 170.196C33.8246 170.265 33.8913 170.332 33.6689 170.379C33.421 170.433 33.5672 170.506 33.6434 170.569C32.9506 170.731 33.189 170.937 33.2112 171.108C33.2811 171.988 33.6816 172.84 34.2663 173.486C34.368 173.609 34.5238 173.676 34.6032 173.821C34.689 173.977 35.1467 173.638 35.0609 173.996C35.3914 173.65 35.0926 174.195 35.2833 174.03C35.617 173.726 35.6583 173.834 35.7537 173.882C36.3702 174.157 37.044 174.265 37.6891 174.189C38.0769 174.22 38.4646 174.141 38.8332 174.011C39.1193 173.904 39.4148 173.79 39.6659 173.609C39.6977 173.587 39.7167 173.536 39.6659 173.407C39.6278 173.315 39.4689 173.071 39.3386 172.878C39.3036 172.824 39.1955 172.685 39.1193 172.593C39.0652 172.526 38.9826 172.431 38.9699 172.422C38.8904 172.362 38.7887 172.267 38.7697 172.279C38.3978 172.542 37.9434 172.672 37.4921 172.669C37.3872 172.662 37.2792 172.691 37.1743 172.672C36.92 172.637 36.6849 172.536 36.4497 172.434C36.402 172.412 36.3289 172.428 36.1478 172.583C35.9221 172.776 35.741 172.843 35.8935 172.539C35.9316 172.463 35.8268 172.555 35.795 172.555C35.7473 172.555 35.6424 172.609 35.6806 172.517C35.7251 172.406 35.8268 172.263 35.6138 172.4C35.4549 172.498 35.5376 172.368 35.5376 172.32C35.5376 172.292 35.6869 172.14 35.6043 172.184C35.1181 172.431 35.2579 172.159 35.1753 172.083C35.1149 172.02 35.0799 171.937 35.0481 171.858C35.0227 171.773 35.0068 171.687 34.975 171.611C34.8924 171.37 34.7939 171.127 34.8003 170.87C34.7971 170.797 34.7367 170.728 34.7589 170.652C34.7812 170.579 34.8988 170.503 35.2643 170.465C34.9051 170.357 35.2356 170.306 35.0164 170.196C34.724 170.04 34.7303 169.885 35.2897 169.945C35.4295 169.961 35.4835 169.952 35.3278 169.876C34.8861 169.66 34.9401 169.581 34.9655 169.512C35.0545 169.318 35.1975 169.157 35.3246 168.992C35.4518 168.828 35.5598 168.644 35.7251 168.511C35.7759 168.467 35.8204 168.391 36.1573 168.742C36.5132 168.929 36.6594 169.065 36.5005 168.33C36.4846 168.248 36.4815 168.178 36.5482 168.286C36.7961 168.691 36.8342 168.672 36.8914 168.647C36.9455 168.622 36.9931 168.584 37.0503 168.568C37.098 168.555 37.1203 168.47 37.1107 168.102C37.1075 167.938 37.1393 167.887 37.187 168.049C37.3586 168.653 37.4031 168.555 37.4826 168.52C37.6923 168.419 37.9275 168.486 38.1023 168.628C38.1404 168.657 38.2008 168.628 38.2421 168.647C38.2898 168.669 38.3343 168.704 38.3724 168.742C38.4074 168.777 38.4328 168.828 38.4678 168.856C38.5059 168.881 38.6489 168.755 38.5186 169.056C38.3883 169.325 38.7729 168.818 38.6966 169.014C38.6457 169.128 38.6584 169.157 38.5631 169.315C38.4614 169.483 38.3851 169.597 38.5059 169.486C38.7506 169.265 38.7792 169.331 38.544 169.619C38.4773 169.702 38.5091 169.686 38.5154 169.695C38.614 169.784 38.7061 169.898 38.7093 170.044C38.7029 170.18 38.9063 170.272 38.7411 170.433C38.6934 170.474 38.757 170.5 38.757 170.534C38.757 170.595 38.7697 170.658 38.7252 170.715C38.7125 170.731 38.5949 170.734 38.4296 170.724C38.293 170.718 38.1913 170.705 38.3947 170.747C38.8396 170.845 38.7601 170.876 38.5885 170.861C38.5154 170.857 38.258 170.794 38.401 170.845C38.5631 170.905 38.2008 170.81 38.4805 170.908C38.614 170.959 38.5536 170.952 38.4455 170.921C38.2103 170.854 38.169 170.848 38.1531 170.854C38.0737 170.876 37.972 170.864 37.9529 170.889C37.9402 170.899 37.8353 170.819 38.1658 171.111C38.2803 171.215 38.2644 171.212 38.1563 171.127C37.8989 170.924 37.9116 170.94 37.8957 170.94C37.8735 170.94 37.848 170.94 37.8449 170.956C37.8449 170.956 37.8798 171.013 37.918 171.063L38.0387 171.222C38.1786 171.399 38.3692 171.636 38.4423 171.722C38.5917 171.893 38.7538 172.067 38.7824 172.08C38.8968 172.127 39.008 172.146 39.0589 172.102C39.1669 172.013 39.2051 171.868 39.2909 171.766L39.2877 171.763Z" fill="#75EDB1"/>
</g>
</g>
<g style="mix-blend-mode:multiply">
<g style="mix-blend-mode:multiply">
<path d="M205.473 155.079L198.176 162.35L202.371 166.53L209.668 159.26L205.473 155.079Z" fill="#303030"/>
</g>
<g style="mix-blend-mode:multiply">
<g style="mix-blend-mode:multiply">
<path d="M210.068 159.252C210.224 159.239 210.418 159.22 210.415 159.201C210.405 159.097 210.427 158.983 210.275 158.875C210.036 158.704 209.55 158.577 209.394 158.419C209.159 158.178 208.724 157.998 208.743 157.7C208.749 157.599 208.447 157.58 208.311 157.523C208.225 157.485 208.098 157.463 208.145 157.383C208.361 157.022 208.034 156.81 207.529 156.747C207.386 156.728 207.338 156.661 207.309 156.582C207.284 156.506 207.395 156.351 207.335 156.288C207.214 156.171 207.004 156.114 206.858 156.022C206.493 155.784 206.137 155.559 205.809 155.322C205.698 155.24 205.651 155.094 205.562 154.989C205.52 154.942 205.447 154.936 205.399 154.977L205.387 154.989L205.361 155.012C205.18 155.189 205.024 155.392 204.843 155.569C204.802 155.61 204.675 155.569 204.634 155.61C204.567 155.68 204.538 155.794 204.487 155.879C204.471 155.908 204.433 155.917 204.402 155.93L204.163 156.015C204.096 156.041 204.109 156.148 203.963 156.091C203.518 155.917 203.464 156.133 203.331 156.269C203.168 156.433 203.184 156.775 203.032 156.95C202.822 157.187 202.533 157.345 202.269 157.529C202.158 157.608 201.996 157.64 201.913 157.748C201.783 157.915 201.719 158.147 201.595 158.321C201.455 158.517 201.322 158.72 201.103 158.837C200.89 158.954 200.585 158.979 200.502 159.22C200.448 159.378 200.365 159.515 200.27 159.635C199.87 160.135 199.39 160.556 198.938 161.003C198.903 161.038 198.9 161.107 198.792 161.066C198.366 160.905 198.373 161.174 198.319 161.383C198.281 161.529 198.157 161.595 198.039 161.665C197.985 161.696 197.81 161.605 197.769 161.646L197.623 161.795L197.607 161.81C197.308 162.114 197.314 162.599 197.616 162.897H197.619C197.899 163.172 198.192 163.432 198.484 163.688C198.538 163.736 198.656 163.72 198.694 163.78C198.77 163.904 198.789 164.084 198.878 164.195C199.018 164.363 199.304 164.382 199.367 164.626C199.46 164.987 199.758 165.139 200.019 165.332C200.254 165.506 200.569 165.604 200.826 165.759C200.976 165.851 201.071 166 201.208 166.104C201.386 166.237 201.618 166.32 201.767 166.488C201.865 166.602 201.923 166.757 201.989 166.902C202.066 167.064 202.259 167.133 202.422 167.057L202.743 166.902C202.822 166.864 202.898 166.823 202.962 166.766C203.429 166.361 203.871 165.927 204.309 165.49C204.392 165.408 204.449 165.306 204.456 165.173C204.468 164.879 204.376 164.546 204.742 164.489C205.206 164.41 205.19 164.03 205.377 163.793C205.514 163.612 205.616 163.419 205.806 163.267C205.895 163.194 206.273 163.248 206.337 163.159C206.359 163.128 206.391 163.099 206.359 163.049C206.315 162.976 206.207 162.878 206.086 162.779C206.057 162.757 205.921 162.681 205.784 162.631C205.619 162.57 205.527 162.558 205.514 162.57C205.333 162.751 205.18 162.957 204.694 162.988C204.646 162.988 204.688 163.039 204.691 163.068C204.697 163.128 204.754 163.213 204.703 163.245C204.567 163.337 204.236 163.318 204.262 163.489C204.303 163.793 204.027 163.926 203.855 164.109C203.737 164.236 203.747 164.455 203.642 164.597C203.563 164.708 203.683 164.977 203.264 164.838C203.076 164.774 203.118 164.895 203.095 164.964C203.064 165.072 203.118 165.256 203.035 165.329C202.936 165.417 202.733 165.411 202.587 165.452C202.552 165.462 202.542 165.496 202.533 165.531L202.472 165.835C202.425 166.044 202.183 166.076 202.012 166.165H202.72C202.692 166.111 202.654 166.06 202.606 166.025C202.453 165.924 202.177 165.946 202.269 165.601C202.326 165.386 202.075 165.465 201.97 165.401C201.722 165.262 201.468 165.129 201.239 164.968C201.017 164.809 200.81 164.635 200.626 164.442C200.54 164.35 200.562 164.154 200.464 164.075C200.254 163.904 199.981 163.796 199.774 163.622C199.609 163.482 199.504 163.283 199.377 163.106C199.304 163.001 199.272 162.852 199.167 162.779C199.069 162.713 198.821 162.792 198.767 162.681C198.684 162.52 198.662 162.298 198.42 162.295C198.376 162.295 198.373 162.247 198.357 162.216L198.335 162.165V162.494C198.544 162.403 198.773 162.327 198.954 162.203C199.066 162.13 199.059 161.943 199.158 161.855C199.383 161.652 199.65 161.491 199.876 161.288C199.981 161.19 200.102 161.107 200.079 160.883C200.057 160.658 200.369 160.772 200.41 160.613C200.496 160.294 200.89 160.278 201.134 160.116C201.198 160.072 201.16 159.926 201.201 159.86C201.29 159.724 201.398 159.606 201.509 159.492C201.618 159.382 201.726 159.271 201.859 159.185C201.945 159.131 202.136 159.185 202.177 159.087C202.266 158.875 202.301 158.606 202.647 158.65C202.708 158.656 202.647 158.546 202.647 158.489C202.647 158.451 202.609 158.371 202.657 158.387C203.273 158.574 203.041 157.912 203.461 157.9C203.693 157.893 203.934 157.874 203.671 157.371C203.658 157.345 203.728 157.399 203.737 157.393C203.858 157.33 203.982 157.269 204.087 157.193C204.16 157.14 204.198 157.051 204.265 156.988C204.395 156.864 204.707 156.921 204.805 156.766C204.91 156.601 205.005 156.427 205.171 156.323C205.492 156.123 205.584 155.696 205.972 155.563H204.955C204.983 155.658 204.989 155.768 204.967 155.905C205.364 155.784 205.469 155.958 205.59 156.101C205.736 156.275 206.086 156.31 206.267 156.471C206.413 156.598 206.788 156.62 206.48 156.994C206.432 157.048 206.525 157.035 206.572 157.041C206.693 157.057 206.893 157.041 206.95 157.092C207.23 157.345 207.576 157.586 207.748 157.874C207.885 158.099 208.244 158.311 208.578 158.495C208.911 158.675 209.213 158.824 209.213 158.824C209.277 158.954 209.337 159.078 209.417 159.201C209.423 159.211 209.528 159.223 209.636 159.23C209.747 159.233 209.973 159.23 210.055 159.226L210.068 159.252Z" fill="#303030"/>
</g>
<g style="mix-blend-mode:multiply">
<path d="M207.288 162.181C207.392 162.181 207.364 162.143 207.396 162.118C207.548 162.004 207.542 161.848 207.888 161.785C208.27 161.712 208.25 161.525 208.209 161.348C208.168 161.168 208.107 161 208.425 160.902C208.975 160.724 208.975 160.449 209.236 160.224C209.528 159.971 210.208 159.35 210.091 159.296C210.072 159.287 210.008 159.261 209.789 159.261C209.674 159.261 209.525 159.277 209.512 159.283C209.379 159.378 209.28 159.473 209.147 159.565C208.791 159.819 208.393 160.056 208.066 160.294C207.742 160.531 207.507 160.778 207.183 161.009C206.976 161.152 207.354 161.465 207.116 161.617C206.998 161.69 206.728 161.715 206.833 161.852C206.89 161.928 206.382 161.839 206.588 161.966C206.658 162.01 206.321 161.947 206.789 162.092C206.941 162.14 207.192 162.178 207.288 162.178V162.181Z" fill="#303030"/>
</g>
</g>
</g>
<g style="mix-blend-mode:multiply">
<g style="mix-blend-mode:multiply">
<path d="M22.1551 18.7272L17.9595 22.9077L22.1551 27.0882L26.3507 22.9077L22.1551 18.7272Z" fill="#303030"/>
</g>
<g style="mix-blend-mode:multiply">
<g style="mix-blend-mode:multiply">
<path d="M26.7499 22.9045C26.9088 22.895 27.1059 22.8792 27.1091 22.8665C27.125 22.7905 27.1726 22.705 27.0455 22.629C26.8485 22.5055 26.4003 22.4105 26.2859 22.2965C26.1111 22.1192 25.733 21.9894 25.8188 21.7709C25.8474 21.6949 25.5613 21.6822 25.4437 21.641C25.3707 21.6125 25.2531 21.5967 25.3166 21.5397C25.5995 21.2769 25.3325 21.1217 24.8685 21.0742C24.735 21.0615 24.7064 21.0109 24.6969 20.9539C24.6905 20.8969 24.8304 20.7829 24.7827 20.7385C24.6937 20.653 24.5062 20.6119 24.3918 20.5422C24.0962 20.368 23.8102 20.2034 23.5528 20.0324C23.4574 19.969 23.4511 19.8455 23.3748 19.7695C23.2445 19.6334 23.0824 19.5225 22.9521 19.3895C22.9204 19.3579 22.9839 19.2534 22.9521 19.2217C22.8981 19.171 22.7996 19.1584 22.7297 19.1235C22.7074 19.1109 22.7042 19.0824 22.6979 19.057C22.6852 18.9937 22.6756 18.9272 22.6566 18.8639C22.6407 18.81 22.5453 18.8322 22.6153 18.7024C22.771 18.4206 22.717 18.316 22.6343 18.2464L22.558 18.1799C22.2943 17.9519 21.897 17.9804 21.6682 18.2432C21.6428 18.278 21.6205 18.3129 21.5919 18.3414C21.4743 18.4617 21.5315 18.7594 21.4235 18.8892C21.2741 19.0665 21.0453 19.1647 20.8419 19.2882C20.7561 19.342 20.6226 19.3452 20.5654 19.4275C20.4764 19.5542 20.4542 19.7474 20.3683 19.8804C20.273 20.0292 20.184 20.1875 20.0124 20.2604C19.844 20.3332 19.5834 20.3142 19.5452 20.5105C19.5198 20.6404 19.469 20.748 19.4022 20.8399C19.1257 21.2199 18.7666 21.5175 18.4361 21.8437C18.4107 21.869 18.417 21.9292 18.3185 21.8785C17.9276 21.6822 17.9689 21.9165 17.9498 22.0875C17.9339 22.2079 17.8386 22.249 17.7464 22.2934C17.7051 22.3124 17.5399 22.211 17.5081 22.2395L17.4 22.3504L17.381 22.3694C17.0854 22.6702 17.0917 23.1547 17.3968 23.4492L17.4032 23.4555C17.6098 23.6519 17.8259 23.8387 18.0452 24.0224C18.0833 24.0572 18.1882 24.0255 18.2136 24.073C18.2645 24.168 18.2549 24.3232 18.3185 24.4055C18.417 24.5322 18.6617 24.51 18.684 24.7127C18.7157 25.0104 18.9541 25.1054 19.1543 25.2352C19.3355 25.3555 19.5929 25.3967 19.7931 25.498C19.9107 25.5582 19.9711 25.6722 20.076 25.745C20.2126 25.8369 20.4001 25.878 20.5082 26.0015C20.6162 26.1314 20.6194 26.3625 20.7275 26.4955C21.0008 26.8312 21.3027 27.1384 21.6046 27.4455C21.6364 27.4772 21.6714 27.5025 21.719 27.5184L22.2498 27.6862C22.3896 27.7305 22.5422 27.6545 22.593 27.5184C22.6089 27.4772 22.6153 27.4297 22.6121 27.3727C22.6025 27.1004 22.4945 26.7742 22.7932 26.79C23.1746 26.8027 23.1269 26.448 23.2572 26.2644C23.3557 26.125 23.4161 25.9667 23.5591 25.8622C23.6259 25.8115 23.9659 25.9192 24.0104 25.8495C24.0263 25.8242 24.0517 25.8052 24.0168 25.7514C23.9659 25.6785 23.8547 25.574 23.7339 25.4695C23.7053 25.4442 23.5719 25.3587 23.4416 25.2922C23.2858 25.213 23.2 25.1909 23.1937 25.1972C23.0665 25.3239 22.968 25.479 22.558 25.422C22.5167 25.4157 22.558 25.4632 22.5676 25.4885C22.5835 25.5424 22.6439 25.6279 22.6057 25.65C22.504 25.707 22.2243 25.6279 22.2688 25.7862C22.3451 26.068 22.1322 26.1345 22.0146 26.2675C21.932 26.3594 21.9669 26.562 21.897 26.6729C21.8779 26.7045 21.8811 26.7552 21.8779 26.8027H22.4309C22.3419 26.7932 22.272 26.7647 22.4055 26.5335C22.4977 26.3752 22.3769 26.4164 22.3133 26.4037C22.218 26.3847 22.04 26.4449 21.986 26.3847C21.9224 26.3119 21.9574 26.1377 21.9415 26.0174C21.9383 25.9889 21.9065 25.9825 21.8779 25.9794C21.7921 25.9699 21.7 25.9667 21.611 25.9604C21.3726 25.9382 21.4584 25.593 21.2964 25.4949C21.1788 25.4284 20.9372 25.4854 21.0612 25.175C21.1374 24.9819 20.9118 25.0832 20.8292 25.0452C20.6353 24.9565 20.4319 24.8774 20.2571 24.7697C20.0855 24.662 19.9298 24.5417 19.7963 24.396C19.7359 24.3295 19.7804 24.1554 19.7073 24.1015C19.5516 23.9812 19.3259 23.9242 19.1734 23.8007C19.0494 23.7025 18.9859 23.5442 18.9001 23.408C18.8492 23.3257 18.846 23.2022 18.7602 23.1547C18.684 23.1104 18.4583 23.2117 18.4265 23.123C18.3789 22.9932 18.3884 22.8064 18.1787 22.838C18.1405 22.8444 18.1437 22.8032 18.1342 22.7779L18.1214 22.7367V23.066C18.2931 23.0154 18.4774 22.9805 18.6172 22.8982C18.703 22.8507 18.6744 22.686 18.7443 22.6259C18.9128 22.4802 19.1225 22.3789 19.2878 22.23C19.3673 22.1604 19.4594 22.1034 19.4086 21.907C19.3577 21.7107 19.6437 21.85 19.6596 21.7202C19.6914 21.4542 20.0315 21.4954 20.219 21.3877C20.2698 21.3592 20.2158 21.2262 20.2444 21.1755C20.3048 21.071 20.3811 20.9824 20.4605 20.9C20.54 20.8177 20.6162 20.7385 20.7211 20.6815C20.7879 20.6467 20.9595 20.7164 20.9849 20.6404C21.0357 20.4694 21.0262 20.2414 21.3313 20.3269C21.3822 20.3427 21.3186 20.235 21.3091 20.1875C21.3027 20.1559 21.2582 20.083 21.3059 20.102C21.8652 20.3459 21.576 19.741 21.9351 19.7885C22.1354 19.8139 22.3388 19.8297 22.0464 19.3579C22.0305 19.3325 22.1004 19.3895 22.1068 19.3864C22.2021 19.3484 22.3006 19.3135 22.3801 19.2597C22.4373 19.2217 22.4563 19.152 22.5072 19.1045L22.5199 19.095H21.7762C21.843 19.1964 21.754 19.437 21.862 19.4909C21.9828 19.551 22.1195 19.6017 22.1767 19.722C22.3038 19.9944 22.8695 19.9912 22.6184 20.4979C23.0284 20.3965 23.0888 20.5264 23.1714 20.6277C23.2731 20.7512 23.5973 20.7734 23.7339 20.8905C23.8452 20.9824 24.1948 20.9982 23.8197 21.2705C23.7625 21.3085 23.8515 21.299 23.896 21.3054C24.0073 21.318 24.2011 21.3054 24.2424 21.3434C24.4522 21.527 24.7255 21.7044 24.824 21.9134C24.9003 22.078 25.1959 22.2332 25.4724 22.3694C25.7488 22.5024 26.0094 22.61 26.0094 22.61C26.038 22.705 26.0667 22.7969 26.1111 22.8855C26.1143 22.8919 26.216 22.9014 26.3241 22.9045C26.4353 22.9045 26.661 22.9045 26.7436 22.9045H26.7499Z" fill="#303030"/>
</g>
<g style="mix-blend-mode:multiply">
<path d="M24.7098 25.1117C24.8051 25.1276 24.7734 25.0864 24.7988 25.0706C24.9195 24.9882 24.8878 24.8552 25.196 24.8362C25.5393 24.8141 25.4884 24.6462 25.4153 24.4942C25.3422 24.3391 25.2469 24.1966 25.5297 24.1396C26.016 24.0319 25.9588 23.8039 26.1622 23.6392C26.3878 23.4492 26.9122 22.9774 26.7755 22.9362C26.7565 22.9299 26.6834 22.9109 26.4641 22.9109C26.3497 22.9109 26.2035 22.9204 26.194 22.9267C26.0859 22.9964 26.0128 23.0629 25.9079 23.1294C25.6219 23.3099 25.2946 23.4714 25.0403 23.6329C24.7861 23.7944 24.624 23.9686 24.3761 24.1206C24.2172 24.2124 24.6399 24.5069 24.4492 24.6082C24.3539 24.6557 24.1123 24.6462 24.2363 24.7729C24.303 24.8457 23.8199 24.7032 24.036 24.8394C24.1091 24.8869 23.7913 24.7887 24.2426 24.9756C24.392 25.0357 24.6272 25.0991 24.713 25.1117H24.7098Z" fill="#303030"/>
</g>
</g>
</g>
<g style="mix-blend-mode:multiply">
<g style="mix-blend-mode:multiply">
<path d="M153.431 163.723L149.236 167.904L153.431 172.084L157.627 167.904L153.431 163.723Z" fill="#2ECE95"/>
</g>
<g style="mix-blend-mode:multiply">
<g style="mix-blend-mode:multiply">
<path d="M158.024 167.897C158.183 167.887 158.38 167.871 158.383 167.859C158.399 167.783 158.447 167.697 158.319 167.621C158.122 167.498 157.674 167.403 157.56 167.289C157.385 167.111 157.007 166.982 157.093 166.763C157.121 166.687 156.835 166.674 156.718 166.633C156.645 166.605 156.527 166.589 156.591 166.532C156.873 166.269 156.606 166.114 156.142 166.066C156.009 166.054 155.98 166.003 155.971 165.946C155.964 165.889 156.104 165.775 156.057 165.731C155.968 165.645 155.78 165.604 155.666 165.534C155.37 165.36 155.084 165.196 154.827 165.025C154.731 164.961 154.725 164.838 154.649 164.762C154.518 164.626 154.356 164.515 154.226 164.382C154.194 164.35 154.258 164.246 154.226 164.214C154.172 164.163 154.074 164.151 154.004 164.116C153.981 164.103 153.978 164.075 153.972 164.049C153.959 163.986 153.95 163.919 153.931 163.856C153.915 163.802 153.819 163.824 153.889 163.695C154.045 163.413 153.991 163.308 153.908 163.239L153.832 163.172C153.568 162.944 153.171 162.973 152.942 163.235C152.917 163.27 152.894 163.305 152.866 163.334C152.748 163.454 152.805 163.752 152.697 163.881C152.548 164.059 152.319 164.157 152.116 164.28C152.03 164.334 151.897 164.337 151.839 164.42C151.75 164.546 151.728 164.74 151.642 164.873C151.547 165.021 151.458 165.18 151.286 165.253C151.118 165.325 150.857 165.306 150.819 165.503C150.794 165.633 150.743 165.74 150.676 165.832C150.4 166.212 150.041 166.51 149.71 166.836C149.685 166.861 149.691 166.921 149.592 166.871C149.202 166.674 149.243 166.909 149.224 167.08C149.208 167.2 149.113 167.241 149.02 167.286C148.979 167.305 148.814 167.203 148.782 167.232L148.674 167.343L148.655 167.362C148.359 167.662 148.366 168.147 148.671 168.441L148.677 168.448C148.884 168.644 149.1 168.831 149.319 169.015C149.357 169.049 149.462 169.018 149.488 169.065C149.538 169.16 149.529 169.315 149.592 169.398C149.691 169.524 149.936 169.502 149.958 169.705C149.99 170.003 150.228 170.098 150.428 170.227C150.609 170.348 150.867 170.389 151.067 170.49C151.185 170.55 151.245 170.664 151.35 170.737C151.487 170.829 151.674 170.87 151.782 170.994C151.89 171.124 151.893 171.355 152.001 171.488C152.275 171.823 152.577 172.131 152.879 172.438C152.91 172.469 152.945 172.495 152.993 172.511L153.524 172.678C153.664 172.723 153.816 172.647 153.867 172.511C153.883 172.469 153.889 172.422 153.886 172.365C153.876 172.093 153.768 171.766 154.067 171.782C154.449 171.795 154.401 171.44 154.531 171.257C154.63 171.117 154.69 170.959 154.833 170.854C154.9 170.804 155.24 170.911 155.284 170.842C155.3 170.816 155.326 170.797 155.291 170.744C155.24 170.671 155.129 170.566 155.008 170.462C154.979 170.436 154.846 170.351 154.715 170.284C154.56 170.205 154.474 170.183 154.468 170.189C154.34 170.316 154.242 170.471 153.832 170.414C153.791 170.408 153.832 170.455 153.842 170.481C153.857 170.535 153.918 170.62 153.88 170.642C153.778 170.699 153.498 170.62 153.543 170.778C153.619 171.06 153.406 171.127 153.289 171.26C153.206 171.352 153.241 171.554 153.171 171.665C153.152 171.697 153.155 171.747 153.152 171.795H153.705C153.616 171.785 153.546 171.757 153.679 171.526C153.772 171.367 153.651 171.409 153.587 171.396C153.492 171.377 153.314 171.437 153.26 171.377C153.196 171.304 153.231 171.13 153.215 171.01C153.212 170.981 153.18 170.975 153.152 170.972C153.066 170.962 152.974 170.959 152.885 170.953C152.647 170.93 152.732 170.585 152.57 170.487C152.453 170.421 152.211 170.478 152.335 170.167C152.411 169.974 152.186 170.075 152.103 170.037C151.909 169.949 151.706 169.87 151.531 169.762C151.359 169.654 151.204 169.534 151.07 169.388C151.01 169.322 151.054 169.148 150.981 169.094C150.826 168.973 150.6 168.916 150.447 168.793C150.323 168.695 150.26 168.536 150.174 168.4C150.123 168.318 150.12 168.194 150.034 168.147C149.958 168.103 149.732 168.204 149.7 168.115C149.653 167.985 149.662 167.799 149.453 167.83C149.414 167.837 149.418 167.795 149.408 167.77L149.395 167.729V168.058C149.567 168.008 149.751 167.973 149.891 167.89C149.977 167.843 149.948 167.678 150.018 167.618C150.187 167.472 150.396 167.371 150.562 167.222C150.641 167.153 150.733 167.096 150.683 166.899C150.632 166.703 150.918 166.842 150.934 166.712C150.965 166.446 151.305 166.488 151.493 166.38C151.544 166.351 151.49 166.218 151.518 166.168C151.579 166.063 151.655 165.975 151.734 165.892C151.814 165.81 151.89 165.731 151.995 165.674C152.062 165.639 152.233 165.709 152.259 165.633C152.31 165.462 152.3 165.234 152.605 165.319C152.656 165.335 152.593 165.227 152.583 165.18C152.577 165.148 152.532 165.075 152.58 165.094C153.139 165.338 152.85 164.733 153.209 164.781C153.409 164.806 153.613 164.822 153.32 164.35C153.304 164.325 153.374 164.382 153.381 164.379C153.476 164.341 153.575 164.306 153.654 164.252C153.711 164.214 153.73 164.144 153.781 164.097L153.794 164.087H153.05C153.117 164.189 153.028 164.429 153.136 164.483C153.257 164.543 153.393 164.594 153.451 164.714C153.578 164.987 154.143 164.983 153.892 165.49C154.302 165.389 154.363 165.519 154.445 165.62C154.547 165.743 154.871 165.766 155.008 165.883C155.119 165.975 155.469 165.99 155.094 166.263C155.036 166.301 155.125 166.291 155.17 166.298C155.281 166.31 155.475 166.298 155.516 166.336C155.726 166.519 155.999 166.697 156.098 166.906C156.174 167.07 156.47 167.225 156.746 167.362C157.023 167.495 157.283 167.602 157.283 167.602C157.312 167.697 157.341 167.789 157.385 167.878C157.388 167.884 157.49 167.894 157.598 167.897C157.709 167.897 157.935 167.897 158.018 167.897H158.024Z" fill="#2ECE95"/>
</g>
<g style="mix-blend-mode:multiply">
<path d="M155.987 170.104C156.082 170.12 156.05 170.078 156.076 170.063C156.196 169.98 156.165 169.847 156.473 169.828C156.816 169.806 156.765 169.638 156.692 169.486C156.619 169.331 156.524 169.189 156.807 169.132C157.293 169.024 157.236 168.796 157.439 168.631C157.665 168.441 158.189 167.97 158.052 167.928C158.033 167.922 157.96 167.903 157.741 167.903C157.627 167.903 157.48 167.913 157.471 167.919C157.363 167.989 157.29 168.055 157.185 168.122C156.899 168.302 156.571 168.464 156.317 168.625C156.063 168.787 155.901 168.961 155.653 169.113C155.494 169.205 155.917 169.499 155.726 169.6C155.631 169.648 155.389 169.638 155.513 169.765C155.58 169.838 155.097 169.695 155.313 169.831C155.386 169.879 155.068 169.781 155.519 169.968C155.669 170.028 155.904 170.091 155.99 170.104H155.987Z" fill="#2ECE95"/>
</g>
</g>
</g>
<g style="mix-blend-mode:multiply">
<g style="mix-blend-mode:multiply">
<path d="M207.15 16.8197L202.955 21.0002L207.15 25.1808L211.346 21.0002L207.15 16.8197Z" fill="#2ECE95"/>
</g>
<g style="mix-blend-mode:multiply">
<g style="mix-blend-mode:multiply">
<path d="M211.743 20.9951C211.902 20.9856 212.099 20.9698 212.102 20.9571C212.118 20.8811 212.166 20.7956 212.039 20.7196C211.842 20.5961 211.393 20.5011 211.279 20.3871C211.104 20.2098 210.726 20.08 210.812 19.8615C210.841 19.7855 210.554 19.7728 210.437 19.7316C210.364 19.7031 210.246 19.6873 210.31 19.6303C210.593 19.3675 210.326 19.2123 209.862 19.1648C209.728 19.1521 209.7 19.1015 209.69 19.0445C209.684 18.9875 209.824 18.8735 209.776 18.8291C209.687 18.7436 209.499 18.7025 209.385 18.6328C209.089 18.4586 208.803 18.294 208.546 18.123C208.451 18.0596 208.444 17.9361 208.368 17.8601C208.238 17.724 208.076 17.6131 207.945 17.4801C207.913 17.4485 207.977 17.344 207.945 17.3123C207.891 17.2616 207.793 17.249 207.723 17.2141C207.701 17.2015 207.697 17.173 207.691 17.1476C207.678 17.0843 207.669 17.0178 207.65 16.9545C207.634 16.9006 207.538 16.9228 207.608 16.793C207.764 16.5111 207.71 16.4066 207.627 16.337L207.551 16.2705C207.287 16.0425 206.89 16.071 206.661 16.3338C206.636 16.3686 206.614 16.4035 206.585 16.432C206.467 16.5523 206.525 16.85 206.417 16.9798C206.267 17.1571 206.038 17.2553 205.835 17.3788C205.749 17.4326 205.616 17.4358 205.559 17.5181C205.47 17.6448 205.447 17.838 205.361 17.971C205.266 18.1198 205.177 18.2781 205.006 18.351C204.837 18.4238 204.577 18.4048 204.538 18.6011C204.513 18.731 204.462 18.8386 204.395 18.9305C204.119 19.3105 203.76 19.6081 203.429 19.9343C203.404 19.9596 203.41 20.0198 203.312 19.9691C202.921 19.7728 202.962 20.0071 202.943 20.1781C202.927 20.2985 202.832 20.3396 202.74 20.384C202.698 20.403 202.533 20.3016 202.501 20.3301L202.393 20.441L202.374 20.46C202.079 20.7608 202.085 21.2453 202.39 21.5398L202.396 21.5461C202.603 21.7425 202.819 21.9293 203.038 22.113C203.076 22.1478 203.181 22.1161 203.207 22.1636C203.258 22.2586 203.248 22.4138 203.312 22.4961C203.41 22.6228 203.655 22.6006 203.677 22.8033C203.709 23.101 203.947 23.196 204.147 23.3258C204.329 23.4461 204.586 23.4873 204.786 23.5886C204.904 23.6488 204.964 23.7628 205.069 23.8356C205.206 23.9274 205.393 23.9686 205.501 24.0921C205.609 24.222 205.613 24.4531 205.721 24.5861C205.994 24.9218 206.296 25.2289 206.598 25.5361C206.63 25.5678 206.665 25.5931 206.712 25.6089L207.243 25.7768C207.383 25.8211 207.535 25.7451 207.586 25.6089C207.602 25.5678 207.608 25.5203 207.605 25.4633C207.596 25.191 207.488 24.8648 207.786 24.8806C208.168 24.8933 208.12 24.5386 208.25 24.355C208.349 24.2156 208.409 24.0573 208.552 23.9528C208.619 23.9021 208.959 24.0098 209.004 23.9401C209.019 23.9148 209.045 23.8958 209.01 23.842C208.959 23.7691 208.848 23.6646 208.727 23.5601C208.698 23.5348 208.565 23.4493 208.435 23.3828C208.279 23.3036 208.193 23.2815 208.187 23.2878C208.06 23.4145 207.961 23.5696 207.551 23.5126C207.51 23.5063 207.551 23.5538 207.561 23.5791C207.577 23.633 207.637 23.7185 207.599 23.7406C207.497 23.7976 207.217 23.7185 207.262 23.8768C207.338 24.1586 207.125 24.2251 207.008 24.3581C206.925 24.4499 206.96 24.6526 206.89 24.7634C206.871 24.7951 206.874 24.8458 206.871 24.8933H207.424C207.335 24.8838 207.265 24.8553 207.399 24.6241C207.491 24.4658 207.37 24.5069 207.306 24.4943C207.211 24.4753 207.033 24.5354 206.979 24.4753C206.916 24.4024 206.951 24.2283 206.935 24.1079C206.931 24.0794 206.9 24.0731 206.871 24.07C206.785 24.0605 206.693 24.0573 206.604 24.0509C206.366 24.0288 206.452 23.6836 206.289 23.5855C206.172 23.519 205.93 23.576 206.054 23.2656C206.131 23.0725 205.905 23.1738 205.822 23.1358C205.628 23.0471 205.425 22.968 205.25 22.8603C205.079 22.7526 204.923 22.6323 204.789 22.4866C204.729 22.4201 204.774 22.246 204.7 22.1921C204.545 22.0718 204.319 22.0148 204.167 21.8913C204.043 21.7931 203.979 21.6348 203.893 21.4986C203.842 21.4163 203.839 21.2928 203.753 21.2453C203.677 21.201 203.451 21.3023 203.42 21.2136C203.372 21.0838 203.382 20.897 203.172 20.9286C203.134 20.935 203.137 20.8938 203.127 20.8685L203.115 20.8273V21.1566C203.286 21.106 203.471 21.0711 203.61 20.9888C203.696 20.9413 203.668 20.7766 203.738 20.7165C203.906 20.5708 204.116 20.4695 204.281 20.3206C204.36 20.251 204.453 20.194 204.402 19.9976C204.351 19.8013 204.637 19.9406 204.653 19.8108C204.685 19.5448 205.025 19.586 205.212 19.4783C205.263 19.4498 205.209 19.3168 205.238 19.2661C205.298 19.1616 205.374 19.073 205.454 18.9906C205.533 18.9083 205.609 18.8291 205.714 18.7721C205.781 18.7373 205.953 18.807 205.978 18.731C206.029 18.56 206.019 18.332 206.324 18.4175C206.375 18.4333 206.312 18.3256 206.302 18.2781C206.296 18.2465 206.251 18.1736 206.299 18.1926C206.858 18.4365 206.569 17.8316 206.928 17.8791C207.129 17.9045 207.332 17.9203 207.04 17.4485C207.024 17.4231 207.094 17.4801 207.1 17.477C207.195 17.439 207.294 17.4041 207.373 17.3503C207.43 17.3123 207.449 17.2426 207.5 17.1951L207.513 17.1856H206.769C206.836 17.287 206.747 17.5276 206.855 17.5815C206.976 17.6416 207.113 17.6923 207.17 17.8126C207.297 18.085 207.863 18.0818 207.612 18.5885C208.022 18.4871 208.082 18.617 208.165 18.7183C208.266 18.8418 208.59 18.864 208.727 18.9811C208.838 19.073 209.188 19.0888 208.813 19.3611C208.756 19.3991 208.845 19.3896 208.889 19.396C209 19.4086 209.194 19.396 209.236 19.434C209.445 19.6176 209.719 19.795 209.817 20.004C209.893 20.1686 210.189 20.3238 210.465 20.46C210.742 20.593 211.003 20.7006 211.003 20.7006C211.031 20.7956 211.06 20.8875 211.104 20.9761C211.107 20.9825 211.209 20.992 211.317 20.9951C211.428 20.9951 211.654 20.9951 211.737 20.9951H211.743Z" fill="#2ECE95"/>
</g>
<g style="mix-blend-mode:multiply">
<path d="M209.702 23.2023C209.798 23.2181 209.766 23.177 209.791 23.1611C209.912 23.0788 209.88 22.9458 210.189 22.9268C210.532 22.9046 210.481 22.7368 210.408 22.5848C210.335 22.4296 210.24 22.2871 210.522 22.2301C211.009 22.1225 210.951 21.8945 211.155 21.7298C211.381 21.5398 211.905 21.068 211.768 21.0268C211.749 21.0205 211.676 21.0015 211.457 21.0015C211.342 21.0015 211.196 21.011 211.187 21.0173C211.079 21.087 211.006 21.1535 210.901 21.22C210.615 21.4005 210.287 21.562 210.033 21.7235C209.779 21.885 209.617 22.0591 209.369 22.2111C209.21 22.303 209.633 22.5975 209.442 22.6988C209.347 22.7463 209.105 22.7368 209.229 22.8635C209.296 22.9363 208.813 22.7938 209.029 22.93C209.102 22.9775 208.784 22.8793 209.235 23.0661C209.385 23.1263 209.62 23.1896 209.706 23.2023H209.702Z" fill="#2ECE95"/>
</g>
</g>
</g>
<g style="mix-blend-mode:multiply">
<g style="mix-blend-mode:multiply">
<path d="M202.561 142.327L198.366 146.507L202.561 150.688L206.757 146.507L202.561 142.327Z" fill="#75EDB1"/>
</g>
<g style="mix-blend-mode:multiply">
<g style="mix-blend-mode:multiply">
<path d="M207.157 146.503C207.316 146.493 207.513 146.477 207.516 146.465C207.532 146.389 207.58 146.303 207.453 146.227C207.256 146.104 206.808 146.009 206.693 145.895C206.518 145.717 206.14 145.588 206.226 145.369C206.255 145.293 205.969 145.28 205.851 145.239C205.778 145.211 205.66 145.195 205.724 145.138C206.007 144.875 205.74 144.72 205.276 144.672C205.142 144.66 205.114 144.609 205.104 144.552C205.098 144.495 205.238 144.381 205.19 144.337C205.101 144.251 204.913 144.21 204.799 144.14C204.503 143.966 204.217 143.802 203.96 143.631C203.865 143.567 203.858 143.444 203.782 143.368C203.652 143.232 203.49 143.121 203.359 142.988C203.328 142.956 203.391 142.852 203.359 142.82C203.305 142.769 203.207 142.757 203.137 142.722C203.115 142.709 203.111 142.681 203.105 142.655C203.092 142.592 203.083 142.525 203.064 142.462C203.048 142.408 202.953 142.43 203.022 142.301C203.178 142.019 203.124 141.914 203.042 141.845L202.965 141.778C202.701 141.55 202.304 141.579 202.075 141.841C202.05 141.876 202.028 141.911 201.999 141.94C201.882 142.06 201.939 142.358 201.831 142.487C201.681 142.665 201.452 142.763 201.249 142.886C201.163 142.94 201.03 142.943 200.973 143.026C200.884 143.152 200.861 143.346 200.776 143.479C200.68 143.627 200.591 143.786 200.42 143.859C200.251 143.931 199.991 143.912 199.952 144.109C199.927 144.239 199.876 144.346 199.809 144.438C199.533 144.818 199.174 145.116 198.843 145.442C198.818 145.467 198.824 145.527 198.726 145.477C198.335 145.28 198.376 145.515 198.357 145.686C198.341 145.806 198.246 145.847 198.154 145.892C198.112 145.911 197.947 145.809 197.915 145.838L197.807 145.949L197.788 145.968C197.493 146.268 197.499 146.753 197.804 147.047L197.81 147.054C198.017 147.25 198.233 147.437 198.452 147.621C198.491 147.655 198.595 147.624 198.621 147.671C198.672 147.766 198.662 147.921 198.726 148.004C198.824 148.13 199.069 148.108 199.091 148.311C199.123 148.609 199.361 148.704 199.562 148.833C199.743 148.954 200 148.995 200.2 149.096C200.318 149.156 200.378 149.27 200.483 149.343C200.62 149.435 200.807 149.476 200.915 149.6C201.023 149.73 201.027 149.961 201.135 150.094C201.408 150.429 201.71 150.737 202.012 151.044C202.044 151.075 202.079 151.101 202.126 151.117L202.657 151.284C202.797 151.329 202.949 151.253 203 151.117C203.016 151.075 203.022 151.028 203.019 150.971C203.01 150.699 202.902 150.372 203.2 150.388C203.582 150.401 203.534 150.046 203.664 149.863C203.763 149.723 203.823 149.565 203.966 149.46C204.033 149.41 204.373 149.517 204.418 149.448C204.434 149.422 204.459 149.403 204.424 149.35C204.373 149.277 204.262 149.172 204.141 149.068C204.113 149.042 203.979 148.957 203.849 148.89C203.693 148.811 203.607 148.789 203.601 148.795C203.474 148.922 203.375 149.077 202.965 149.02C202.924 149.014 202.965 149.061 202.975 149.087C202.991 149.141 203.051 149.226 203.013 149.248C202.911 149.305 202.632 149.226 202.676 149.384C202.752 149.666 202.539 149.733 202.422 149.866C202.339 149.958 202.374 150.16 202.304 150.271C202.285 150.303 202.288 150.353 202.285 150.401H202.838C202.749 150.391 202.679 150.363 202.813 150.132C202.905 149.973 202.784 150.015 202.721 150.002C202.625 149.983 202.447 150.043 202.393 149.983C202.33 149.91 202.365 149.736 202.349 149.616C202.346 149.587 202.314 149.581 202.285 149.578C202.199 149.568 202.107 149.565 202.018 149.559C201.78 149.536 201.866 149.191 201.704 149.093C201.586 149.027 201.344 149.084 201.468 148.773C201.545 148.58 201.319 148.681 201.236 148.643C201.043 148.555 200.839 148.476 200.664 148.368C200.493 148.26 200.337 148.14 200.204 147.994C200.143 147.928 200.188 147.754 200.115 147.7C199.959 147.579 199.733 147.522 199.581 147.399C199.457 147.301 199.393 147.142 199.307 147.006C199.256 146.924 199.253 146.8 199.167 146.753C199.091 146.709 198.866 146.81 198.834 146.721C198.786 146.591 198.796 146.405 198.586 146.436C198.548 146.443 198.551 146.401 198.541 146.376L198.529 146.335V146.664C198.7 146.614 198.885 146.579 199.024 146.496C199.11 146.449 199.082 146.284 199.152 146.224C199.32 146.078 199.53 145.977 199.695 145.828C199.774 145.759 199.867 145.702 199.816 145.505C199.765 145.309 200.051 145.448 200.067 145.318C200.099 145.052 200.439 145.094 200.626 144.986C200.677 144.957 200.623 144.824 200.652 144.774C200.712 144.669 200.788 144.581 200.868 144.498C200.947 144.416 201.023 144.337 201.128 144.28C201.195 144.245 201.367 144.315 201.392 144.239C201.443 144.068 201.433 143.84 201.739 143.925C201.789 143.941 201.726 143.833 201.716 143.786C201.71 143.754 201.665 143.681 201.713 143.7C202.272 143.944 201.983 143.339 202.342 143.387C202.543 143.412 202.746 143.428 202.454 142.956C202.438 142.931 202.508 142.988 202.514 142.985C202.609 142.947 202.708 142.912 202.787 142.858C202.844 142.82 202.864 142.75 202.914 142.703L202.927 142.693H202.183C202.25 142.795 202.161 143.035 202.269 143.089C202.39 143.149 202.527 143.2 202.584 143.32C202.711 143.593 203.277 143.589 203.026 144.096C203.436 143.995 203.496 144.125 203.579 144.226C203.68 144.349 204.004 144.372 204.141 144.489C204.252 144.581 204.602 144.596 204.227 144.869C204.17 144.907 204.259 144.897 204.303 144.904C204.414 144.916 204.608 144.904 204.65 144.942C204.859 145.125 205.133 145.303 205.231 145.512C205.307 145.676 205.603 145.831 205.88 145.968C206.156 146.101 206.417 146.208 206.417 146.208C206.445 146.303 206.474 146.395 206.518 146.484C206.522 146.49 206.623 146.5 206.731 146.503C206.842 146.503 207.068 146.503 207.151 146.503H207.157Z" fill="#75EDB1"/>
</g>
<g style="mix-blend-mode:multiply">
<path d="M205.117 148.71C205.212 148.726 205.18 148.685 205.206 148.669C205.326 148.586 205.295 148.453 205.603 148.434C205.946 148.412 205.895 148.244 205.822 148.092C205.749 147.937 205.654 147.795 205.937 147.738C206.423 147.63 206.366 147.402 206.569 147.237C206.795 147.047 207.319 146.576 207.182 146.534C207.163 146.528 207.09 146.509 206.871 146.509C206.756 146.509 206.61 146.519 206.601 146.525C206.493 146.595 206.42 146.661 206.315 146.728C206.029 146.908 205.701 147.07 205.447 147.231C205.193 147.393 205.031 147.567 204.783 147.719C204.624 147.811 205.047 148.105 204.856 148.206C204.761 148.254 204.519 148.244 204.643 148.371C204.71 148.444 204.227 148.301 204.443 148.438C204.516 148.485 204.198 148.387 204.649 148.574C204.799 148.634 205.034 148.697 205.12 148.71H205.117Z" fill="#75EDB1"/>
</g>
</g>
</g>
<g style="mix-blend-mode:multiply">
<g style="mix-blend-mode:multiply">
<path d="M193.927 20.83L189.731 25.0105L193.927 29.191L198.122 25.0105L193.927 20.83Z" fill="#75EDB1"/>
</g>
<g style="mix-blend-mode:multiply">
<g style="mix-blend-mode:multiply">
<path d="M198.522 25.0071C198.681 24.9976 198.878 24.9818 198.881 24.9691C198.897 24.8931 198.945 24.8076 198.817 24.7316C198.62 24.6081 198.172 24.5131 198.058 24.3991C197.883 24.2218 197.505 24.0919 197.591 23.8734C197.619 23.7974 197.333 23.7848 197.216 23.7436C197.143 23.7151 197.025 23.6993 197.089 23.6423C197.371 23.3794 197.104 23.2243 196.64 23.1768C196.507 23.1641 196.478 23.1134 196.469 23.0564C196.463 22.9994 196.602 22.8854 196.555 22.8411C196.466 22.7556 196.278 22.7144 196.164 22.6448C195.868 22.4706 195.582 22.3059 195.325 22.1349C195.229 22.0716 195.223 21.9481 195.147 21.8721C195.016 21.7359 194.854 21.6251 194.724 21.4921C194.692 21.4604 194.756 21.3559 194.724 21.3243C194.67 21.2736 194.572 21.2609 194.502 21.2261C194.479 21.2134 194.476 21.1849 194.47 21.1596C194.457 21.0963 194.448 21.0298 194.429 20.9664C194.413 20.9126 194.317 20.9348 194.387 20.8049C194.543 20.5231 194.489 20.4186 194.406 20.3489L194.33 20.2824C194.066 20.0544 193.669 20.0829 193.44 20.3458C193.415 20.3806 193.392 20.4154 193.364 20.4439C193.246 20.5643 193.304 20.8619 193.195 20.9918C193.046 21.1691 192.817 21.2673 192.614 21.3908C192.528 21.4446 192.395 21.4478 192.337 21.5301C192.248 21.6568 192.226 21.8499 192.14 21.9829C192.045 22.1318 191.956 22.2901 191.784 22.3629C191.616 22.4358 191.355 22.4168 191.317 22.6131C191.292 22.7429 191.241 22.8506 191.174 22.9424C190.898 23.3224 190.539 23.6201 190.208 23.9463C190.183 23.9716 190.189 24.0318 190.09 23.9811C189.7 23.7848 189.741 24.0191 189.722 24.1901C189.706 24.3104 189.611 24.3516 189.518 24.3959C189.477 24.4149 189.312 24.3136 189.28 24.3421L189.172 24.4529L189.153 24.4719C188.857 24.7728 188.864 25.2573 189.169 25.5518L189.175 25.5581C189.382 25.7544 189.598 25.9413 189.817 26.1249C189.855 26.1598 189.96 26.1281 189.986 26.1756C190.036 26.2706 190.027 26.4258 190.09 26.5081C190.189 26.6348 190.434 26.6126 190.456 26.8153C190.488 27.1129 190.726 27.2079 190.926 27.3378C191.107 27.4581 191.365 27.4993 191.565 27.6006C191.683 27.6608 191.743 27.7748 191.848 27.8476C191.985 27.9394 192.172 27.9806 192.28 28.1041C192.388 28.2339 192.391 28.4651 192.499 28.5981C192.773 28.9338 193.075 29.2409 193.377 29.5481C193.408 29.5798 193.443 29.6051 193.491 29.6209L194.022 29.7888C194.162 29.8331 194.314 29.7571 194.365 29.6209C194.381 29.5798 194.387 29.5323 194.384 29.4753C194.375 29.2029 194.266 28.8768 194.565 28.8926C194.947 28.9053 194.899 28.5506 195.029 28.3669C195.128 28.2276 195.188 28.0693 195.331 27.9648C195.398 27.9141 195.738 28.0218 195.782 27.9521C195.798 27.9268 195.824 27.9078 195.789 27.8539C195.738 27.7811 195.627 27.6766 195.506 27.5721C195.477 27.5468 195.344 27.4613 195.214 27.3948C195.058 27.3156 194.972 27.2934 194.966 27.2998C194.839 27.4264 194.74 27.5816 194.33 27.5246C194.289 27.5183 194.33 27.5658 194.34 27.5911C194.355 27.6449 194.416 27.7304 194.378 27.7526C194.276 27.8096 193.996 27.7304 194.041 27.8888C194.117 28.1706 193.904 28.2371 193.787 28.3701C193.704 28.4619 193.739 28.6646 193.669 28.7754C193.65 28.8071 193.653 28.8578 193.65 28.9053H194.203C194.114 28.8958 194.044 28.8673 194.177 28.6361C194.27 28.4778 194.149 28.5189 194.085 28.5063C193.99 28.4873 193.812 28.5474 193.758 28.4873C193.694 28.4144 193.729 28.2403 193.713 28.1199C193.71 28.0914 193.679 28.0851 193.65 28.0819C193.564 28.0724 193.472 28.0693 193.383 28.0629C193.145 28.0408 193.23 27.6956 193.068 27.5974C192.951 27.5309 192.709 27.5879 192.833 27.2776C192.909 27.0844 192.684 27.1858 192.601 27.1478C192.407 27.0591 192.204 26.9799 192.029 26.8723C191.857 26.7646 191.702 26.6443 191.568 26.4986C191.508 26.4321 191.552 26.2579 191.479 26.2041C191.324 26.0838 191.098 26.0268 190.945 25.9033C190.821 25.8051 190.758 25.6468 190.672 25.5106C190.621 25.4283 190.618 25.3048 190.532 25.2573C190.456 25.2129 190.23 25.3143 190.199 25.2256C190.151 25.0958 190.16 24.9089 189.951 24.9406C189.912 24.9469 189.916 24.9058 189.906 24.8804L189.893 24.8393V25.1686C190.065 25.1179 190.249 25.0831 190.389 25.0008C190.475 24.9533 190.446 24.7886 190.516 24.7284C190.685 24.5828 190.895 24.4814 191.06 24.3326C191.139 24.2629 191.231 24.2059 191.181 24.0096C191.13 23.8133 191.416 23.9526 191.432 23.8228C191.463 23.5568 191.803 23.5979 191.991 23.4903C192.042 23.4618 191.988 23.3288 192.016 23.2781C192.077 23.1736 192.153 23.0849 192.232 23.0026C192.312 22.9203 192.388 22.8411 192.493 22.7841C192.56 22.7493 192.731 22.8189 192.757 22.7429C192.808 22.5719 192.798 22.3439 193.103 22.4294C193.154 22.4453 193.091 22.3376 193.081 22.2901C193.075 22.2584 193.03 22.1856 193.078 22.2046C193.637 22.4484 193.348 21.8436 193.707 21.8911C193.907 21.9164 194.111 21.9323 193.818 21.4604C193.802 21.4351 193.872 21.4921 193.879 21.4889C193.974 21.4509 194.073 21.4161 194.152 21.3623C194.209 21.3243 194.228 21.2546 194.279 21.2071L194.292 21.1976H193.548C193.615 21.2989 193.526 21.5396 193.634 21.5934C193.755 21.6536 193.891 21.7043 193.949 21.8246C194.076 22.0969 194.641 22.0938 194.39 22.6004C194.8 22.4991 194.861 22.6289 194.943 22.7303C195.045 22.8538 195.369 22.8759 195.506 22.9931C195.617 23.0849 195.967 23.1008 195.592 23.3731C195.535 23.4111 195.623 23.4016 195.668 23.4079C195.779 23.4206 195.973 23.4079 196.014 23.4459C196.224 23.6296 196.497 23.8069 196.596 24.0159C196.672 24.1806 196.968 24.3358 197.244 24.4719C197.521 24.6049 197.781 24.7126 197.781 24.7126C197.81 24.8076 197.839 24.8994 197.883 24.9881C197.886 24.9944 197.988 25.0039 198.096 25.0071C198.207 25.0071 198.433 25.0071 198.516 25.0071H198.522Z" fill="#75EDB1"/>
</g>
<g style="mix-blend-mode:multiply">
<path d="M196.482 27.2143C196.577 27.2301 196.545 27.1889 196.571 27.1731C196.692 27.0908 196.66 26.9578 196.968 26.9388C197.311 26.9166 197.26 26.7488 197.187 26.5968C197.114 26.4416 197.019 26.2991 197.302 26.2421C197.788 26.1344 197.731 25.9064 197.934 25.7418C198.16 25.5518 198.684 25.0799 198.548 25.0388C198.528 25.0324 198.455 25.0134 198.236 25.0134C198.122 25.0134 197.975 25.0229 197.966 25.0293C197.858 25.0989 197.785 25.1654 197.68 25.2319C197.394 25.4124 197.067 25.5739 196.812 25.7354C196.558 25.8969 196.396 26.0711 196.148 26.2231C195.989 26.3149 196.412 26.6094 196.221 26.7108C196.126 26.7583 195.884 26.7488 196.008 26.8754C196.075 26.9483 195.592 26.8058 195.808 26.9419C195.881 26.9894 195.563 26.8913 196.015 27.0781C196.164 27.1383 196.399 27.2016 196.485 27.2143H196.482Z" fill="#75EDB1"/>
</g>
</g>
</g>
<g style="mix-blend-mode:multiply">
<g style="mix-blend-mode:multiply">
<path d="M64.2122 33.0062L60.0166 37.1868L64.2122 41.3673L68.4078 37.1868L64.2122 33.0062Z" fill="#2ECE95"/>
</g>
<g style="mix-blend-mode:multiply">
<g style="mix-blend-mode:multiply">
<path d="M68.8056 37.1799C68.9645 37.1704 69.1615 37.1546 69.1647 37.1419C69.1806 37.0659 69.2283 36.9804 69.1011 36.9044C68.9041 36.7809 68.456 36.6859 68.3416 36.5719C68.1668 36.3946 67.7886 36.2648 67.8744 36.0463C67.903 35.9703 67.617 35.9576 67.4994 35.9164C67.4263 35.8879 67.3087 35.8721 67.3723 35.8151C67.6551 35.5523 67.3882 35.3971 66.9242 35.3496C66.7907 35.3369 66.7621 35.2863 66.7525 35.2293C66.7462 35.1723 66.886 35.0583 66.8384 35.0139C66.7494 34.9284 66.5619 34.8873 66.4474 34.8176C66.1519 34.6434 65.8659 34.4788 65.6084 34.3078C65.5131 34.2444 65.5067 34.1209 65.4305 34.0449C65.3002 33.9088 65.1381 33.7979 65.0078 33.6649C64.976 33.6333 65.0396 33.5288 65.0078 33.4971C64.9538 33.4464 64.8552 33.4338 64.7853 33.3989C64.7631 33.3863 64.7599 33.3578 64.7535 33.3324C64.7408 33.2691 64.7313 33.2026 64.7122 33.1393C64.6963 33.0854 64.601 33.1076 64.6709 32.9778C64.8266 32.6959 64.7726 32.5914 64.69 32.5218L64.6137 32.4553C64.3499 32.2273 63.9527 32.2558 63.7238 32.5186C63.6984 32.5534 63.6762 32.5883 63.6476 32.6168C63.53 32.7371 63.5872 33.0348 63.4791 33.1646C63.3298 33.3419 63.1009 33.4401 62.8975 33.5636C62.8117 33.6174 62.6782 33.6206 62.621 33.7029C62.5321 33.8296 62.5098 34.0228 62.424 34.1558C62.3287 34.3046 62.2397 34.4629 62.0681 34.5358C61.8996 34.6086 61.639 34.5896 61.6009 34.7859C61.5755 34.9158 61.5246 35.0234 61.4579 35.1153C61.1814 35.4953 60.8223 35.7929 60.4917 36.1191C60.4663 36.1444 60.4727 36.2046 60.3741 36.1539C59.9832 35.9576 60.0246 36.1919 60.0055 36.3629C59.9896 36.4833 59.8943 36.5244 59.8021 36.5688C59.7608 36.5878 59.5955 36.4864 59.5637 36.5149L59.4557 36.6258L59.4366 36.6448C59.1411 36.9456 59.1474 37.4301 59.4525 37.7246L59.4589 37.7309C59.6654 37.9273 59.8815 38.1141 60.1008 38.2978C60.139 38.3326 60.2438 38.3009 60.2693 38.3484C60.3201 38.4434 60.3106 38.5986 60.3741 38.6809C60.4727 38.8076 60.7174 38.7854 60.7396 38.9881C60.7714 39.2858 61.0098 39.3808 61.21 39.5106C61.3911 39.6309 61.6486 39.6721 61.8488 39.7734C61.9664 39.8336 62.0267 39.9476 62.1316 40.0204C62.2683 40.1123 62.4558 40.1534 62.5638 40.2769C62.6719 40.4068 62.6751 40.6379 62.7831 40.7709C63.0564 41.1066 63.3584 41.4138 63.6603 41.7209C63.6921 41.7526 63.727 41.7779 63.7747 41.7938L64.3054 41.9616C64.4453 42.0059 64.5978 41.9299 64.6487 41.7938C64.6645 41.7526 64.6709 41.7051 64.6677 41.6481C64.6582 41.3758 64.5501 41.0496 64.8489 41.0654C65.2302 41.0781 65.1826 40.7234 65.3129 40.5398C65.4114 40.4004 65.4718 40.2421 65.6148 40.1376C65.6815 40.0869 66.0216 40.1946 66.0661 40.1249C66.082 40.0996 66.1074 40.0806 66.0724 40.0268C66.0216 39.9539 65.9104 39.8494 65.7896 39.7449C65.761 39.7196 65.6275 39.6341 65.4972 39.5676C65.3415 39.4884 65.2557 39.4663 65.2493 39.4726C65.1222 39.5993 65.0237 39.7544 64.6137 39.6974C64.5724 39.6911 64.6137 39.7386 64.6232 39.7639C64.6391 39.8178 64.6995 39.9033 64.6614 39.9254C64.5597 39.9824 64.28 39.9033 64.3245 40.0616C64.4008 40.3434 64.1878 40.4099 64.0703 40.5429C63.9876 40.6348 64.0226 40.8374 63.9527 40.9483C63.9336 40.9799 63.9368 41.0306 63.9336 41.0781H64.4866C64.3976 41.0686 64.3277 41.0401 64.4612 40.8089C64.5533 40.6506 64.4325 40.6918 64.369 40.6791C64.2736 40.6601 64.0957 40.7203 64.0416 40.6601C63.9781 40.5873 64.013 40.4131 63.9972 40.2928C63.994 40.2643 63.9622 40.2579 63.9336 40.2548C63.8478 40.2453 63.7556 40.2421 63.6666 40.2358C63.4283 40.2136 63.5141 39.8684 63.352 39.7703C63.2344 39.7038 62.9929 39.7608 63.1168 39.4504C63.1931 39.2573 62.9675 39.3586 62.8848 39.3206C62.691 39.2319 62.4876 39.1528 62.3128 39.0451C62.1412 38.9374 61.9854 38.8171 61.852 38.6714C61.7916 38.6049 61.8361 38.4308 61.763 38.3769C61.6072 38.2566 61.3816 38.1996 61.2291 38.0761C61.1051 37.9779 61.0415 37.8196 60.9557 37.6834C60.9049 37.6011 60.9017 37.4776 60.8159 37.4301C60.7396 37.3858 60.514 37.4871 60.4822 37.3984C60.4345 37.2686 60.4441 37.0818 60.2343 37.1134C60.1962 37.1198 60.1994 37.0786 60.1898 37.0533L60.1771 37.0121V37.3414C60.3487 37.2908 60.5331 37.2559 60.6729 37.1736C60.7587 37.1261 60.7301 36.9614 60.8 36.9013C60.9684 36.7556 61.1782 36.6543 61.3435 36.5054C61.4229 36.4358 61.5151 36.3788 61.4642 36.1824C61.4134 35.9861 61.6994 36.1254 61.7153 35.9956C61.7471 35.7296 62.0871 35.7708 62.2746 35.6631C62.3255 35.6346 62.2715 35.5016 62.3001 35.4509C62.3604 35.3464 62.4367 35.2578 62.5162 35.1754C62.5956 35.0931 62.6719 35.0139 62.7768 34.9569C62.8435 34.9221 63.0151 34.9918 63.0406 34.9158C63.0914 34.7448 63.0819 34.5168 63.387 34.6023C63.4378 34.6181 63.3743 34.5104 63.3647 34.4629C63.3584 34.4313 63.3139 34.3584 63.3615 34.3774C63.9209 34.6213 63.6317 34.0164 63.9908 34.0639C64.191 34.0893 64.3944 34.1051 64.102 33.6333C64.0861 33.6079 64.1561 33.6649 64.1624 33.6618C64.2578 33.6238 64.3563 33.5889 64.4357 33.5351C64.4929 33.4971 64.512 33.4274 64.5628 33.3799L64.5756 33.3704H63.8319C63.8986 33.4718 63.8096 33.7124 63.9177 33.7663C64.0385 33.8264 64.1751 33.8771 64.2323 33.9974C64.3595 34.2698 64.9252 34.2666 64.6741 34.7733C65.0841 34.6719 65.1444 34.8018 65.2271 34.9031C65.3288 35.0266 65.6529 35.0488 65.7896 35.1659C65.9008 35.2578 66.2504 35.2736 65.8754 35.5459C65.8182 35.5839 65.9072 35.5744 65.9517 35.5808C66.0629 35.5934 66.2568 35.5808 66.2981 35.6188C66.5078 35.8024 66.7811 35.9798 66.8797 36.1888C66.9559 36.3534 67.2515 36.5086 67.528 36.6448C67.8045 36.7778 68.0651 36.8854 68.0651 36.8854C68.0937 36.9804 68.1223 37.0723 68.1668 37.1609C68.17 37.1673 68.2717 37.1768 68.3797 37.1799C68.491 37.1799 68.7166 37.1799 68.7992 37.1799H68.8056Z" fill="#2ECE95"/>
</g>
<g style="mix-blend-mode:multiply">
<path d="M66.7684 39.3871C66.8637 39.403 66.832 39.3618 66.8574 39.346C66.9781 39.2636 66.9464 39.1306 67.2546 39.1116C67.5979 39.0895 67.547 38.9216 67.4739 38.7696C67.4008 38.6144 67.3055 38.4719 67.5883 38.4149C68.0746 38.3073 68.0174 38.0793 68.2208 37.9146C68.4464 37.7246 68.9708 37.2528 68.8342 37.2116C68.8151 37.2053 68.742 37.1863 68.5227 37.1863C68.4083 37.1863 68.2621 37.1958 68.2526 37.2021C68.1445 37.2718 68.0714 37.3383 67.9665 37.4048C67.6805 37.5853 67.3532 37.7468 67.0989 37.9083C66.8447 38.0698 66.6826 38.2439 66.4347 38.3959C66.2758 38.4878 66.6985 38.7823 66.5078 38.8836C66.4124 38.9311 66.1709 38.9216 66.2949 39.0483C66.3616 39.1211 65.8785 38.9786 66.0946 39.1148C66.1677 39.1623 65.8499 39.0641 66.3012 39.251C66.4506 39.3111 66.6858 39.3745 66.7716 39.3871H66.7684Z" fill="#2ECE95"/>
</g>
</g>
</g>
<g style="mix-blend-mode:multiply">
<g style="mix-blend-mode:multiply">
<path d="M27.7733 128.857L20.6562 135.948L24.8518 140.129L31.9689 133.037L27.7733 128.857Z" fill="#28B599"/>
</g>
<g style="mix-blend-mode:multiply">
<g style="mix-blend-mode:multiply">
<path d="M32.3654 133.032C32.5211 133.019 32.715 133 32.7118 132.981C32.7022 132.876 32.7245 132.766 32.5783 132.661C32.3431 132.493 31.8569 132.367 31.7043 132.215C31.4723 131.977 31.0401 131.8 31.0624 131.505C31.0687 131.404 30.7668 131.388 30.6333 131.331C30.5475 131.293 30.4204 131.271 30.4712 131.192C30.6905 130.837 30.3664 130.628 29.8642 130.565C29.7212 130.546 29.6767 130.479 29.6481 130.403C29.6227 130.327 29.7371 130.175 29.6767 130.115C29.5591 130.001 29.3494 129.944 29.2064 129.852C28.8441 129.618 28.4913 129.396 28.1703 129.162C28.0495 129.076 28.0082 128.915 27.9065 128.81L27.862 128.766C27.8144 128.715 27.7349 128.715 27.6841 128.766C27.5251 128.931 27.3821 129.111 27.2201 129.273C27.1787 129.314 27.0516 129.273 27.0103 129.314C26.9436 129.384 26.9181 129.494 26.8673 129.58C26.8514 129.608 26.8133 129.615 26.7815 129.627L26.5431 129.71C26.4796 129.735 26.4891 129.84 26.3461 129.783C25.9043 129.605 25.8503 129.817 25.72 129.954C25.5611 130.118 25.577 130.454 25.4276 130.628C25.2242 130.862 24.935 131.014 24.6776 131.198C24.5664 131.277 24.4074 131.306 24.328 131.41C24.2009 131.575 24.1405 131.806 24.0197 131.977C23.8799 132.17 23.7496 132.37 23.5367 132.487C23.3269 132.601 23.0218 132.623 22.9424 132.864C22.8883 133.022 22.8089 133.155 22.7167 133.272C22.3258 133.766 21.8523 134.178 21.4073 134.618C21.3724 134.653 21.3692 134.723 21.2643 134.681C20.8385 134.517 20.848 134.786 20.7971 134.992C20.759 135.137 20.6382 135.201 20.5238 135.267C20.4698 135.299 20.295 135.204 20.2537 135.245L20.1075 135.394L20.0916 135.41C19.7929 135.714 19.7992 136.198 20.1011 136.496H20.1043C20.3808 136.765 20.6668 137.022 20.9561 137.275C21.0069 137.322 21.1245 137.303 21.1626 137.364C21.2389 137.484 21.2548 137.664 21.3438 137.775C21.4804 137.94 21.7665 137.956 21.8268 138.2C21.9158 138.554 22.2114 138.706 22.4688 138.896C22.7008 139.067 23.0123 139.162 23.2665 139.314C23.4159 139.403 23.5049 139.552 23.6415 139.653C23.8195 139.786 24.0451 139.865 24.1913 140.027C24.3089 140.163 24.363 140.363 24.4519 140.524C24.5568 140.711 24.792 140.781 24.9827 140.676H24.9859L25.2528 140.524C25.2973 140.499 25.3386 140.47 25.3768 140.439C25.8376 140.043 26.273 139.612 26.7052 139.184C26.7878 139.105 26.8419 139.004 26.8482 138.871C26.8609 138.58 26.7656 138.247 27.1279 138.193C27.5855 138.12 27.5696 137.744 27.754 137.506C27.8906 137.329 27.9891 137.139 28.1735 136.99C28.2625 136.92 28.6375 136.974 28.701 136.885C28.7233 136.854 28.7551 136.825 28.7233 136.775C28.6788 136.702 28.5676 136.604 28.45 136.505C28.4214 136.483 28.2847 136.407 28.1481 136.357C27.9828 136.293 27.8906 136.284 27.8779 136.293C27.6999 136.471 27.5506 136.673 27.0707 136.702C27.023 136.702 27.0643 136.749 27.0675 136.778C27.0739 136.838 27.1311 136.923 27.0802 136.955C26.9467 137.044 26.6162 137.025 26.6416 137.193C26.6861 137.493 26.4128 137.623 26.2412 137.804C26.1236 137.93 26.1363 138.146 26.0346 138.288C25.9552 138.399 26.0759 138.665 25.6628 138.526C25.4785 138.462 25.5166 138.58 25.4975 138.649C25.4658 138.757 25.5198 138.937 25.4403 139.01C25.345 139.096 25.1416 139.089 24.9986 139.127C24.9636 139.137 24.9541 139.172 24.9445 139.207L24.8873 139.511C24.8492 139.685 24.6776 139.732 24.5219 139.793H25.1829C25.1448 139.704 25.1034 139.618 25.0272 139.568C24.8778 139.466 24.6045 139.495 24.6967 139.15C24.7539 138.934 24.506 139.013 24.4011 138.956C24.1564 138.82 23.9053 138.69 23.6797 138.532C23.4604 138.377 23.257 138.206 23.0758 138.016C22.9932 137.927 23.0154 137.731 22.9201 137.655C22.7135 137.487 22.4434 137.383 22.24 137.212C22.0779 137.075 21.973 136.879 21.8523 136.702C21.7792 136.597 21.7506 136.452 21.6457 136.382C21.5472 136.315 21.3025 136.398 21.2484 136.29C21.169 136.129 21.1467 135.91 20.9084 135.91C20.8639 135.91 20.8607 135.866 20.848 135.834L20.8257 135.783V136.113C21.0355 136.024 21.258 135.948 21.4359 135.831C21.544 135.758 21.5376 135.574 21.6362 135.489C21.8586 135.289 22.1224 135.131 22.3449 134.932C22.4497 134.837 22.5673 134.754 22.5419 134.533C22.5165 134.311 22.8279 134.425 22.8693 134.27C22.9519 133.953 23.3428 133.94 23.5843 133.782C23.6479 133.741 23.6066 133.592 23.6511 133.529C23.7401 133.396 23.8449 133.279 23.953 133.168C24.0579 133.057 24.1659 132.949 24.2962 132.867C24.382 132.813 24.5727 132.867 24.6108 132.772C24.6998 132.563 24.7284 132.297 25.0748 132.344C25.1352 132.351 25.0748 132.24 25.0748 132.186C25.0748 132.148 25.0335 132.072 25.0844 132.085C25.6977 132.275 25.4626 131.616 25.8789 131.607C26.1109 131.6 26.3461 131.584 26.0823 131.084C26.0696 131.059 26.1395 131.113 26.149 131.106C26.2666 131.043 26.3906 130.986 26.4923 130.91C26.5654 130.856 26.6035 130.767 26.6671 130.707C26.7974 130.587 27.1025 130.644 27.201 130.489C27.3027 130.327 27.3948 130.153 27.5601 130.052C27.8493 129.874 27.9478 129.504 28.2561 129.342H27.2931C27.3472 129.45 27.3694 129.586 27.3345 129.767C27.7349 129.646 27.8366 129.821 27.9542 129.96C28.0972 130.131 28.4436 130.163 28.6248 130.324C28.7678 130.448 29.1428 130.473 28.8282 130.837C28.7805 130.891 28.8727 130.878 28.9203 130.885C29.0411 130.9 29.2413 130.885 29.2985 130.935C29.575 131.182 29.9151 131.423 30.0835 131.705C30.217 131.926 30.5729 132.135 30.9034 132.316C31.234 132.496 31.5327 132.642 31.5327 132.642C31.5931 132.769 31.6535 132.892 31.7297 133.013C31.7361 133.022 31.841 133.035 31.949 133.041C32.0603 133.044 32.2859 133.041 32.3685 133.038L32.3654 133.032Z" fill="#28B599"/>
</g>
<g style="mix-blend-mode:multiply">
<path d="M29.6291 135.916C29.7308 135.916 29.7053 135.878 29.7339 135.856C29.8865 135.745 29.877 135.59 30.2202 135.53C30.6016 135.46 30.5761 135.274 30.5348 135.099C30.4935 134.922 30.4299 134.754 30.7446 134.656C31.288 134.482 31.2849 134.21 31.5455 133.988C31.8347 133.738 32.5052 133.127 32.3845 133.073C32.3654 133.063 32.3018 133.038 32.0825 133.038C31.9681 133.038 31.8188 133.054 31.8061 133.06C31.6726 133.152 31.5772 133.247 31.4469 133.339C31.0942 133.586 30.7001 133.82 30.3791 134.054C30.0581 134.286 29.8261 134.529 29.5083 134.757C29.3049 134.897 29.6863 135.207 29.4511 135.356C29.3335 135.429 29.0666 135.451 29.1746 135.587C29.2318 135.663 28.7233 135.571 28.9331 135.698C29.003 135.742 28.6661 135.679 29.1333 135.825C29.2858 135.872 29.5369 135.91 29.6291 135.913V135.916Z" fill="#28B599"/>
</g>
</g>
</g>
</svg>
