<svg width="24" height="24" viewBox="0 0 24 24" fill="none" xmlns="http://www.w3.org/2000/svg">
<path fill-rule="evenodd" clip-rule="evenodd" d="M18.9903 10.3354C18.9967 10.2129 19 10.0896 19 9.96556L18.9998 9.91081L19 9.83723C19 9.8369 18.9997 9.83664 18.9994 9.83664C18.9991 9.83664 18.9988 9.83637 18.9988 9.83605C18.9294 6.04884 15.8225 3 12 3C8.17748 3 5.07058 6.04884 5.00119 9.83605C5.00118 9.83637 5.00092 9.83664 5.00059 9.83664C5.00027 9.83664 5 9.8369 5 9.83723L5.00021 9.91081L5 9.96556C5 10.0896 5.00326 10.2129 5.0097 10.3354C5.1654 14.3087 7.19264 17.4713 10.8559 20.3711C11.5269 20.9022 12.4731 20.9022 13.1441 20.3711C16.8074 17.4713 18.8346 14.3087 18.9903 10.3354ZM12 12.1155C13.2887 12.1155 14.3333 11.0952 14.3333 9.83664C14.3333 8.57805 13.2887 7.55776 12 7.55776C10.7113 7.55776 9.66667 8.57805 9.66667 9.83664C9.66667 11.0952 10.7113 12.1155 12 12.1155Z" fill="#353535"/>
</svg>
