<svg width="92" height="53" viewBox="0 0 92 53" fill="none" xmlns="http://www.w3.org/2000/svg">
<path d="M0 10.7855C0 9.21548 0.281191 7.77469 0.86953 6.43558C1.43191 5.12261 2.19906 3.98974 3.22 3.01228C4.19191 2.08565 5.36715 1.33911 6.74715 0.79882C8.10119 0.283218 9.55762 0 11.1424 0C13.2376 0 15.0776 0.437172 16.6105 1.28683C18.1448 2.16262 19.5233 3.44945 20.7505 5.1473L17.2493 8.10729C16.6105 6.97442 15.8188 6.07393 14.8729 5.40438C13.9009 4.73482 12.7012 4.40077 11.2693 4.40077C10.3752 4.40077 9.55762 4.58087 8.84094 4.89023C8.09975 5.22428 7.4869 5.66291 6.97643 6.22789C6.44 6.82047 6.03047 7.49002 5.74928 8.26125C5.44213 9.05862 5.31524 9.90827 5.31524 10.7841C5.31524 11.6599 5.44357 12.5081 5.74928 13.2807C6.00451 14.0534 6.41404 14.723 6.95047 15.288C7.46238 15.8805 8.10119 16.3439 8.8669 16.6518C9.58213 16.9858 10.3997 17.1412 11.3197 17.1412C12.035 17.1412 12.6997 17.0642 13.3126 16.8841C13.875 16.7302 14.4114 16.4717 14.9233 16.1376C15.3833 15.8282 15.8433 15.4172 16.2514 14.9539C16.635 14.4906 16.9926 13.975 17.3502 13.3839L20.775 16.447C19.5998 18.094 18.2702 19.33 16.7374 20.2305C15.1786 21.1063 13.3126 21.5696 11.1409 21.5696C9.55618 21.5696 8.09975 21.2864 6.74571 20.7722C5.36571 20.2319 4.19047 19.4854 3.21856 18.5588C2.19618 17.606 1.43047 16.4731 0.868088 15.1355C0.281191 13.8225 0 12.3803 0 10.7855Z" fill="#353535"/>
<path d="M21.8752 10.7594C21.8752 9.21548 22.1564 7.77324 22.7448 6.43558C23.3072 5.12261 24.0743 3.98974 25.0952 3.01228C26.0672 2.08565 27.2424 1.33911 28.6224 0.79882C29.9764 0.283218 31.4588 0 33.0695 0C34.6803 0 36.1612 0.283218 37.5412 0.79882C38.8952 1.33911 40.0719 2.08565 41.0929 3.01228C42.0648 3.98974 42.8564 5.12261 43.4188 6.43558C43.9552 7.77469 44.2364 9.21548 44.2364 10.7594C44.2364 12.3033 43.9552 13.7963 43.4188 15.1093C42.8564 16.4484 42.0648 17.5798 41.0929 18.5326C40.0705 19.4854 38.8952 20.2319 37.5412 20.7722C36.1612 21.2864 34.6788 21.5696 33.0695 21.5696C31.4603 21.5696 29.9779 21.2864 28.6224 20.7722C27.2424 20.2319 26.0672 19.4854 25.0952 18.5326C24.0729 17.5798 23.3072 16.4484 22.7448 15.1093C22.1564 13.7963 21.8752 12.3556 21.8752 10.7594ZM27.1905 10.7594C27.1905 11.7121 27.3188 12.5618 27.6245 13.333C27.8798 14.1318 28.2893 14.8 28.7998 15.3664C29.3102 15.9328 29.9245 16.37 30.6657 16.6794C31.3809 17.0134 32.1726 17.1688 33.0681 17.1688C33.9636 17.1688 34.7552 17.0149 35.495 16.6794C36.2102 16.37 36.8245 15.9328 37.335 15.3664C37.8469 14.8 38.229 14.1304 38.5362 13.333C38.7914 12.5604 38.9457 11.7121 38.9457 10.7594C38.9457 9.85889 38.7929 9.00923 38.5362 8.23656C38.229 7.46388 37.8469 6.79578 37.335 6.22934C36.8231 5.66291 36.2102 5.22573 35.495 4.89168C34.7538 4.58232 33.9362 4.42837 33.0681 4.42837C32.2 4.42837 31.3809 4.58232 30.6657 4.89168C29.9245 5.22573 29.3117 5.66436 28.7998 6.22934C28.2878 6.79578 27.8798 7.46533 27.6245 8.23656C27.3174 9.00923 27.1905 9.85889 27.1905 10.7594Z" fill="#353535"/>
<path d="M64.6293 0H70.0729V21.5696H64.7576V10.7986L60.5917 21.5696H56.7848L52.6188 10.7986V21.5696H47.3036V0H52.7472L58.6752 15.3446L64.6293 0Z" fill="#353535"/>
<path d="M1.73047 31.7553H13.1526C14.0221 31.7553 14.8657 31.8845 15.6574 32.1155C16.4245 32.3725 17.0893 32.7327 17.6502 33.196C18.2126 33.7116 18.6466 34.3289 18.9798 35.1001C19.2869 35.8728 19.4657 36.7994 19.4657 37.8292C19.4657 38.859 19.3374 39.7333 19.0821 40.4551C18.8269 41.2017 18.4433 41.8189 17.9314 42.3084C17.4195 42.824 16.7807 43.2612 16.0409 43.5691C15.2738 43.9293 14.3798 44.2125 13.4093 44.4187L7.04571 45.8348V52.269H1.73047V31.7553ZM14.175 37.9585C14.175 37.4951 14.0221 37.058 13.715 36.6978C13.3833 36.3637 12.9478 36.1822 12.4374 36.1822H7.04571V41.1494L11.9009 40.2489C12.7705 40.0949 13.3574 39.8117 13.689 39.3992C13.9962 38.9868 14.175 38.5234 14.175 37.957V37.9585Z" fill="#353535"/>
<path d="M18.8701 52.269L25.7701 31.7553H32.4654L39.3654 52.269H34.0501L32.1077 46.5291L25.5149 48.3562L24.1854 52.269H18.8701ZM27.1501 43.4921L30.7277 42.4885L29.117 37.6752L27.1501 43.4921Z" fill="#353535"/>
<path d="M44.0765 45.5777C44.9705 46.3504 46.0189 46.9938 47.246 47.4557C48.4472 47.9452 49.6989 48.1761 50.9765 48.1514C51.82 48.1514 52.4329 48.0221 52.8424 47.7651C53.226 47.5327 53.4308 47.1725 53.4308 46.6845C53.4308 46.118 53.2015 45.6809 52.766 45.3207C52.306 44.9866 51.5389 44.6773 50.492 44.3679C49.572 44.1108 48.652 43.8276 47.706 43.5182C46.7355 43.235 45.866 42.8487 45.1003 42.3345C44.3072 41.8451 43.6684 41.2017 43.1839 40.4304C42.672 39.6578 42.4167 38.6803 42.4167 37.4443C42.4167 36.3637 42.6215 35.4371 43.0555 34.6397C43.4651 33.8671 44.026 33.2236 44.7672 32.7095C45.4824 32.22 46.326 31.8598 47.2965 31.6028C48.2424 31.3704 49.2648 31.2426 50.3377 31.2426C51.0789 31.2426 51.7941 31.2934 52.4848 31.3965C53.1496 31.4996 53.8143 31.6536 54.4777 31.8598C55.1165 32.0922 55.7553 32.3754 56.42 32.6833C57.0329 33.0174 57.6977 33.4037 58.3869 33.8671L56.2917 37.9846C55.4741 37.3673 54.5541 36.8517 53.5836 36.4915C52.5872 36.1313 51.5389 35.9512 50.466 35.899C50.1084 35.899 49.7753 35.899 49.4696 35.9251C49.1379 35.9759 48.8567 36.0544 48.626 36.1575C48.3708 36.2868 48.192 36.4407 48.0636 36.5947C47.9108 36.7748 47.8329 36.981 47.8329 37.2381C47.8329 37.4951 47.8589 37.7275 47.9612 37.9076C48.0117 38.1139 48.166 38.3201 48.3953 38.4741C48.6 38.6542 48.9317 38.8343 49.3672 38.9897C49.7767 39.1698 50.3132 39.3499 51.0284 39.53C52.1012 39.8393 53.1496 40.1734 54.12 40.4827C55.066 40.8429 55.9096 41.2554 56.6248 41.7434C57.34 42.259 57.9024 42.9024 58.312 43.649C58.7215 44.4216 58.9248 45.373 58.9248 46.5058C58.9248 47.6387 58.72 48.513 58.312 49.2857C57.9024 50.0584 57.3155 50.7265 56.6003 51.2421C55.8591 51.7577 54.9896 52.1426 53.9931 52.3997C52.9708 52.6567 51.872 52.786 50.6967 52.786C48.9836 52.786 47.4003 52.5289 45.9439 52.0133C44.4615 51.4977 43.0815 50.7773 41.8298 49.8769L44.0779 45.5777H44.0765Z" fill="#353535"/>
<path d="M63.5493 45.5777C64.4433 46.3504 65.4916 46.9938 66.7188 47.4557C67.92 47.9452 69.1716 48.1761 70.4493 48.1514C71.2928 48.1514 71.9057 48.0221 72.3152 47.7651C72.6988 47.5327 72.9036 47.1725 72.9036 46.6845C72.9036 46.118 72.6743 45.6809 72.2388 45.3207C71.7788 44.9866 71.0116 44.6773 69.9647 44.3679C69.0447 44.1108 68.1247 43.8276 67.1788 43.5182C66.2083 43.235 65.3388 42.8487 64.5731 42.3345C63.78 41.8451 63.1412 41.2017 62.6567 40.4304C62.1447 39.6578 61.8895 38.6803 61.8895 37.4443C61.8895 36.3637 62.0943 35.4371 62.5283 34.6397C62.9378 33.8671 63.4988 33.2236 64.24 32.7095C64.9552 32.22 65.7988 31.8598 66.7693 31.6028C67.7152 31.3704 68.7376 31.2426 69.8104 31.2426C70.5516 31.2426 71.2669 31.2934 71.9576 31.3965C72.6224 31.4996 73.2871 31.6536 73.9504 31.8598C74.5893 32.0922 75.2281 32.3754 75.8928 32.6833C76.5057 33.0174 77.1704 33.4037 77.8597 33.8671L75.7645 37.9846C74.9469 37.3673 74.0269 36.8517 73.0564 36.4915C72.06 36.1313 71.0116 35.9512 69.9388 35.899C69.5812 35.899 69.2481 35.899 68.9424 35.9251C68.6107 35.9759 68.3295 36.0544 68.0988 36.1575C67.8436 36.2868 67.6647 36.4407 67.5364 36.5947C67.3836 36.7748 67.3057 36.981 67.3057 37.2381C67.3057 37.4951 67.3316 37.7275 67.434 37.9076C67.4845 38.1139 67.6388 38.3201 67.8681 38.4741C68.0728 38.6542 68.4045 38.8343 68.84 38.9897C69.2495 39.1698 69.7859 39.3499 70.5012 39.53C71.574 39.8393 72.6224 40.1734 73.5928 40.4827C74.5388 40.8429 75.3824 41.2554 76.0976 41.7434C76.8128 42.259 77.3752 42.9024 77.7847 43.649C78.1943 44.4216 78.3976 45.373 78.3976 46.5058C78.3976 47.6387 78.1928 48.513 77.7847 49.2857C77.3752 50.0584 76.7883 50.7265 76.0731 51.2421C75.3319 51.7577 74.4624 52.1426 73.4659 52.3997C72.4436 52.6567 71.3447 52.786 70.1695 52.786C68.4564 52.786 66.8731 52.5289 65.4167 52.0133C63.9343 51.4977 62.5543 50.7773 61.3026 49.8769L63.5507 45.5777H63.5493Z" fill="#353535"/>
<path d="M92 0H73.6V4.42691H92V0Z" fill="#353535"/>
<path d="M92 8.57061H73.6V12.9975H92V8.57061Z" fill="#2ECE95"/>
<path d="M92 17.1427H73.6V21.5696H92V17.1427Z" fill="#353535"/>
</svg>
