<svg width="18" height="10" viewBox="0 0 18 10" fill="none" xmlns="http://www.w3.org/2000/svg">
<path d="M16.6422 4.99793C16.6422 4.62915 16.8109 4.29769 17.0799 4.06644C17.4987 3.70639 18 3.28363 18 2.73134V0.999999C18 0.447714 17.5523 0 17 0H1C0.447716 0 0 0.447715 0 1V2.75013C0 3.29585 0.489716 3.71546 0.901411 4.07366C1.16707 4.3048 1.33333 4.63417 1.33333 5C1.33333 5.36583 1.16707 5.6952 0.901411 5.92634C0.489716 6.28454 0 6.70415 0 7.24987V9C0 9.55228 0.447715 10 1 10H17C17.5523 10 18 9.55229 18 9V7.26451C18 6.71223 17.4986 6.2896 17.0799 5.92945C16.8107 5.69786 16.6422 5.36602 16.6422 4.99793Z" fill="#353535"/>
</svg>
