<svg width="16" height="18" viewBox="0 0 16 18" fill="none" xmlns="http://www.w3.org/2000/svg">
<mask id="path-1-inside-1_328_15528" fill="white">
<path fill-rule="evenodd" clip-rule="evenodd" d="M8.99998 0.57735C8.38118 0.220084 7.61878 0.220084 6.99998 0.57735L1.20575 3.92265C0.586947 4.27991 0.20575 4.94017 0.20575 5.6547V12.3453C0.20575 13.0598 0.586947 13.7201 1.20575 14.0773L6.99998 17.4226C7.61878 17.7799 8.38118 17.7799 8.99998 17.4226L14.7942 14.0773C15.413 13.7201 15.7942 13.0598 15.7942 12.3453V5.6547C15.7942 4.94017 15.413 4.27991 14.7942 3.92265L8.99998 0.57735ZM7.99998 11C9.10455 11 9.99998 10.1046 9.99998 9C9.99998 7.89543 9.10455 7 7.99998 7C6.89541 7 5.99998 7.89543 5.99998 9C5.99998 10.1046 6.89541 11 7.99998 11Z"/>
</mask>
<path d="M6.99998 0.57735L7.74998 1.87639L6.99998 0.57735ZM8.99998 0.57735L8.24998 1.87639V1.87639L8.99998 0.57735ZM1.20575 3.92265L0.455749 2.62361L0.455749 2.62361L1.20575 3.92265ZM1.20575 14.0773L1.95575 12.7783H1.95575L1.20575 14.0773ZM6.99998 17.4226L6.24998 18.7217L6.99998 17.4226ZM8.99998 17.4226L9.74998 18.7217L8.99998 17.4226ZM14.7942 14.0773L14.0442 12.7783L14.7942 14.0773ZM14.7942 3.92265L15.5442 2.62361V2.62361L14.7942 3.92265ZM7.74998 1.87639C7.90468 1.78707 8.09528 1.78707 8.24998 1.87639L9.74998 -0.721688C8.66707 -1.3469 7.33288 -1.3469 6.24998 -0.721688L7.74998 1.87639ZM1.95575 5.22169L7.74998 1.87639L6.24998 -0.721688L0.455749 2.62361L1.95575 5.22169ZM1.70575 5.6547C1.70575 5.47607 1.80105 5.311 1.95575 5.22169L0.455749 2.62361C-0.627154 3.24883 -1.29425 4.40427 -1.29425 5.6547H1.70575ZM1.70575 12.3453V5.6547H-1.29425V12.3453H1.70575ZM1.95575 12.7783C1.80105 12.689 1.70575 12.5239 1.70575 12.3453H-1.29425C-1.29425 13.5957 -0.627155 14.7512 0.455749 15.3764L1.95575 12.7783ZM7.74998 16.1236L1.95575 12.7783L0.455749 15.3764L6.24998 18.7217L7.74998 16.1236ZM8.24998 16.1236C8.09528 16.2129 7.90468 16.2129 7.74998 16.1236L6.24998 18.7217C7.33288 19.3469 8.66707 19.3469 9.74998 18.7217L8.24998 16.1236ZM14.0442 12.7783L8.24998 16.1236L9.74998 18.7217L15.5442 15.3764L14.0442 12.7783ZM14.2942 12.3453C14.2942 12.5239 14.1989 12.689 14.0442 12.7783L15.5442 15.3764C16.6271 14.7512 17.2942 13.5957 17.2942 12.3453H14.2942ZM14.2942 5.6547V12.3453H17.2942V5.6547H14.2942ZM14.0442 5.22169C14.1989 5.311 14.2942 5.47607 14.2942 5.6547H17.2942C17.2942 4.40427 16.6271 3.24883 15.5442 2.62361L14.0442 5.22169ZM8.24998 1.87639L14.0442 5.22169L15.5442 2.62361L9.74998 -0.721688L8.24998 1.87639ZM8.49998 9C8.49998 9.27614 8.27612 9.5 7.99998 9.5V12.5C9.93297 12.5 11.5 10.933 11.5 9H8.49998ZM7.99998 8.5C8.27612 8.5 8.49998 8.72386 8.49998 9H11.5C11.5 7.067 9.93297 5.5 7.99998 5.5V8.5ZM7.49998 9C7.49998 8.72386 7.72384 8.5 7.99998 8.5V5.5C6.06698 5.5 4.49998 7.067 4.49998 9H7.49998ZM7.99998 9.5C7.72384 9.5 7.49998 9.27614 7.49998 9H4.49998C4.49998 10.933 6.06698 12.5 7.99998 12.5V9.5Z" fill="#EBECED" mask="url(#path-1-inside-1_328_15528)"/>
</svg>
