<svg width="24" height="24" viewBox="0 0 24 24" fill="none" xmlns="http://www.w3.org/2000/svg">
<path fill-rule="evenodd" clip-rule="evenodd" d="M8.80425 4C8.45946 4 8.13899 4.17762 7.95625 4.47L7.29375 5.53C7.11101 5.82238 6.79054 6 6.44575 6H4C3.44772 6 3 6.44772 3 7V17C3 17.5523 3.44772 18 4 18H20C20.5523 18 21 17.5523 21 17V7C21 6.44772 20.5523 6 20 6H17.5542C17.2095 6 16.889 5.82238 16.7062 5.53L16.0438 4.47C15.861 4.17762 15.5405 4 15.1958 4H8.80425ZM16 12C16 14.2091 14.2091 16 12 16C9.79086 16 8 14.2091 8 12C8 9.79086 9.79086 8 12 8C14.2091 8 16 9.79086 16 12Z" fill="#AEB0B5"/>
<circle cx="12" cy="12" r="3" fill="#AEB0B5"/>
</svg>
