<svg width="24" height="24" viewBox="0 0 24 24" fill="none" xmlns="http://www.w3.org/2000/svg">
<path d="M12.4188 7.76366C12.4188 7.76366 12.4188 7.77939 12.4111 7.78725L12.3956 7.82657C12.3259 7.95238 12.1864 8.03887 12.0391 8.03887C12.0314 8.03887 12.0159 8.03887 12.0081 8.03887C12.0004 8.03887 11.9926 8.03887 11.9771 8.03887C11.8221 8.03887 11.6904 7.95238 11.6206 7.82657L11.6051 7.78725C11.6051 7.78725 11.5974 7.77153 11.5974 7.76366C9.96225 4.57126 4.09586 5.86866 4.52208 10.3978H4.51433C4.51433 11.2863 5.57602 16.6411 11.9694 19H12.0236C18.417 16.6332 19.4864 11.2863 19.4864 10.3978H19.4787C19.8971 5.86866 14.0385 4.57126 12.4188 7.76366Z" stroke="#D7D8DA" stroke-width="1.5"/>
</svg>
