<svg width="40" height="23" viewBox="0 0 40 23" fill="none" xmlns="http://www.w3.org/2000/svg">
<path d="M0 4.68051C0 3.99917 0.122257 3.37392 0.378056 2.7928C0.622571 2.22302 0.956113 1.7314 1.4 1.30721C1.82257 0.905091 2.33354 0.581124 2.93354 0.346658C3.52226 0.122906 4.15549 0 4.84451 0C5.75549 0 6.55549 0.189716 7.22194 0.558434C7.88903 0.938497 8.4884 1.49693 9.02194 2.23374L7.49969 3.51826C7.22194 3.02664 6.87774 2.63586 6.46646 2.3453C6.04389 2.05473 5.52226 1.90977 4.89969 1.90977C4.51097 1.90977 4.15549 1.98792 3.84389 2.12217C3.52163 2.26714 3.25517 2.45749 3.03323 2.70267C2.8 2.95983 2.62194 3.25039 2.49969 3.58507C2.36614 3.9311 2.31097 4.29981 2.31097 4.67988C2.31097 5.05994 2.36677 5.42803 2.49969 5.76334C2.61066 6.09865 2.78871 6.38921 3.02194 6.6344C3.24451 6.89155 3.52226 7.09261 3.85517 7.22624C4.16614 7.3712 4.52163 7.43864 4.92163 7.43864C5.2326 7.43864 5.52163 7.40524 5.78809 7.32708C6.0326 7.26027 6.26583 7.14808 6.4884 7.00311C6.6884 6.86886 6.8884 6.69049 7.06583 6.48943C7.2326 6.28837 7.38809 6.06462 7.54357 5.80809L9.0326 7.13736C8.52163 7.85211 7.94357 8.38848 7.27712 8.77926C6.59937 9.15932 5.78809 9.36038 4.84389 9.36038C4.15486 9.36038 3.52163 9.23748 2.93292 9.01436C2.33292 8.77989 1.82194 8.45592 1.39937 8.0538C0.954859 7.64033 0.621944 7.14871 0.377429 6.56822C0.122257 5.99844 0 5.37256 0 4.68051Z" fill="white"/>
<path d="M9.51099 4.66916C9.51099 3.99917 9.63324 3.37329 9.88904 2.7928C10.1336 2.22302 10.4671 1.7314 10.911 1.30721C11.3336 0.905091 11.8445 0.581124 12.4445 0.346658C13.0332 0.122906 13.6778 0 14.3781 0C15.0784 0 15.7223 0.122906 16.3223 0.346658C16.911 0.581124 17.4226 0.905091 17.8665 1.30721C18.289 1.7314 18.6332 2.22302 18.8778 2.7928C19.111 3.37392 19.2332 3.99917 19.2332 4.66916C19.2332 5.33916 19.111 5.98709 18.8778 6.55687C18.6332 7.138 18.289 7.62899 17.8665 8.04246C17.422 8.45592 16.911 8.77989 16.3223 9.01436C15.7223 9.23748 15.0778 9.36038 14.3781 9.36038C13.6784 9.36038 13.0339 9.23748 12.4445 9.01436C11.8445 8.77989 11.3336 8.45592 10.911 8.04246C10.4665 7.62899 10.1336 7.138 9.88904 6.55687C9.63324 5.98709 9.51099 5.36185 9.51099 4.66916ZM11.822 4.66916C11.822 5.08263 11.8778 5.45135 12.0107 5.78603C12.1216 6.13269 12.2997 6.42262 12.5216 6.66843C12.7436 6.91424 13.0107 7.10396 13.3329 7.23821C13.6439 7.38318 13.9881 7.45062 14.3774 7.45062C14.7668 7.45062 15.111 7.38381 15.4326 7.23821C15.7436 7.10396 16.0107 6.91424 16.2326 6.66843C16.4552 6.42262 16.6213 6.13206 16.7549 5.78603C16.8658 5.45072 16.9329 5.08263 16.9329 4.66916C16.9329 4.27839 16.8665 3.90967 16.7549 3.57436C16.6213 3.23904 16.4552 2.94911 16.2326 2.7033C16.01 2.45749 15.7436 2.26777 15.4326 2.12281C15.1104 1.98855 14.7549 1.92174 14.3774 1.92174C14 1.92174 13.6439 1.98855 13.3329 2.12281C13.0107 2.26777 12.7442 2.45812 12.5216 2.7033C12.2991 2.94911 12.1216 3.23967 12.0107 3.57436C11.8771 3.90967 11.822 4.27839 11.822 4.66916Z" fill="white"/>
<path d="M28.0997 0H30.4665V9.36038H28.1555V4.68618L26.3442 9.36038H24.689L22.8777 4.68618V9.36038H20.5668V0H22.9335L25.511 6.65898L28.0997 0Z" fill="white"/>
<path d="M0.752319 13.7805H5.71846C6.09652 13.7805 6.46329 13.8366 6.80749 13.9368C7.14104 14.0484 7.43006 14.2047 7.67395 14.4058C7.91847 14.6295 8.10718 14.8974 8.25201 15.2321C8.38555 15.5674 8.46329 15.9695 8.46329 16.4164C8.46329 16.8632 8.40749 17.2427 8.29652 17.5559C8.18555 17.8799 8.01878 18.1478 7.79621 18.3602C7.57364 18.5839 7.29589 18.7736 6.97426 18.9073C6.64072 19.0636 6.25201 19.1865 5.83006 19.276L3.06329 19.8905V22.6827H0.752319V13.7805ZM6.16298 16.4725C6.16298 16.2714 6.09652 16.0817 5.96298 15.9254C5.81878 15.7804 5.62944 15.7016 5.40749 15.7016H3.06329V17.8572L5.17426 17.4664C5.55232 17.3996 5.80749 17.2767 5.95169 17.0977C6.08524 16.9187 6.16298 16.7177 6.16298 16.4718V16.4725Z" fill="white"/>
<path d="M8.20435 22.6827L11.2043 13.7805H14.1153L17.1153 22.6827H14.8043L13.9598 20.1918L11.0934 20.9847L10.5153 22.6827H8.20435ZM11.8043 18.8739L13.3598 18.4383L12.6595 16.3496L11.8043 18.8739Z" fill="white"/>
<path d="M19.1636 19.779C19.5523 20.1143 20.0081 20.3936 20.5416 20.594C21.0639 20.8064 21.6081 20.9066 22.1636 20.8959C22.5303 20.8959 22.7968 20.8398 22.9749 20.7282C23.1416 20.6274 23.2307 20.4711 23.2307 20.2593C23.2307 20.0135 23.131 19.8238 22.9416 19.6675C22.7416 19.5225 22.4081 19.3883 21.9529 19.254C21.5529 19.1424 21.1529 19.0195 20.7416 18.8853C20.3197 18.7624 19.9416 18.5947 19.6087 18.3716C19.2639 18.1592 18.9861 17.88 18.7755 17.5453C18.5529 17.21 18.4419 16.7858 18.4419 16.2494C18.4419 15.7805 18.531 15.3784 18.7197 15.0323C18.8977 14.697 19.1416 14.4178 19.4639 14.1947C19.7749 13.9823 20.1416 13.826 20.5636 13.7144C20.9749 13.6136 21.4194 13.5581 21.8858 13.5581C22.2081 13.5581 22.5191 13.5802 22.8194 13.6249C23.1084 13.6697 23.3974 13.7365 23.6858 13.826C23.9636 13.9268 24.2413 14.0497 24.5303 14.1833C24.7968 14.3283 25.0858 14.496 25.3855 14.697L24.4745 16.4839C24.1191 16.216 23.7191 15.9923 23.2971 15.836C22.8639 15.6796 22.4081 15.6015 21.9416 15.5788C21.7861 15.5788 21.6413 15.5788 21.5084 15.5901C21.3642 15.6122 21.2419 15.6462 21.1416 15.691C21.0307 15.7471 20.9529 15.8139 20.8971 15.8807C20.8307 15.9589 20.7968 16.0484 20.7968 16.1599C20.7968 16.2715 20.8081 16.3723 20.8526 16.4505C20.8745 16.54 20.9416 16.6295 21.0413 16.6963C21.1303 16.7745 21.2745 16.8526 21.4639 16.9201C21.6419 16.9982 21.8752 17.0764 22.1861 17.1545C22.6526 17.2888 23.1084 17.4337 23.5303 17.568C23.9416 17.7243 24.3084 17.9033 24.6194 18.1151C24.9303 18.3388 25.1749 18.618 25.3529 18.942C25.531 19.2773 25.6194 19.6902 25.6194 20.1818C25.6194 20.6734 25.5303 21.0528 25.3529 21.3882C25.1749 21.7235 24.9197 22.0134 24.6087 22.2372C24.2865 22.4609 23.9084 22.6279 23.4752 22.7395C23.0307 22.851 22.5529 22.9071 22.0419 22.9071C21.2971 22.9071 20.6087 22.7956 19.9755 22.5718C19.331 22.3481 18.731 22.0355 18.1868 21.6447L19.1642 19.779H19.1636Z" fill="white"/>
<path d="M27.63 19.779C28.0187 20.1143 28.4745 20.3936 29.0081 20.594C29.5303 20.8064 30.0745 20.9066 30.63 20.8959C30.9968 20.8959 31.2632 20.8398 31.4413 20.7282C31.6081 20.6274 31.6971 20.4711 31.6971 20.2593C31.6971 20.0135 31.5974 19.8238 31.4081 19.6675C31.2081 19.5225 30.8745 19.3883 30.4193 19.254C30.0193 19.1424 29.6193 19.0195 29.2081 18.8853C28.7861 18.7624 28.4081 18.5947 28.0751 18.3716C27.7303 18.1592 27.4526 17.88 27.2419 17.5453C27.0193 17.21 26.9084 16.7858 26.9084 16.2494C26.9084 15.7805 26.9974 15.3784 27.1861 15.0323C27.3642 14.697 27.6081 14.4178 27.9303 14.1947C28.2413 13.9823 28.6081 13.826 29.03 13.7144C29.4413 13.6136 29.8858 13.5581 30.3523 13.5581C30.6745 13.5581 30.9855 13.5802 31.2858 13.6249C31.5748 13.6697 31.8639 13.7365 32.1523 13.826C32.43 13.9268 32.7077 14.0497 32.9968 14.1833C33.2632 14.3283 33.5523 14.496 33.8519 14.697L32.941 16.4839C32.5855 16.216 32.1855 15.9923 31.7635 15.836C31.3303 15.6796 30.8745 15.6015 30.4081 15.5788C30.2526 15.5788 30.1077 15.5788 29.9748 15.5901C29.8306 15.6122 29.7084 15.6462 29.6081 15.691C29.4971 15.7471 29.4193 15.8139 29.3635 15.8807C29.2971 15.9589 29.2632 16.0484 29.2632 16.1599C29.2632 16.2715 29.2745 16.3723 29.319 16.4505C29.341 16.54 29.4081 16.6295 29.5077 16.6963C29.5968 16.7745 29.741 16.8526 29.9303 16.9201C30.1084 16.9982 30.3416 17.0764 30.6526 17.1545C31.119 17.2888 31.5748 17.4337 31.9968 17.568C32.4081 17.7243 32.7748 17.9033 33.0858 18.1151C33.3968 18.3388 33.6413 18.618 33.8193 18.942C33.9974 19.2773 34.0858 19.6902 34.0858 20.1818C34.0858 20.6734 33.9968 21.0528 33.8193 21.3882C33.6413 21.7235 33.3861 22.0134 33.0751 22.2372C32.7529 22.4609 32.3748 22.6279 31.9416 22.7395C31.4971 22.851 31.0193 22.9071 30.5084 22.9071C29.7635 22.9071 29.0751 22.7956 28.4419 22.5718C27.7974 22.3481 27.1974 22.0355 26.6532 21.6447L27.6306 19.779H27.63Z" fill="white"/>
<path d="M40 0H32V1.92111H40V0Z" fill="white"/>
<path d="M40 3.71924H32V5.64035H40V3.71924Z" fill="#2ECE95"/>
<path d="M40 7.43921H32V9.36032H40V7.43921Z" fill="white"/>
</svg>
